<svg xmlns="http://www.w3.org/2000/svg" xmlns:xlink="http://www.w3.org/1999/xlink" width="682" height="66" viewBox="0 0 682 66">
  <defs>
    <linearGradient id="linear-gradient" x1="0.5" x2="0.5" y2="1" gradientUnits="objectBoundingBox">
      <stop offset="0" stop-color="#dedede"/>
      <stop offset="0.517" stop-color="#fff"/>
      <stop offset="1" stop-color="#dedede"/>
    </linearGradient>
    <filter id="Rectángulo_348380" x="0" y="0" width="682" height="66" filterUnits="userSpaceOnUse">
      <feOffset dy="3" input="SourceAlpha"/>
      <feGaussianBlur stdDeviation="3" result="blur"/>
      <feFlood flood-opacity="0.161"/>
      <feComposite operator="in" in2="blur"/>
      <feComposite in="SourceGraphic"/>
    </filter>
    <clipPath id="clip-path">
      <rect id="Rectángulo_348259" data-name="Rectángulo 348259" width="45.138" height="41.273" fill="#fff"/>
    </clipPath>
  </defs>
  <g id="Grupo_1009407" data-name="Grupo 1009407" transform="translate(-171 -7719)">
    <g transform="matrix(1, 0, 0, 1, 171, 7719)" filter="url(#Rectángulo_348380)">
      <path id="Rectángulo_348380-2" data-name="Rectángulo 348380" d="M0,0H664a0,0,0,0,1,0,0V28a20,20,0,0,1-20,20H0a0,0,0,0,1,0,0V0A0,0,0,0,1,0,0Z" transform="translate(9 6)" fill="url(#linear-gradient)"/>
    </g>
    <path id="Rectángulo_348381" data-name="Rectángulo 348381" d="M0,0H50A20,20,0,0,1,70,20V48a0,0,0,0,1,0,0H0a0,0,0,0,1,0,0V0A0,0,0,0,1,0,0Z" transform="translate(180 7725)" fill="#3076b6"/>
    <g id="Grupo_1008681" data-name="Grupo 1008681" transform="translate(192.79 7728.363)">
      <g id="Grupo_1006792" data-name="Grupo 1006792" clip-path="url(#clip-path)">
        <path id="Trazado_718016" data-name="Trazado 718016" d="M11.033,26.237l5.679-3.22a9.8,9.8,0,0,0-.5-1.572,1.412,1.412,0,0,0-.78-.654c-2.42-.691-4.865-1.3-7.277-2.016-.724-.216-.966.214-1.345.589a3.314,3.314,0,0,1-4.125.557A3.522,3.522,0,0,1,1.012,15.89a3.743,3.743,0,0,1,3.6-2.527,3.657,3.657,0,0,1,3.2,2.756,1.089,1.089,0,0,0,.907.9q3.794,1.012,7.592,2.04l1.445-2.035-2.9-4.99c-4.292.41-7.041-1.107-7.933-4.358A6.148,6.148,0,0,1,10.285.61a5.955,5.955,0,0,1,7.524,2.015c1.931,2.633,1.511,5.432-1.284,8.427.08.17.151.359.251.531.876,1.5,1.757,3,2.659,4.532a4.949,4.949,0,0,1,4.732,1.3c.856-.9,1.685-1.788,2.538-2.656,1.15-1.169,2.3-2.338,3.486-3.47a.982.982,0,0,0,.284-1.231,3.356,3.356,0,0,1,1.387-3.935,3.331,3.331,0,0,1,4,.074A3.509,3.509,0,0,1,37.148,10.1a3.792,3.792,0,0,1-3.459,2.436c-.1,0-.23.031-.3-.017-1.3-.851-1.94.16-2.689.919-1.464,1.483-2.906,2.992-4.434,4.407-.815.755-1.3,1.466-.575,2.595h7.139c1.845-4.161,4.123-5.7,7.427-5.034a6.4,6.4,0,0,1,4.883,5.961,6.424,6.424,0,0,1-5.12,6.094c-2.972.605-5.432-1.122-7.194-5.1-2.36,0-4.749-.012-7.138.018a1.2,1.2,0,0,0-.727.4A15.354,15.354,0,0,0,23.571,24.4a1.2,1.2,0,0,0-.211.882c.725,2.763,1.471,5.522,2.277,8.263a1.378,1.378,0,0,0,.9.711,3.838,3.838,0,0,1,2.911,3.3,3.694,3.694,0,0,1-2.65,3.6,3.535,3.535,0,0,1-3.92-1.721A3.212,3.212,0,0,1,23.4,35.4a1.318,1.318,0,0,0,.344-1.526c-.807-2.84-1.563-5.695-2.264-8.275-1.171-.383-2.117-.718-3.081-.991a1.193,1.193,0,0,0-.814.108c-1.7.933-3.4,1.876-5.065,2.877a1.112,1.112,0,0,0-.442.929,6.222,6.222,0,0,1-4.46,7.365A6.136,6.136,0,0,1,.252,31.624a6.039,6.039,0,0,1,2.326-6.6,5.754,5.754,0,0,1,7.041-.017c.489.36.922.8,1.414,1.225m-9.12,3.747a4.07,4.07,0,0,0,4.259,4.242,4.268,4.268,0,0,0-.048-8.534,4.075,4.075,0,0,0-4.212,4.292M12.908,10.353a4.125,4.125,0,0,0,4.2-4.313,4.145,4.145,0,0,0-4.366-4.165A4.125,4.125,0,0,0,8.606,6.152a4.08,4.08,0,0,0,4.3,4.2M43.2,21.375a4,4,0,0,0-4.268-4.192,4.045,4.045,0,0,0-4.171,4.211,4.22,4.22,0,1,0,8.439-.019M20.866,17.858A2.667,2.667,0,0,0,18,20.624a2.671,2.671,0,0,0,2.843,2.794A2.658,2.658,0,0,0,23.655,20.7a2.667,2.667,0,0,0-2.789-2.845M4.443,18.5a1.484,1.484,0,0,0,1.6-1.666,1.568,1.568,0,0,0-1.7-1.615,1.551,1.551,0,0,0-1.584,1.714A1.448,1.448,0,0,0,4.443,18.5m31-9.484A1.455,1.455,0,0,0,33.806,7.4a1.535,1.535,0,0,0-1.675,1.612,1.6,1.6,0,0,0,1.663,1.67,1.558,1.558,0,0,0,1.648-1.661M24.293,37.748A1.522,1.522,0,0,0,25.927,39.4a1.539,1.539,0,0,0,1.646-1.655,1.51,1.51,0,0,0-1.652-1.627,1.474,1.474,0,0,0-1.629,1.63" transform="translate(0 -0.001)" fill="#fff"/>
      </g>
    </g>
  </g>
</svg>
