<svg xmlns="http://www.w3.org/2000/svg" xmlns:xlink="http://www.w3.org/1999/xlink" width="128.689" height="128.689" viewBox="0 0 128.689 128.689">
  <defs>
    <clipPath id="clip-path">
      <rect id="Rectángulo_348253" data-name="Rectángulo 348253" width="51.304" height="78.147" fill="#12263f"/>
    </clipPath>
  </defs>
  <g id="Grupo_1009403" data-name="Grupo 1009403" transform="translate(-1051.655 -5461.311)">
    <g id="Grupo_1006778" data-name="Grupo 1006778" transform="translate(1051.655 5461.311)" opacity="0.752">
      <g id="Grupo_20664" data-name="Grupo 20664" transform="translate(0 0)">
        <path id="Trazado_99075" data-name="Trazado 99075" d="M64.345,0A64.345,64.345,0,1,1,0,64.345,64.345,64.345,0,0,1,64.345,0Z" fill="#cbecfe"/>
        <path id="Trazado_715274" data-name="Trazado 715274" d="M50.963,0A50.963,50.963,0,1,1,0,50.963,50.963,50.963,0,0,1,50.963,0Z" transform="translate(13.382 13.382)" fill="#f6f6f6"/>
      </g>
    </g>
    <g id="Grupo_1006777" data-name="Grupo 1006777" transform="translate(1090.348 5486.582)">
      <g id="Grupo_1006775" data-name="Grupo 1006775" clip-path="url(#clip-path)">
        <path id="Trazado_718012" data-name="Trazado 718012" d="M.015,39.048q0-12.556,0-25.113C.015,11.166.044,8.4,0,5.629A2.047,2.047,0,0,1,.974,3.785,11.68,11.68,0,0,1,4.532,2.258,47.917,47.917,0,0,1,12.3.764,112.737,112.737,0,0,1,28.223.034,90.783,90.783,0,0,1,43.24,1.425,25.524,25.524,0,0,1,49.083,3.1a8.747,8.747,0,0,1,1.449.851A1.83,1.83,0,0,1,51.3,5.56q-.029,12.392-.014,24.785,0,16.758,0,33.517c0,2.894-.026,5.788.015,8.681a2.018,2.018,0,0,1-.953,1.81,12.366,12.366,0,0,1-4.095,1.691,59.491,59.491,0,0,1-9.187,1.551,116.715,116.715,0,0,1-14.248.514,90.069,90.069,0,0,1-14.7-1.373,26.484,26.484,0,0,1-5.846-1.651,8.492,8.492,0,0,1-1.529-.9A1.8,1.8,0,0,1,0,72.609Q.034,60.8.016,49q0-4.975,0-9.951M42.774,54.807c.707-.936,1.34-1.8,2.01-2.643a1.757,1.757,0,0,1,.686-.491c.863-.356,1.748-.658,2.612-1.013a1.17,1.17,0,0,0,.782-1.231c-.025-7.559-.015-15.118-.015-22.677v-.627c-.268.109-.452.192-.641.26-.763.275-1.526.555-2.3.809a.438.438,0,0,1-.393-.087c-.437-.638-.845-1.3-1.247-1.924.847-.268,1.662-.489,2.448-.788a10.681,10.681,0,0,0,1.758-.864.934.934,0,0,0,.355-.69c.02-5.587.012-11.174.023-16.761a.544.544,0,0,0-.4-.592c-1-.356-1.979-.79-3-1.053A63.664,63.664,0,0,0,34.01,2.745a113.972,113.972,0,0,0-12.377-.22A85.237,85.237,0,0,0,8.946,3.767,24.513,24.513,0,0,0,2.916,5.45a.688.688,0,0,0-.468.732q.02,8.287,0,16.574a.94.94,0,0,0,.573.967c.7.314,1.4.622,2.118.879.62.222,1.265.37,1.936.562L5.643,27.3,2.455,26.17v.51c0,7.606.009,15.212-.019,22.818A1.131,1.131,0,0,0,3.2,50.685c.924.378,1.868.7,2.8,1.059a.877.877,0,0,1,.385.221c.7.914,1.382,1.839,2.092,2.791a23.629,23.629,0,0,1-6.024-1.8v.591q0,8.9,0,17.794c0,1.2,0,1.191,1.138,1.65a29.267,29.267,0,0,0,5.8,1.477,82.664,82.664,0,0,0,11.054,1.112,110.281,110.281,0,0,0,11.35-.052,78.813,78.813,0,0,0,10.624-1.16,24.674,24.674,0,0,0,5.983-1.681.669.669,0,0,0,.448-.709q-.018-9.249-.01-18.5c0-.146-.015-.293-.023-.433-1.009.342-1.971.706-2.956.992s-2.021.5-3.092.764" transform="translate(0 0)" fill="#12263f"/>
        <path id="Trazado_718013" data-name="Trazado 718013" d="M93.637,215.814A20.754,20.754,0,1,1,73.219,195.1a20.747,20.747,0,0,1,20.419,20.715m-26.364-4.785,1.873-1.548a.2.2,0,0,0-.014-.077q-1.886-3.267-3.776-6.53c-.3-.515-.571-.569-1.075-.249a15.323,15.323,0,0,0-3.672,3.246,15.7,15.7,0,0,0-3.577,9c-.054.73.164.972.895.974q3.613.008,7.226.011h.327l.438-2.446H59.678a13.344,13.344,0,0,1,4.509-7.708l3.087,5.333m13.014,4.841a.245.245,0,0,0,.076.023c2.566.013,5.131.03,7.7.031.477,0,.7-.268.688-.754-.008-.265-.038-.53-.068-.794a15.533,15.533,0,0,0-7.019-11.634c-.609-.412-.842-.37-1.211.247-.865,1.448-1.71,2.908-2.562,4.364-.422.721-.844,1.443-1.246,2.131l1.882,1.584,3.124-5.322a13.284,13.284,0,0,1,4.445,7.749H79.881l.407,2.375m-11.143,6.37c-.629,1.079-1.262,2.172-1.9,3.259-.659,1.117-1.327,2.228-1.988,3.344-.307.519-.213.838.316,1.093.408.2.808.413,1.228.579a15.372,15.372,0,0,0,13.1-.534c.507-.255.6-.525.324-1.016q-1.372-2.479-2.75-4.955c-.322-.58-.647-1.159-.955-1.711l-2.316.819,2.993,5.406a13.2,13.2,0,0,1-8.89-.036l3.157-5.393-2.316-.856m3.764-1.51a4.88,4.88,0,1,0-4.9-4.867,4.893,4.893,0,0,0,4.9,4.867" transform="translate(-47.235 -176.776)" fill="#12263f"/>
        <path id="Trazado_718014" data-name="Trazado 718014" d="M249.638,390.121a2.439,2.439,0,1,0,2.426,2.455,2.44,2.44,0,0,0-2.426-2.455" transform="translate(-223.972 -353.486)" fill="#12263f"/>
        <path id="Trazado_718015" data-name="Trazado 718015" d="M249.638,390.121a2.439,2.439,0,1,1-2.453,2.473,2.443,2.443,0,0,1,2.453-2.473" transform="translate(-223.973 -353.486)" fill="#12263f"/>
      </g>
    </g>
  </g>
</svg>
