<svg xmlns="http://www.w3.org/2000/svg" xmlns:xlink="http://www.w3.org/1999/xlink" width="1027.698" height="302.391" viewBox="0 0 1027.698 302.391">
  <defs>
    <clipPath id="clip-path">
      <rect id="Rectángulo_44360" data-name="Rectángulo 44360" width="99.101" height="49.793" fill="none"/>
    </clipPath>
    <clipPath id="clip-path-2">
      <rect id="Rectángulo_44347" data-name="Rectángulo 44347" width="195" height="195" transform="translate(-0.303 -0.303)" fill="none"/>
    </clipPath>
    <clipPath id="clip-path-3">
      <rect id="Rectángulo_44369" data-name="Rectángulo 44369" width="74.062" height="66.775" fill="none"/>
    </clipPath>
    <clipPath id="clip-path-5">
      <rect id="Rectángulo_44372" data-name="Rectángulo 44372" width="24.855" height="79.664" fill="none"/>
    </clipPath>
    <clipPath id="clip-path-7">
      <rect id="Rectángulo_44358" data-name="Rectángulo 44358" width="63.898" height="104.799" fill="none"/>
    </clipPath>
    <clipPath id="clip-path-8">
      <rect id="Rectángulo_44373" data-name="Rectángulo 44373" width="73.054" height="99.358" fill="none"/>
    </clipPath>
    <clipPath id="clip-path-10">
      <rect id="Rectángulo_44359" data-name="Rectángulo 44359" width="91.28" height="35.257" fill="none"/>
    </clipPath>
    <clipPath id="clip-path-11">
      <rect id="Rectángulo_44376" data-name="Rectángulo 44376" width="71.946" height="72.907" fill="none"/>
    </clipPath>
  </defs>
  <g id="Grupo_1009406" data-name="Grupo 1009406" transform="translate(-287 -7289)">
    <rect id="Rectángulo_44625" data-name="Rectángulo 44625" width="129.943" height="129.943" transform="translate(487.818 7294.986) rotate(45)" fill="#fff"/>
    <g id="Grupo_1008620" data-name="Grupo 1008620" transform="translate(0 -40)">
      <rect id="Rectángulo_44626" data-name="Rectángulo 44626" width="129.943" height="129.943" transform="translate(383.849 7437.965) rotate(45)" fill="#fff"/>
      <path id="Trazado_195923" data-name="Trazado 195923" d="M17.97,96.846,96.849,17.967l78.879,78.879L96.849,175.725ZM96.849,0,0,96.846l96.849,96.849L193.7,96.846Z" transform="translate(287 7433.003)" fill="red"/>
      <g id="Grupo_562356" data-name="Grupo 562356" transform="translate(330.388 7504.604)">
        <g id="Grupo_562238" data-name="Grupo 562238" clip-path="url(#clip-path)">
          <path id="Trazado_195043" data-name="Trazado 195043" d="M128.932,119.558c0-1.508,1.679-6.845,1.679-6.845s2.105,5.336,2.105,6.845c0,2.848-1.06,3.467-2.105,3.467s-1.679-.62-1.679-3.467" transform="translate(-106.684 -93.263)"/>
          <path id="Trazado_195044" data-name="Trazado 195044" d="M133.416,68.241s-1.99,4.05-1.918,5.578.746,2.665,1.705,2.7,2.309-.711,2.167-2.878-1.954-5.4-1.954-5.4" transform="translate(-108.805 -56.465)"/>
          <path id="Trazado_195045" data-name="Trazado 195045" d="M160.228,6.69c-.365-1.938-2.091-2.984-4.6-2.984a10.666,10.666,0,0,0-1.558.121L135.816,7.01c-1.663.29-3.374.908-4.9.181l-1.987-1.8,2.217,11.1,25.67-4.6a4.487,4.487,0,0,0,3.409-5.2m-1.712,1.592a2.663,2.663,0,0,1-2.443,1.744l-23.96,2.684-.5-3.127,23.771-4.112a8.288,8.288,0,0,1,1,.075,2.122,2.122,0,0,1,2.136,2.737" transform="translate(-106.685 -3.067)"/>
          <path id="Trazado_195046" data-name="Trazado 195046" d="M489.818,107.2c0-1.508-1.741-6.845-1.741-6.845s-2.184,5.336-2.184,6.845c0,2.848,1.1,3.467,2.184,3.467s1.741-.62,1.741-3.467" transform="translate(-402.048 -83.041)"/>
          <path id="Trazado_195047" data-name="Trazado 195047" d="M488.371,64.535s2.064,4.05,1.99,5.578-.774,2.665-1.769,2.7-2.4-.711-2.248-2.878,2.027-5.4,2.027-5.4" transform="translate(-402.412 -53.399)"/>
          <path id="Trazado_195048" data-name="Trazado 195048" d="M326.133,8.181l26.63,4.6,2.3-11.1L353,3.485c-1.579.727-3.355.109-5.08-.181L328.986.121A11.468,11.468,0,0,0,327.369,0c-2.6,0-4.394,1.047-4.772,2.984a4.493,4.493,0,0,0,3.536,5.2m.456-6.342a8.914,8.914,0,0,1,1.033-.075l24.66,4.112L351.763,9,326.907,6.32a2.757,2.757,0,0,1-2.534-1.744,2.137,2.137,0,0,1,2.216-2.737" transform="translate(-266.867)"/>
          <path id="Trazado_195049" data-name="Trazado 195049" d="M374.179,204.631c-.44,0-.882-.009-1.322-.036a2.406,2.406,0,0,1-2.317-2.505,2.557,2.557,0,0,1,2.509-2.556c2.32-.055,5.474-.035,8.256-.017,1.3.008,2.538.016,3.6.016v1.705c-1.07,0-2.311-.008-3.616-.016-2.771-.018-5.911-.038-8.2.016a.85.85,0,0,0-.844.883.692.692,0,0,0,.716.771c.807.05,1.656.032,2.477.016.43-.008.858-.017,1.284-.017h8.188V204.6h-8.188c-.414,0-.831.008-1.25.017s-.859.017-1.294.017" transform="translate(-306.6 -165.073)"/>
          <path id="Trazado_195050" data-name="Trazado 195050" d="M395.452,186.048c-1.55-.1-2.338-.906-2.316-2.079a2.557,2.557,0,0,1,2.509-2.556c2.53-.06,11.931-.031,18.152-.012,2.062.007,3.725.012,4.58.012l-4.9,1.705c-.856,0-2.028-.012-2.028-.012-6.212-.019-13.254-.048-15.762.012a.85.85,0,0,0-.845.883.692.692,0,0,0,.716.771Z" transform="translate(-325.297 -150.079)"/>
          <path id="Trazado_195051" data-name="Trazado 195051" d="M397.625,224.143c-1.364,0-2.734-.023-4.092-.095a2.558,2.558,0,0,1-2.077-3.648,2.747,2.747,0,0,1,1.937-1.451l.334,1.672a1.05,1.05,0,0,0-.739.528.889.889,0,0,0,.056.813,1.048,1.048,0,0,0,.531.382h.03c2.663.14,5.279.095,8.049.047,1.358-.023.631-.048,2.032-.048l1.918,1.705c-1.386,0-2.57.024-3.921.048-1.336.023-2.694.047-4.058.047" transform="translate(-323.703 -181.168)"/>
          <path id="Trazado_195052" data-name="Trazado 195052" d="M439.354,242.967l-3.322.164-5.361,2.07H413.643a.614.614,0,0,1-.613-.613v-.853h-1.705v.853a2.321,2.321,0,0,0,2.318,2.318h17.345l5.4-2.087,2.961-.145Z" transform="translate(-340.348 -201.041)"/>
          <path id="Trazado_195053" data-name="Trazado 195053" d="M480.272,181.087c-3.1-.163-6.765-1.488-6.883-4.684-.107-2.925,2.611-4,4.064-4.156l.185,1.7-.093-.848.1.847c-.269.031-2.623.367-2.548,2.4.081,2.193,3.481,2.95,5.268,3.044Z" transform="translate(-391.7 -142.524)"/>
          <path id="Trazado_195054" data-name="Trazado 195054" d="M449.408,166.057H444.8l-6.235-2.886c-2.127,1.06-6.228,2.032-9.169-.639l-3.824.5a.948.948,0,0,0,.1.356,1.569,1.569,0,0,0,1.013.676L426.2,165.7a3.155,3.155,0,0,1-2.062-1.564,2.872,2.872,0,0,1-.114-2.167l.18-.478,5.8-.762.3.307c3.022,3.114,7.765.467,7.813.439l.382-.217,6.677,3.09h4.235Z" transform="translate(-350.72 -132.997)"/>
          <path id="Trazado_195055" data-name="Trazado 195055" d="M426.922,97.569a5.19,5.19,0,0,1-2.425-1.726,2.673,2.673,0,0,1-.372-1.811,1.789,1.789,0,0,0-.084-.9,1.151,1.151,0,0,0-.443-.431,11.449,11.449,0,0,1-.955-.732,2.874,2.874,0,0,1-.813-2.592,4.763,4.763,0,0,0-.026-1.042,7.4,7.4,0,0,0-1.576-2.428l1.1-1.006a8.759,8.759,0,0,1,1.941,3.167,6.061,6.061,0,0,1,.048,1.375c-.035.783-.019,1.128.286,1.386a9.933,9.933,0,0,0,.843.646,2.562,2.562,0,0,1,.85.855,2.9,2.9,0,0,1,.316,1.767,1.665,1.665,0,0,0,.08.854,3.753,3.753,0,0,0,1.309,1.152Z" transform="translate(-347.715 -70.253)"/>
          <path id="Trazado_195056" data-name="Trazado 195056" d="M450.289,98.59a7.463,7.463,0,0,1-1.506-1.5,3.908,3.908,0,0,1-.614-2.851c.007-.16.014-.325.018-.491.007-.3-.082-.4-.541-.791a5.505,5.505,0,0,1-1.059-1.112c-.978-1.416.187-3.839.431-4.31l1.326.685-.663-.342.663.341c-.437.852-.865,2.292-.529,2.779a4.131,4.131,0,0,0,.8.821,2.347,2.347,0,0,1,1.068,1.966c0,.177-.012.35-.019.52-.038.886-.045,1.449.276,1.84A6.041,6.041,0,0,0,451.2,97.41Z" transform="translate(-369.207 -72.428)"/>
          <path id="Trazado_195057" data-name="Trazado 195057" d="M513.943,92.291l-.932-1.165a7.576,7.576,0,0,0,1.647-1.741c.1-.208.084-.348,0-.759a5.148,5.148,0,0,1-.076-1.856,2.579,2.579,0,0,1,1.342-1.915c.352-.231.416-.294.433-.423a10.188,10.188,0,0,0-.541-3.019l1.424-.445a11.57,11.57,0,0,1,.6,3.661,2.037,2.037,0,0,1-1.093,1.473c-.416.273-.619.425-.684.879a3.691,3.691,0,0,0,.064,1.362,2.428,2.428,0,0,1-.135,1.708,9,9,0,0,1-2.049,2.238" transform="translate(-424.487 -66.997)"/>
          <path id="Trazado_195058" data-name="Trazado 195058" d="M531.616,87.393l-.435-1.432a5.73,5.73,0,0,0,1.727-1.759,1.365,1.365,0,0,0,.048-.761,2.935,2.935,0,0,1,.151-1.512,1.769,1.769,0,0,1,1.172-1.122,2.983,2.983,0,0,0,.76-.4c.314-.226.3-.6.2-1.524a9.708,9.708,0,0,1-.084-1.278c.033-1.7,2.223-3.185,2.662-3.465l.8,1.257c-.789.507-1.962,1.569-1.975,2.237a8.4,8.4,0,0,0,.075,1.083c.107.955.241,2.143-.811,2.9a4.48,4.48,0,0,1-1.093.583c-.248.1-.248.1-.333.3a1.556,1.556,0,0,0-.045.8,2.735,2.735,0,0,1-.182,1.541,9.9,9.9,0,0,1-2.643,2.558" transform="translate(-439.522 -61.345)"/>
          <path id="Trazado_195059" data-name="Trazado 195059" d="M72.826,174.413a5.189,5.189,0,0,1-2.425-1.726,2.672,2.672,0,0,1-.372-1.81,1.786,1.786,0,0,0-.085-.9,1.151,1.151,0,0,0-.443-.431,11.478,11.478,0,0,1-.955-.732,2.872,2.872,0,0,1-.812-2.592,4.763,4.763,0,0,0-.026-1.042,7.4,7.4,0,0,0-1.576-2.429l1.1-1.005a8.753,8.753,0,0,1,1.941,3.167,6.052,6.052,0,0,1,.048,1.376c-.035.783-.019,1.128.286,1.386a9.908,9.908,0,0,0,.843.646,2.567,2.567,0,0,1,.85.855,2.9,2.9,0,0,1,.316,1.767,1.662,1.662,0,0,0,.08.854,4.012,4.012,0,0,0,1.522,1.152Z" transform="translate(-54.72 -133.837)"/>
          <path id="Trazado_195060" data-name="Trazado 195060" d="M94.958,186.552a7.463,7.463,0,0,1-1.506-1.5,3.909,3.909,0,0,1-.614-2.851c.007-.16.014-.325.018-.491.007-.3-.082-.4-.541-.791a5.507,5.507,0,0,1-1.059-1.112c-.978-1.416.187-3.839.431-4.31l1.326.685-.663-.342.663.342c-.438.852-.865,2.292-.529,2.778a4.131,4.131,0,0,0,.8.821,2.346,2.346,0,0,1,1.068,1.965c0,.177-.012.35-.019.52-.038.886-.045,1.449.277,1.84a6.041,6.041,0,0,0,1.264,1.268Z" transform="translate(-75.191 -145.211)"/>
          <path id="Trazado_195061" data-name="Trazado 195061" d="M158.612,180.253l-.932-1.165a7.574,7.574,0,0,0,1.647-1.741c.1-.208.084-.348,0-.759a5.149,5.149,0,0,1-.076-1.856,2.58,2.58,0,0,1,1.342-1.915c.351-.231.416-.294.433-.423a10.149,10.149,0,0,0-.541-3.019l1.424-.445a11.575,11.575,0,0,1,.6,3.661,2.038,2.038,0,0,1-1.093,1.473c-.416.273-.619.425-.684.879a3.693,3.693,0,0,0,.064,1.362,2.428,2.428,0,0,1-.135,1.708,9,9,0,0,1-2.049,2.239" transform="translate(-130.47 -139.781)"/>
          <path id="Trazado_195062" data-name="Trazado 195062" d="M168.064,169.179l-.861-1.218a8.957,8.957,0,0,0,2.153-1.972,1.365,1.365,0,0,0,.048-.761,2.937,2.937,0,0,1,.151-1.512,1.77,1.77,0,0,1,1.172-1.122,2.984,2.984,0,0,0,.76-.4c.314-.226.3-.6.2-1.524a9.688,9.688,0,0,1-.084-1.278c.033-1.7,2.223-3.185,2.662-3.465l.8,1.257c-.789.507-1.962,1.569-1.975,2.237a8.408,8.408,0,0,0,.075,1.083c.107.955.241,2.143-.811,2.9a4.482,4.482,0,0,1-1.093.583c-.248.1-.248.1-.333.3a1.559,1.559,0,0,0-.045.8,2.739,2.739,0,0,1-.182,1.541,9.9,9.9,0,0,1-2.643,2.557" transform="translate(-138.351 -129.018)"/>
          <path id="Trazado_195063" data-name="Trazado 195063" d="M29.556,240.564a6.931,6.931,0,0,1-5.494,2.916,6.483,6.483,0,0,1-5.424-2.916H0v8.281H47v-8.281Z" transform="translate(0 -199.053)"/>
        </g>
      </g>
    </g>
    <g id="Grupo_562357" data-name="Grupo 562357" transform="translate(390.303 7289.306)">
      <path id="Trazado_194998" data-name="Trazado 194998" d="M18.034,97.195,97.2,18.031,176.36,97.195,97.2,176.357ZM97.2,0,0,97.195l97.2,97.2,97.2-97.2Z" fill="red"/>
      <path id="Trazado_194999" data-name="Trazado 194999" d="M328.615,549.235l1.435,1.275,19.365-17.772Z" transform="translate(-266.035 -431.29)"/>
      <path id="Trazado_195000" data-name="Trazado 195000" d="M334.114,541.983l-.478-.8,16.337-8.447Z" transform="translate(-270.101 -431.29)"/>
      <path id="Trazado_195001" data-name="Trazado 195001" d="M265,535.028v-1.116l30.2-6.615Z" transform="translate(-214.539 -426.885)"/>
      <path id="Trazado_195002" data-name="Trazado 195002" d="M216.042,527.676v1.156l39.727-5.3Z" transform="translate(-174.9 -423.836)"/>
      <path id="Trazado_195003" data-name="Trazado 195003" d="M265.842,505.746l.8,1,28.451.837Z" transform="translate(-215.217 -409.437)"/>
      <path id="Trazado_195004" data-name="Trazado 195004" d="M346.609,493.051l.956-1.116,13.428,3.347Z" transform="translate(-280.603 -398.257)"/>
      <path id="Trazado_195005" data-name="Trazado 195005" d="M373.811,477.08v.677l9.484,4.782Z" transform="translate(-302.625 -386.23)"/>
      <path id="Trazado_195006" data-name="Trazado 195006" d="M386.365,467.454v.8l8.726,6.057Z" transform="translate(-312.788 -378.438)"/>
      <path id="Trazado_195007" data-name="Trazado 195007" d="M489.58,309.895l1.753,1.036-8.089,24.745Z" transform="translate(-391.218 -250.883)"/>
      <path id="Trazado_195008" data-name="Trazado 195008" d="M496.793,244.4l2.869,1.355-14.345,39.289-2.072-1.674Z" transform="translate(-391.219 -197.862)"/>
      <path id="Trazado_195009" data-name="Trazado 195009" d="M502.2,341.491l1.554,1.036L490.568,365Z" transform="translate(-397.147 -276.462)"/>
      <path id="Trazado_195010" data-name="Trazado 195010" d="M550.481,366.181l.638.837.717-.638.638,1.973-.558,2.172-1.036,1.036-1.514-1.435.359-2.55Z" transform="translate(-444.748 -296.451)"/>
      <path id="Trazado_195011" data-name="Trazado 195011" d="M475.921,343.615l32.993-36.021,1.514,1.474Z" transform="translate(-385.29 -249.02)"/>
      <path id="Trazado_195012" data-name="Trazado 195012" d="M525.1,376.016v2.869l-30.762,19.047Z" transform="translate(-400.197 -304.412)"/>
      <g id="Grupo_562223" data-name="Grupo 562223" transform="translate(0 -0.003)">
        <g id="Grupo_562222" data-name="Grupo 562222" transform="translate(0 0)" clip-path="url(#clip-path-2)">
          <path id="Trazado_195013" data-name="Trazado 195013" d="M632.344,421.212a4.754,4.754,0,0,0-1.793,3.028l5.34.558Z" transform="translate(-510.473 -340.999)"/>
          <path id="Trazado_195014" data-name="Trazado 195014" d="M528.406,442.555v1.713l-18.17,7.093Z" transform="translate(-413.07 -358.277)"/>
          <path id="Trazado_195015" data-name="Trazado 195015" d="M545.477,422.467l.677,1.953-53.913,12.193Z" transform="translate(-398.502 -342.015)"/>
          <path id="Trazado_195016" data-name="Trazado 195016" d="M556.745,451.97v2.391l-59.69,7.889Z" transform="translate(-402.399 -365.9)"/>
          <path id="Trazado_195017" data-name="Trazado 195017" d="M592.469,495.283l.677,2.749H594.5l1.554-.956.717.319.638,1.036,3.706.239,2.431-2.71-6.615-3.188-1.953,1.793Z" transform="translate(-479.643 -398.932)"/>
          <path id="Trazado_195018" data-name="Trazado 195018" d="M559.607,517.573l1.116,1.2-50.486-2.351Z" transform="translate(-413.071 -418.074)"/>
          <path id="Trazado_195019" data-name="Trazado 195019" d="M522.437,527.127,522,530.435l-24.944-6.694Z" transform="translate(-402.399 -424.002)"/>
          <path id="Trazado_195020" data-name="Trazado 195020" d="M517.616,538.685l.518,1.674-16.058-9.922Z" transform="translate(-406.464 -429.423)"/>
          <path id="Trazado_195021" data-name="Trazado 195021" d="M510.382,540.8l-.877,1-18.728-14.7Z" transform="translate(-397.317 -426.713)"/>
          <path id="Trazado_195022" data-name="Trazado 195022" d="M501.615,543.5l.638,1.873-15.66-12.631Z" transform="translate(-393.929 -431.287)"/>
          <path id="Trazado_195023" data-name="Trazado 195023" d="M389.244,571.118l-1.636-2.335,2.672-.893h1.634l.837.917s-.08,1.435-.478,1.634-1.474.677-1.474.677l-.619-.438Z" transform="translate(-313.795 -459.744)"/>
          <path id="Trazado_195024" data-name="Trazado 195024" d="M291.12,576.365l-.8,2.53,2.152,2.71.638-1.634,1.2-.119,1.036-1.554v-.319l-1.514-.677-1,.478Z" transform="translate(-235.036 -466.605)"/>
          <path id="Trazado_195025" data-name="Trazado 195025" d="M331.753,552.825l1.833,1.713,1.2-.279.2-.638v-.6Z" transform="translate(-268.576 -447.548)"/>
          <path id="Trazado_195026" data-name="Trazado 195026" d="M289.127,520.6l-2.152,1.594.319.717,5.169.409Z" transform="translate(-232.326 -421.461)"/>
          <path id="Trazado_195027" data-name="Trazado 195027" d="M343.778,510.717v-2.191l-1.833.916-.677-1.395h-2.55L337.4,510.08l2.152,1.435,2.271.478.558-1Z" transform="translate(-273.15 -411.298)"/>
          <path id="Trazado_195028" data-name="Trazado 195028" d="M517.9,427.627l-.757-1.474,4.3-2.152h1.913l3.507-2.789-1.953,3.586-3.985,3.726-.637-1.733Z" transform="translate(-418.66 -340.999)"/>
          <path id="Trazado_195029" data-name="Trazado 195029" d="M694.957,364.288l1.156-3.546,2.391,4.064v4.622l-3.546-2.391-1.873,1.913-2.271-1.395.438-2.47.518-.478Z" transform="translate(-559.259 -292.044)"/>
          <path id="Trazado_195030" data-name="Trazado 195030" d="M542.251,541.078l2.55,1.773c.2.14,6.655,1.255,6.655,1.255l.2-1.873-3.985-2.59h-1.753l-.478.8-2.351-.558Z" transform="translate(-438.988 -436.876)"/>
          <path id="Trazado_195031" data-name="Trazado 195031" d="M483.245,324.89l.638-2.949,1.076.478.917-1.435h.956l1.271,3.905-3.144,3.028-.319-2.391Z" transform="translate(-391.219 -259.858)"/>
          <path id="Trazado_195032" data-name="Trazado 195032" d="M363.349,532.349v1l12.273-4.582Z" transform="translate(-294.155 -428.068)"/>
          <path id="Trazado_195033" data-name="Trazado 195033" d="M424.628,505.274l1.554.8s-.12,4.8-7.173,7.71c0,0,.158,0,.428-.034-.335.108-.677.2-1.023.28A11.945,11.945,0,0,1,403.9,503.509l.646,1.387,5.021.8,3.426-2.79,4.624,4.064,3.624-2.071v-2.711Z" transform="translate(-326.984 -406.552)"/>
          <path id="Trazado_195034" data-name="Trazado 195034" d="M426.875,445.527h-4.382l-.32,2.243-3.694-.569,1.224,2.988-2.51,3.048-4.514-2.183-4.65.211-1.944-2.09a11.942,11.942,0,0,1,11.466-8.609,12.418,12.418,0,0,1,8.039,3.287,13.25,13.25,0,0,1,1.285,1.673" transform="translate(-328.753 -356.667)"/>
        </g>
      </g>
    </g>
    <g id="Grupo_1008621" data-name="Grupo 1008621" transform="translate(0 -40)">
      <rect id="Rectángulo_44627" data-name="Rectángulo 44627" width="129.943" height="129.943" transform="translate(590.849 7437.965) rotate(45)" fill="#fff"/>
      <path id="Trazado_195924" data-name="Trazado 195924" d="M17.97,96.846,96.849,17.967l78.879,78.879L96.849,175.725ZM96.849,0,0,96.846l96.849,96.849L193.7,96.846Z" transform="translate(494 7433.003)" fill="red"/>
      <g id="Grupo_562358" data-name="Grupo 562358" transform="translate(553.817 7490.612)">
        <g id="Grupo_562248" data-name="Grupo 562248" clip-path="url(#clip-path-3)">
          <path id="Trazado_195072" data-name="Trazado 195072" d="M71.5,52.521c-2.207-1.626-5.512-.626-7.893.5a2.127,2.127,0,0,1-1.8.021L50.99,48.116l-1-.454a5.973,5.973,0,0,0,.147-.779c.009-.068.015-.136.021-.2.083-.03.164-.066.245-.1l.632-.29L64.172,40.26a2.121,2.121,0,0,1,1.869.06c2.824,1.511,3.83,1.6,4.162,1.632a2.918,2.918,0,0,0,2.279-.8,5.772,5.772,0,0,0,1.579-4.233c0-2.192-1.8-3.92-2.7-4.643v-.67a4.225,4.225,0,0,0-2.171-3.716A4.115,4.115,0,0,0,65,27.928a6.965,6.965,0,0,0-1.428,1.162,25.3,25.3,0,0,0-3.516,4.4,2.1,2.1,0,0,1-1.051.879l-3.281,1.245L53.06,36.626a9.806,9.806,0,0,0,2.973-9.183,8.794,8.794,0,0,1-.168-1.289l3.743-5.522.043-.087c1.232-2.524.132-6.67-1.634-8.551l-3.941-4.2c-.119-.128-.247-.253-.377-.372L50.736,4.715a12.071,12.071,0,0,0-4.805-2.686L40.559.495a12.822,12.822,0,0,0-7.055,0L28.133,2.029a12.057,12.057,0,0,0-4.805,2.686L20.364,7.424c-.13.117-.255.243-.375.37l-3.941,4.2c-1.768,1.881-2.867,6.027-1.637,8.551l.045.087L18.2,26.153a9.11,9.11,0,0,1-.166,1.289,9.795,9.795,0,0,0,2.977,9.187l-.4-.151-5.554-2.111A2.082,2.082,0,0,1,14,33.489a25.347,25.347,0,0,0-3.518-4.4,7.013,7.013,0,0,0-1.426-1.162,4.123,4.123,0,0,0-4.2-.038A4.227,4.227,0,0,0,2.7,31.605v.67C1.8,33,0,34.727,0,36.919a5.77,5.77,0,0,0,1.577,4.233,2.92,2.92,0,0,0,2.279.8c.332-.03,1.339-.121,4.163-1.632a2.121,2.121,0,0,1,1.869-.06l13.767,6.316c.081.038.164.072.247.1a6,6,0,0,0,.168.981L12.253,53.042a2.127,2.127,0,0,1-1.8-.021c-2.383-1.126-5.686-2.126-7.893-.5C.762,53.846-.1,55.216.009,56.593c.1,1.279,1,2.375,2.692,3.26a17.92,17.92,0,0,0,1.768.853c.1.858.181,1.588.226,1.9.143,1,.83,2.852,3.8,3.967a3,3,0,0,0,1.068.2,2.909,2.909,0,0,0,1.228-.274,6.154,6.154,0,0,0,2.624-3.256l.009-.023a13.268,13.268,0,0,1,1.971-3.771,2.107,2.107,0,0,1,.717-.591l11.836-5.952.27-.138a1.967,1.967,0,0,1,.367-.143l.188-.052,5.218,2.781a6.441,6.441,0,0,0,6.078,0l5.218-2.779.165.045a2.106,2.106,0,0,1,.389.149L47,53.349l10.953,5.51a2.107,2.107,0,0,1,.717.591,13.218,13.218,0,0,1,1.968,3.771l.009.023A6.174,6.174,0,0,0,63.269,66.5a2.906,2.906,0,0,0,1.228.275,3,3,0,0,0,1.068-.2c2.973-1.115,3.658-2.964,3.8-3.967.045-.313.13-1.043.226-1.9a17.952,17.952,0,0,0,1.768-.853c1.688-.885,2.594-1.981,2.692-3.26.1-1.377-.755-2.747-2.554-4.073M59.759,36.357a4.224,4.224,0,0,0,2.124-1.781,23.409,23.409,0,0,1,3.228-4.014,4.77,4.77,0,0,1,.983-.809,1.99,1.99,0,0,1,2.049-.013,2.121,2.121,0,0,1,1.092,1.864v5.029a.853.853,0,0,0,.853.853h.421a.853.853,0,0,0,.853-.853v-1.27a2.867,2.867,0,0,1,.57,1.556,3.768,3.768,0,0,1-.885,2.66.8.8,0,0,1-.653.253,10.709,10.709,0,0,1-3.35-1.39,4.251,4.251,0,0,0-3.758-.115L51.038,43.946l-.849.389V39.994l1.841-.7ZM20.721,28.1a12.6,12.6,0,0,0-.162-5.8l-.5-1.866a2.615,2.615,0,0,1,.238-1.945l1.888-3.4a1.071,1.071,0,0,0-.415-1.456l-.547-.3a1.07,1.07,0,0,0-1.456.416l-1.887,3.4a5.333,5.333,0,0,0-.677,2.611l-.341-.5c-.57-1.328.049-4.141,1.2-5.367L22,9.688c.072-.077.149-.153.228-.223l2.962-2.709a9.319,9.319,0,0,1,3.7-2.066l5.371-1.534a10.066,10.066,0,0,1,5.535,0l5.371,1.534a9.319,9.319,0,0,1,3.7,2.066l2.962,2.709c.079.07.153.147.226.223L56,13.887c1.153,1.226,1.773,4.039,1.2,5.367l-.34.5a5.39,5.39,0,0,0-.675-2.613L54.3,13.751a1.076,1.076,0,0,0-1.464-.417l-.534.3a1.077,1.077,0,0,0-.419,1.466l1.883,3.39A2.613,2.613,0,0,1,54,20.431L53.5,22.3a12.559,12.559,0,0,0-.162,5.8A6.936,6.936,0,0,1,50.555,35.1l-2.707,1.949-3.594,2.588a1.5,1.5,0,0,0-.432.512l-.153.3,0,.347c0,.038,0,.079,0,.119a5.2,5.2,0,0,1-1.036,3l-.013.015a2.955,2.955,0,0,1-1.407.711l-.321.106-1.111.381-.962.33a5.571,5.571,0,0,1-3.579,0l-1.856-.636-.217-.074-.319-.106a2.909,2.909,0,0,1-1.419-.726,3.17,3.17,0,0,1-.343-.5,4.888,4.888,0,0,1-.375-.826,5.756,5.756,0,0,1-.26-1.009,4.442,4.442,0,0,1-.064-.789v-.117a.983.983,0,0,0-.1-.439l-.2-.4-1.971-1.419L23.507,35.1A6.931,6.931,0,0,1,20.721,28.1M10.774,38.328a4.255,4.255,0,0,0-3.76.115,10.685,10.685,0,0,1-3.352,1.39.8.8,0,0,1-.651-.253,3.777,3.777,0,0,1-.883-2.66A2.864,2.864,0,0,1,2.7,35.364v1.27a.853.853,0,0,0,.853.853h.421a.853.853,0,0,0,.853-.853V31.605a2.117,2.117,0,0,1,1.092-1.864,1.99,1.99,0,0,1,2.049.013,4.835,4.835,0,0,1,.985.809,23.36,23.36,0,0,1,3.226,4.014A4.219,4.219,0,0,0,14.3,36.357l9.574,3.637v4.341Zm15.41,13.081L15.156,56.957a4.2,4.2,0,0,0-1.453,1.2,15.223,15.223,0,0,0-2.292,4.371A4.132,4.132,0,0,1,9.9,64.567a.776.776,0,0,1-.653.015c-1.464-.549-2.307-1.336-2.441-2.275-.1-.7-.421-3.675-.594-5.295a1.064,1.064,0,0,0-2.115.226c.03.294.066.632.106.992l-.511-.262c-.968-.507-1.519-1.051-1.556-1.537-.045-.57.572-1.373,1.692-2.2,1.047-.77,3.132-.511,5.722.713a4.261,4.261,0,0,0,3.59.032L24.92,49.609a5.935,5.935,0,0,0,.415.568,6.354,6.354,0,0,0,1.141,1.085Zm12.583,1.5a3.691,3.691,0,0,1-3.473,0l-4.45-2.373-2.247-1.2a3.438,3.438,0,0,1-.438-.274,3.624,3.624,0,0,1-.555-.5,3.713,3.713,0,0,1-.668-1.036q-.048-.112-.089-.23a3.658,3.658,0,0,1-.164-.66v0l-.043-1.4v-4.2l.824.313.189.136a8.425,8.425,0,0,0,.828,2.913l.217.4a5.78,5.78,0,0,0,.636.909,4.123,4.123,0,0,0,.464.462,6.108,6.108,0,0,0,2.175,1.081l.3.1.93.319,1.141.392a8.367,8.367,0,0,0,5.371,0l.385-.132,1.688-.579.3-.1a7.915,7.915,0,0,0,1.579-.66,4.146,4.146,0,0,0,1.062-.883,5.814,5.814,0,0,0,.56-.779,7.216,7.216,0,0,0,.362-.675,8.409,8.409,0,0,0,.758-2.773l.194-.138,0,0,.817-.311v5.039a3.691,3.691,0,0,1-1.956,3.26l-.1.051-2.726,1.453ZM71.93,56.432c-.038.485-.592,1.03-1.558,1.537-.189.1-.358.185-.511.262.038-.36.075-.7.106-.992a1.064,1.064,0,0,0-2.115-.226c-.172,1.619-.494,4.6-.594,5.295-.134.938-.979,1.726-2.441,2.275a.776.776,0,0,1-.653-.015,4.145,4.145,0,0,1-1.515-2.037,15.221,15.221,0,0,0-2.292-4.371,4.217,4.217,0,0,0-1.453-1.2l-9.868-4.965-1.448-.728h0a6.524,6.524,0,0,0,.6-.5,6.239,6.239,0,0,0,.956-1.149l1.233.561,10.549,4.807a4.261,4.261,0,0,0,3.59-.032c2.59-1.224,4.675-1.483,5.72-.713,1.122.826,1.739,1.628,1.7,2.2" transform="translate(0 0)"/>
          <path id="Trazado_195073" data-name="Trazado 195073" d="M223.671,212.778a1.983,1.983,0,0,0-.193-.753l-.193-.4a7.878,7.878,0,0,0-.8-1.078,4.035,4.035,0,0,1-.786-1.81,13.255,13.255,0,0,0-.492-1.424l.012-.017-.22-.459a1.932,1.932,0,0,0-.139-.244,1.8,1.8,0,0,0-.353-.39,1.77,1.77,0,0,0-.428-.26,1.807,1.807,0,0,0-.473-.13,1.841,1.841,0,0,0-.244-.016,1.811,1.811,0,0,0-.938.26,1.77,1.77,0,0,0-.206.146,1.845,1.845,0,0,0-.492.634l-.079.166,0,0a13.477,13.477,0,0,0-.623,1.731,4.033,4.033,0,0,1-.786,1.81c-.23.325-.526.6-.727.934H215.5l-.262.548a1.982,1.982,0,0,0-.193.753q0,.075,0,.15a1.97,1.97,0,0,0,.542,1.312,1.526,1.526,0,0,0,.174.155,1.682,1.682,0,0,0,1.523.244l1.517-.479a1.86,1.86,0,0,1,1.119,0l1.517.479a1.682,1.682,0,0,0,1.523-.244,1.527,1.527,0,0,0,.174-.155,1.97,1.97,0,0,0,.542-1.312q0-.075,0-.15" transform="translate(-182.327 -174.485)"/>
          <path id="Trazado_195074" data-name="Trazado 195074" d="M154.3,161.164a3.267,3.267,0,0,0,2.445-1.258l1.889-2.283c1.277-1.658.92-3.936-.177-3.936h-8.847c-1.1,0-1.59,1.164-.872,3.311l1.126,2q.115.2.248.4a4.252,4.252,0,0,0,3.507,1.789c.23,0,.459-.006.681-.02" transform="translate(-125.825 -130.306)"/>
          <path id="Trazado_195075" data-name="Trazado 195075" d="M270.959,161.164a3.267,3.267,0,0,1-2.445-1.258l-1.889-2.283c-1.277-1.658-.92-3.936.177-3.936h8.847c1.1,0,1.59,1.164.872,3.311l-1.126,2q-.115.2-.248.4a4.252,4.252,0,0,1-3.507,1.789c-.23,0-.459-.006-.681-.02" transform="translate(-225.373 -130.306)"/>
        </g>
      </g>
    </g>
    <g id="Grupo_1008622" data-name="Grupo 1008622" transform="translate(0 -40)">
      <rect id="Rectángulo_44628" data-name="Rectángulo 44628" width="129.943" height="129.943" transform="translate(695.818 7334.986) rotate(45)" fill="#fff"/>
      <g id="Grupo_562359" data-name="Grupo 562359" transform="translate(598.303 7329.306)">
        <path id="Trazado_194998-2" data-name="Trazado 194998" d="M18.034,97.195,97.2,18.031,176.36,97.195,97.2,176.357ZM97.2,0,0,97.195l97.2,97.2,97.2-97.2Z" fill="red"/>
      </g>
      <path id="Trazado_195925" data-name="Trazado 195925" d="M372.6,310.4s-12.413-.477-21.961-14.561S353.5,266.6,353.5,266.6l.353,1.57a9.5,9.5,0,0,0,3.652,5.578l1.485,1.088c-7.161-14.8,4.058-30.554,4.058-30.554-3.342,5.729,4.058,16.232,4.058,16.232-2.421-9.9,7.431-20.412,8.986-22a4.2,4.2,0,0,0,.4-.473c4.5-6.2,2.067-15.247,2.067-15.247,5.967,3.819,7.161,14.322,6.494,22.438s6.4,15.516,6.4,15.516L395.99,246.9c-1.4,5.25,7.534,19.971,11.015,29.456,2.371,6.461,3.4,10.288,1.109,18.684C404.257,309.2,386.2,310.4,386.2,310.4l5.117-5.886a25.488,25.488,0,0,0,4.42-7.234l2.876-7.17-1.686,1.8a19.833,19.833,0,0,1-4.417,3.529l-2.312,1.358,2.806-6.207a9.978,9.978,0,0,0,.63-6.351l-1.467-6.3-1.252,4.142a5.315,5.315,0,0,1-1.22,2.136l-4.212,4.7,1.027-5.583a5.212,5.212,0,0,0-.787-3.933q-.1-.147-.217-.288l-.349-.432a4.265,4.265,0,0,1-.943-2.86c.034-.806.1-1.612.211-2.411a26.945,26.945,0,0,0,.258-4.659l0-.083-2.727,3.472a6.663,6.663,0,0,0-1.3,3.366l-.538,5.653-3.422-5.595a6.1,6.1,0,0,1-.99-2.914l-.482-6.65-2.792,5.236a12.362,12.362,0,0,0-1.283,7.869l1.45,8.618-2.871-2.792a8.277,8.277,0,0,1-2.066-3.267l-1.269-3.728-.944,3.258a14.142,14.142,0,0,0,.672,9.708l2.421,5.414s-7.758.239-8.952-5.132c0,0-1.193,7.161,6.8,13.845Z" transform="translate(317.607 7140.85)"/>
      <rect id="Rectángulo_348378" data-name="Rectángulo 348378" width="53.248" height="6.856" transform="translate(669.194 7454.181)"/>
    </g>
    <g id="Grupo_1008627" data-name="Grupo 1008627" transform="translate(0 -40)">
      <rect id="Rectángulo_44634" data-name="Rectángulo 44634" width="129.943" height="129.943" transform="translate(800.849 7437.965) rotate(45)" fill="#fff"/>
      <path id="Trazado_195928" data-name="Trazado 195928" d="M17.97,96.846,96.849,17.967l78.879,78.879L96.849,175.725ZM96.849,0,0,96.846l96.849,96.849L193.7,96.846Z" transform="translate(704 7433.003)" fill="red"/>
      <g id="Grupo_562363" data-name="Grupo 562363" transform="translate(788.079 7489.668)">
        <g id="Grupo_562252" data-name="Grupo 562252" clip-path="url(#clip-path-5)">
          <path id="Trazado_195084" data-name="Trazado 195084" d="M24.855,9.882C24.169,14.056,23.339,19,22.547,23.94c-1.275,7.961-2.563,15.921-3.77,23.893-.59,3.9-3.033,6.528-6.323,6.543s-5.829-2.619-6.433-6.482Q3.158,29.6.2,11.316C-.768,5.334,1.85,1.563,7.752.479a22.824,22.824,0,0,1,11,.4c3.928,1.2,6.158,4.147,6.107,9" transform="translate(0 0)"/>
          <path id="Trazado_195085" data-name="Trazado 195085" d="M35.269,367.961a9.673,9.673,0,1,1-9.673-9.673,9.673,9.673,0,0,1,9.673,9.673" transform="translate(-13.242 -297.97)"/>
        </g>
      </g>
    </g>
    <g id="Grupo_1008623" data-name="Grupo 1008623" transform="translate(0 -40)">
      <rect id="Rectángulo_44635" data-name="Rectángulo 44635" width="129.943" height="129.943" transform="translate(904.818 7334.986) rotate(45)" fill="#fff"/>
      <g id="Grupo_562364" data-name="Grupo 562364" transform="translate(807.303 7329.306)">
        <path id="Trazado_194998-3" data-name="Trazado 194998" d="M18.034,97.195,97.2,18.031,176.36,97.195,97.2,176.357ZM97.2,0,0,97.195l97.2,97.2,97.2-97.2Z" fill="red"/>
      </g>
      <g id="Grupo_562365" data-name="Grupo 562365" transform="translate(874.194 7359.238)">
        <g id="Grupo_562234" data-name="Grupo 562234" clip-path="url(#clip-path-7)">
          <path id="Trazado_195038" data-name="Trazado 195038" d="M0,40.646S1.728,47.716,1.414,52.9s1.1,19.637,6.912,24.192,3.77-9.426,3.77-9.426L7.54,52.271l11.625,6.284s-2.828-1.885-1.885-8.169a94.029,94.029,0,0,1,1.885-9.74s1.649,9.975,5.891,13.9l1.807-.707-1.1-1.571s-.314-5.027,1.1-7.226a13.9,13.9,0,0,0,2.2-5.027,44.619,44.619,0,0,0,.393-5.734s3.535,2.435,4.163,4.634a26.129,26.129,0,0,1,1.414,5.812c.157,2.2,2.906,8.562,2.906,8.562l1.1-1.021s2.592-5.577,5.263-8.09c0,0,1.885,10.918,3.142,13.824s1.728,1.178,1.728,1.178l6.991-4.713s.157,10.211-1.178,14.138.55,10.918.55,10.918,9.033-11.311,8.326-21.993-3.22-14.767-3.22-14.767S57.5,48.187,53.8,48.423c0,0,5.577-10.447.864-17.516,0,0-1.178,5.97-6.048,6.048,0,0,2.749-11.7-4.006-19.872,0,0-.483,2.983-.864,6.127-.314,2.592-5.263,5.42-5.263,5.42S37.7,16.14,33.932,7.579,31.261.038,31.261.038,29.69.588,29.141,12.37s-4.163,15.474-4.163,15.474-2.906-5.341-4.084-7.619a33.5,33.5,0,0,0-3.613-5.105,6.323,6.323,0,0,1,.314,3.535c-.471,1.571-2.278,6.677-2.2,10.368a40.475,40.475,0,0,0,.864,7.148s-1.649.079-3.692-2.278S6.6,26.43,6.6,26.43,7.7,33.656,7.776,37.9A57.29,57.29,0,0,0,8.8,46.773s-4.084-2.592-5.263-3.3A35.293,35.293,0,0,1,0,40.646" transform="translate(0 0)"/>
          <path id="Trazado_195039" data-name="Trazado 195039" d="M67.964,334.372A23.839,23.839,0,1,1,91.8,310.533a23.866,23.866,0,0,1-23.839,23.839m0-41.08A17.241,17.241,0,1,0,85.2,310.533a17.26,17.26,0,0,0-17.241-17.241" transform="translate(-36.231 -235.405)"/>
          <rect id="Rectángulo_44357" data-name="Rectángulo 44357" width="49.955" height="6.716" transform="translate(6.755 98.083)"/>
        </g>
      </g>
    </g>
    <g id="Grupo_1008626" data-name="Grupo 1008626" transform="translate(0 -40)">
      <rect id="Rectángulo_44631" data-name="Rectángulo 44631" width="129.943" height="129.943" transform="translate(1007.849 7437.965) rotate(45)" fill="#fff"/>
      <path id="Trazado_195926" data-name="Trazado 195926" d="M17.97,96.846,96.849,17.967l78.879,78.879L96.849,175.725ZM96.849,0,0,96.846l96.849,96.849L193.7,96.846Z" transform="translate(911 7433.003)" fill="red"/>
      <g id="Grupo_562366" data-name="Grupo 562366" transform="translate(972 7479.821)">
        <g id="Grupo_562254" data-name="Grupo 562254" clip-path="url(#clip-path-8)">
          <path id="Trazado_195086" data-name="Trazado 195086" d="M13.612,349.679a2.087,2.087,0,0,0,2.512-1.7c.028-.159.048-.32.078-.517a1.743,1.743,0,0,0,2.879-1.85l.824-.625a1.242,1.242,0,0,0,1.657-.031c.462-.438.479-.965.088-1.671l.86-1.036.673.345a1.14,1.14,0,0,0-.023.23,1.126,1.126,0,0,0,.144.553c0,.014,0,.029-.006.043l.02-.02a1.131,1.131,0,1,0,1.784-1.365,1.779,1.779,0,0,0,.32-1.467l.272-.04a1.226,1.226,0,0,0,2.254-.14l0,0s0,0,0-.007a1.224,1.224,0,0,0-.7-1.538q.007-.1.014-.191a1.163,1.163,0,0,0,.566-.546.674.674,0,0,0,.115-.217l-.019-.056a1.158,1.158,0,0,0-.846-1.364,2.371,2.371,0,0,0-.591-1.019.812.812,0,0,1-.206-.46,2.138,2.138,0,0,0-1.415-1.845,2.179,2.179,0,0,0-1.743.145c.032-1.024-.3-1.387-1.381-1.477a2.171,2.171,0,0,0-.938-1.981,2.144,2.144,0,0,0-2.1-.177l-1.223-.94c.19-.992-.351-1.566-1.43-1.458a.531.531,0,0,1-.033-.107,2.124,2.124,0,0,0-2.477-1.909.271.271,0,0,1-.231-.074,1.162,1.162,0,0,0-1.659-.359c-.347-.775-.923-1.08-1.561-.834-2.135.825-4.273,1.644-6.4,2.491a5.857,5.857,0,0,0-3.683,5.455c0,2.163,0,4.326-.006,6.488a.836.836,0,0,0,.265.65q5.453,5.519,10.886,11.058a.9.9,0,0,0,1.012.284,3.067,3.067,0,0,0,.952-.567.492.492,0,0,1,.5-.155" transform="translate(-0.001 -274.183)"/>
          <path id="Trazado_195087" data-name="Trazado 195087" d="M90.671,50.154a2.117,2.117,0,0,0,2.042,1.526.4.4,0,0,1,.422.284,2.061,2.061,0,0,0,2.142,1.243c.191-.017.379-.059.564-.089.4.961.681,1.144,1.758,1.153a2.084,2.084,0,0,0,1.754,1.661,2.124,2.124,0,0,0,2.217-1.078,2.164,2.164,0,0,0,2.013.291c.435.378.783.724,1.178,1a1.357,1.357,0,0,1,.233.181.886.886,0,0,0-.012.138.873.873,0,1,0,1.716-.224,2.341,2.341,0,0,0,1.156-3.27,1.009,1.009,0,0,0,.213-1.821,2.245,2.245,0,0,0,.386-1.319c0-.1.123-.237.225-.3a2.113,2.113,0,0,0,1.041-1.354,2.154,2.154,0,0,0-.448-1.908l.019,0a.579.579,0,0,1-.074-.172.791.791,0,0,0-.481-1.505l-.5-.367a2.979,2.979,0,0,0,.219-2.389,2.16,2.16,0,0,0,.866-3.348,1.518,1.518,0,0,0,.345-2.656l.311-1.189.7-.222a1.465,1.465,0,0,0,.461,1.265.417.417,0,0,1,.138.467,2.028,2.028,0,0,0,.919,2.2.422.422,0,0,1,.218.5,2.688,2.688,0,0,0,.72,2.337c.083.093.17.182.259.277a1.689,1.689,0,0,0,.012,3.013,1.4,1.4,0,0,0,.458,1.769.42.42,0,0,1,.068.356,3.149,3.149,0,0,0,.071,1.77.38.38,0,0,1,.014.065,1.022,1.022,0,0,0-.821,1.766c-.007.013-.013.028-.021.041a.808.808,0,0,0,.16.134c.154.513.3.968.42,1.427a.61.61,0,0,1-.02.358,3.115,3.115,0,0,0,.343,3.046.63.63,0,0,1,.071.475,1.465,1.465,0,0,0,.844,1.864,1.441,1.441,0,0,0,1.856-.847c.042-.1.11-.223.2-.253.314-.11.641-.185.959-.273.519.653,1.225.779,1.715.278.564-.576.44-1.293-.3-1.821l.23-.676a1.286,1.286,0,0,1,1.128.5,1.13,1.13,0,0,0,.851.36,4.4,4.4,0,0,0,1.123-.333,1.2,1.2,0,0,0,2.073.2,1.448,1.448,0,0,0,1.675-.155,1.488,1.488,0,0,0,.387-1.822,1.271,1.271,0,0,0,1.5-1.165c.065.058.1.08.121.109a1.479,1.479,0,0,0,2.6-.72.552.552,0,0,1,.07-.215c.246-.337.5-.667.791-1.05a.749.749,0,0,0,.1,0,.8.8,0,0,0,.761-.708c.049-.445-.324-.408-.569-.487q-6.273-2.028-12.553-4.034a.541.541,0,0,1-.453-.624c.01-1.5-.019-3-.017-4.494a.79.79,0,0,1,.166-.485,21.841,21.841,0,0,0,3.892-6.456,51.707,51.707,0,0,0,3.185-11.962,15.2,15.2,0,0,0-.006-5.134,19.957,19.957,0,0,0-7.156-11.812,13.83,13.83,0,0,0-16.086-1.618c-5.917,3.2-8.795,8.419-9.159,15.046a31.232,31.232,0,0,0,1.44,10.437A29.857,29.857,0,0,0,100.862,38.1a.644.644,0,0,1,.094.427c-.156,1.7-.332,3.4-.481,5.094a.514.514,0,0,1-.4.522q-4.866,1.744-9.722,3.513c-.752.273-1.5.55-2.245.822a2.142,2.142,0,0,0,2.56,1.679" transform="translate(-74.588 0)"/>
          <path id="Trazado_195088" data-name="Trazado 195088" d="M256.384,463.684a4.635,4.635,0,0,0-.566.075,1.791,1.791,0,0,0-2.545-.96,2.186,2.186,0,0,0-.883-1.788,2.264,2.264,0,0,0-2-.3c-.241-.738-.586-1.077-1.142-1.091-.809-.02-1.166.485-1.313,1.247a1.815,1.815,0,0,0-1.676-.711c-.186-1.4-.934-2.022-2.447-2.086a.471.471,0,0,1-.053-.1,1.151,1.151,0,0,0-.995-.922,1.177,1.177,0,0,0-1.223.6.444.444,0,0,1-.269.161,5.889,5.889,0,0,1-.594.062A1.543,1.543,0,1,0,237.809,459a1.209,1.209,0,0,0-1.65.546c-.312.631-.056,1.2.776,1.713a2.157,2.157,0,0,0,.506,2.537.345.345,0,0,1,.02.3,2.548,2.548,0,0,0,.343,2.584.429.429,0,0,1,.106.268c-.066.427-.157.85-.241,1.288l-.433-.163c.265-.823.142-1.343-.384-1.683a1.2,1.2,0,0,0-1.479.133c-.463.429-.5.955-.1,1.678a1.2,1.2,0,0,0-.817,1.283,1.257,1.257,0,0,0,1.258,1.1,9.975,9.975,0,0,1,.123,7.667,2.148,2.148,0,0,0-.745,2.473.27.27,0,0,1-.017.183,1.8,1.8,0,0,0,.112,1.781.785.785,0,0,0-.028,1.16,8.842,8.842,0,0,1-.379.97.742.742,0,0,0,.326,1.12c.091-.083.188-.169.283-.256l9.392-8.669q6.261-5.779,12.513-11.568a.982.982,0,0,0,.261-.645,1.139,1.139,0,0,0-1.167-1.117" transform="translate(-198.462 -386.724)"/>
          <path id="Trazado_195089" data-name="Trazado 195089" d="M315.7,333.969a4.491,4.491,0,0,0-.313-1.631,8.369,8.369,0,0,0-4.936-4.67c-1.708-.661-3.475-1.168-5.216-1.741a.918.918,0,0,0-1.094.355,4.46,4.46,0,0,0-.246.424c-1.015-.212-1.531.153-1.692,1.209a2.128,2.128,0,0,0-2.195-.12,2.175,2.175,0,0,0-1.157,1.865,2.78,2.78,0,0,0-2.533.669,2.815,2.815,0,0,0-.884,2.448,1.466,1.466,0,0,0-1.485.319.418.418,0,0,1-.31.081,2.573,2.573,0,0,0-3.175,2.366,1.372,1.372,0,0,0-1.3.494,1.5,1.5,0,0,1-2.036,1.861,1.428,1.428,0,0,0-.014,1.754,1.008,1.008,0,1,0,1.332,1.485l.694.089.139.984a1.216,1.216,0,0,0-.37.437l-.009.007,0,0A1.214,1.214,0,0,0,291,343.883l1,.15c.019.336.037.668.056,1a.873.873,0,1,0,.843,1.527c0,.023,0,.045,0,.068,0,.771.859,1.4,1.919,1.4a2.351,2.351,0,0,0,1.283-.36,1.784,1.784,0,0,0,1.07,1.269,1.837,1.837,0,0,0,1.771-.281,2.1,2.1,0,0,0,.986,1.887,2.17,2.17,0,0,0,2.144.094c-.032.1-.047.146-.063.193a1.315,1.315,0,0,0,2.213,1.367c.1-.1.2-.2.307-.3q5.46-5.031,10.924-10.058a.739.739,0,0,0,.284-.6c-.011-2.423.012-4.846-.021-7.268" transform="translate(-242.67 -275.857)"/>
          <path id="Trazado_195090" data-name="Trazado 195090" d="M109.612,474.079a2.143,2.143,0,0,0-1.175-1.8c.073-.1.136-.189.19-.277a1.638,1.638,0,0,0,0-2.408,1.139,1.139,0,0,0-.174-.637,1.246,1.246,0,0,0-1.19-.582v-1.425a1.409,1.409,0,0,0,.279-2.683,2.126,2.126,0,0,0,.664-1.707,2.269,2.269,0,0,0-.9-1.611,2.17,2.17,0,0,0,.129-2.6c.561-.457.679-.952.34-1.377s-.843-.414-1.382,0a2.111,2.111,0,0,0-2.152-.67.463.463,0,0,1-.56-.152,1.155,1.155,0,0,0-1.619-.084,1.174,1.174,0,0,0-.2,1.585c.055.08.116.156.2.271a2.191,2.191,0,0,0-2.533.807,1.543,1.543,0,0,0-2.774.354,2.63,2.63,0,0,0-.211.415c-1.519-.627-2.485,0-2.7,1.731-1.847-.942-2.875-.7-4.02.963-.08-.035-.162-.072-.245-.106a1.715,1.715,0,0,0-2.4,1.31.964.964,0,0,0,.278.918q10.1,10.235,20.18,20.487a3.43,3.43,0,0,1,.29.382c.647-.387.679-.771.2-1.4.564-.48.569-.8.1-1.339a4.6,4.6,0,0,0,.286-.911c.043-.468-.314-.724-.691-.95a3.354,3.354,0,0,0,.816-4.592,2.135,2.135,0,0,0,.968-1.918" transform="translate(-73.79 -385.83)"/>
        </g>
      </g>
    </g>
    <g id="Grupo_1008624" data-name="Grupo 1008624" transform="translate(0 -40)">
      <rect id="Rectángulo_44630" data-name="Rectángulo 44630" width="129.943" height="129.943" transform="translate(1112.818 7334.986) rotate(45)" fill="#fff"/>
      <g id="Grupo_562360" data-name="Grupo 562360" transform="translate(1015.303 7329.306)">
        <path id="Trazado_194998-4" data-name="Trazado 194998" d="M18.034,97.195,97.2,18.031,176.36,97.195,97.2,176.357ZM97.2,0,0,97.195l97.2,97.2,97.2-97.2Z" fill="red"/>
      </g>
      <g id="Grupo_562367" data-name="Grupo 562367" transform="translate(1066.86 7407.446)">
        <g id="Grupo_562236" data-name="Grupo 562236" clip-path="url(#clip-path-10)">
          <path id="Trazado_195041" data-name="Trazado 195041" d="M0,23.4a16.85,16.85,0,0,0,2.713,8.57c2.194,3.169,4.134,3.857,7.833,2.864C29.879,29.642,49.2,24.408,68.564,19.328c3.1-.813,4.7-2.508,5.189-5.527a3.792,3.792,0,0,1,3.108-3.263q6.125-1.6,12.21-3.351A3.429,3.429,0,0,0,90.773,6a3.768,3.768,0,0,0-.3-4.2C89.569.61,88.623.333,86.93.784c-3.3.88-6.648,1.624-9.89,2.687-2.89.948-5.236.9-7.28-1.754A4.423,4.423,0,0,0,64.862.2Q34.644,8.328,4.411,16.408A4.842,4.842,0,0,0,.793,19.77,37.022,37.022,0,0,0,0,23.4" transform="translate(0 0)"/>
        </g>
      </g>
    </g>
    <g id="Grupo_1008625" data-name="Grupo 1008625" transform="translate(0 -40)">
      <rect id="Rectángulo_44636" data-name="Rectángulo 44636" width="129.943" height="129.943" transform="translate(1217.849 7437.965) rotate(45)" fill="#fff"/>
      <path id="Trazado_195929" data-name="Trazado 195929" d="M17.97,96.846,96.849,17.967l78.879,78.879L96.849,175.725ZM96.849,0,0,96.846l96.849,96.849L193.7,96.846Z" transform="translate(1121 7433.003)" fill="red"/>
      <g id="Grupo_562368" data-name="Grupo 562368" transform="translate(1187.849 7487.546)">
        <g id="Grupo_562256" data-name="Grupo 562256" clip-path="url(#clip-path-11)">
          <path id="Trazado_195092" data-name="Trazado 195092" d="M165.544,215.973a60.664,60.664,0,0,0-8.6,10.677,21.849,21.849,0,0,1-2.166,2.831l1.278.593a24.8,24.8,0,0,0,1.994-2.67c2.952-4.339,5.733-8.223,9.51-11.431Zm20.221-3.69c-1.825.531-3.331,1.1-4.785,1.642-.935.35-1.836.689-2.809,1.017.266-.4.527-.781.781-1.156.549-.8,1.113-1.626,1.7-2.595l.614-1.017h-1.187c-.214,0-.388,0-.535,0-.277,0-.475,0-.678.007-.232.011-.46.038-.676.06l-.21.025c-4.431.46-7.308,1.539-10.262,3.851-.219.172-.433.344-.645.52-.529.433-1.037.881-1.528,1.338a60.664,60.664,0,0,0-8.6,10.677,21.849,21.849,0,0,1-2.166,2.831,10,10,0,0,1-1.158,1.042,11.762,11.762,0,0,1-2.11,1.267,35.867,35.867,0,0,1-8.31,2.719l-2.066.451,1.95.819c.451.19.917.386,1.4.582,1.428.589,2.969,1.209,4.473,1.814,2.082.839,4.234,1.7,6.144,2.508l.5.21.31-.442c.248-.357.509-.709.761-1.051a22.153,22.153,0,0,0,1.6-2.371A7.223,7.223,0,0,1,163,233.591l.368-.107a49.754,49.754,0,0,0,11.085-4.219q.709-.408,1.383-.825a22.456,22.456,0,0,0,9.182-9.986,14.477,14.477,0,0,0,.919-2.965,21.074,21.074,0,0,1,.643-2.336l.446-1.238Zm-1.129,2.9a13.617,13.617,0,0,1-.821,2.69c-2.061,4.25-4.593,6.956-9.164,9.722q-.422.254-.866.511A48.622,48.622,0,0,1,163,232.2l-.37.109a8.466,8.466,0,0,0-5.535,4.074,20.723,20.723,0,0,1-1.5,2.226c-.154.208-.31.419-.466.636-1.791-.747-3.759-1.539-5.669-2.307-1.113-.449-2.2-.886-3.23-1.307-.241-.1-.479-.194-.714-.29A34.143,34.143,0,0,0,152.085,233a11.991,11.991,0,0,0,3.9-2.842c.027-.027.051-.053.076-.083a24.8,24.8,0,0,0,1.994-2.67c2.952-4.339,5.733-8.223,9.51-11.431a.3.3,0,0,1,.042-.036c.305-.261.62-.518.939-.767a16.946,16.946,0,0,1,9.575-3.576l.219-.022c.183-.02.357-.04.529-.051-.337.52-.671,1.006-1.017,1.51-.571.834-1.16,1.7-1.8,2.753l-.888,1.468,1.646-.48c1.747-.509,3.219-1.059,4.643-1.593,1.1-.413,2.224-.836,3.491-1.243-.112.417-.21.835-.306,1.245" transform="translate(-116.07 -172.848)"/>
          <path id="Trazado_195093" data-name="Trazado 195093" d="M350.792,258.062a1.413,1.413,0,1,1-1.413-1.413,1.413,1.413,0,0,1,1.413,1.413" transform="translate(-286.171 -211.071)"/>
          <path id="Trazado_195094" data-name="Trazado 195094" d="M71.946,321.525v4.908H0v-1.227s10.6-3.012,14.055-2.119l14.358-6.048,1.742-.734c1.035.422,2.117.859,3.23,1.307,1.91.767,3.877,1.559,5.669,2.307.156-.216.312-.428.466-.636a20.69,20.69,0,0,0,1.5-2.226,8.465,8.465,0,0,1,5.535-4.074l.37-.109a48.622,48.622,0,0,0,10.788-4.092q.445-.258.866-.511l1.187.846,6.936,4.935-6.581,3.458,9.481.669-3.012,3.346Z" transform="translate(0 -253.525)"/>
          <rect id="Rectángulo_44375" data-name="Rectángulo 44375" width="51.533" height="1.338" transform="translate(0 41.786)"/>
          <path id="Trazado_195095" data-name="Trazado 195095" d="M43.421,56.634,33.1,51.844V38.689l6.389-7.38a2.838,2.838,0,0,1,.895-.747l2.275-.3.063-.011a2.8,2.8,0,0,0,1.729-1.209l6.9-10.617L49.42,16.98l-.4.533c-.038.051-3.9,5.165-6.623,6.862-1.448.9-3.676.857-4.877.832l-.087,0a2.9,2.9,0,0,0-1.912.671l-1.294,1.08,1.142-2.82a6.776,6.776,0,0,0,.129-2.275l-.174-1.974-.011-.069a6.9,6.9,0,0,1,1.327-3.52L42.982,7.41l-.2-4.529L34.368,13,32.947,3.974H29.886L30.8,21.622l-3.627,5.133L23.4,13.268a1.443,1.443,0,0,1-.051-.44l.6-10.035-3.259.723L19.662,7.028,15.323,0,12.9,2.419l.27.448c1.231,2.048,4.5,7.819,4.819,9.907a38.635,38.635,0,0,1,.417,3.853l-10.128-5.9v3.944l10.211,7.942a14.341,14.341,0,0,1,1.7,4.167l-7.4-3.5-6.443,4.4a1.414,1.414,0,0,0-.44,1.867l.482.868,3.5-1.011a1.251,1.251,0,0,1,.79.121L21.222,35.16V54.347L12.57,59.539l1.24,1.8,9.439-.9,4.239,3.329,3.145-4.294,11.63-1.8,2.36-.366.19-.029-.114-.053Zm-13.541,1.6-2.655,3.625-3.569-2.8-9.135.874L22.56,55.1V34.359L11.31,28.346a2.572,2.572,0,0,0-1.7-.245l-2.53.727a.076.076,0,0,1,.031-.04l5.807-3.969L21.967,29.1l-.2-1.249a15.523,15.523,0,0,0-2.231-6.079l-.058-.082L9.621,14.02v-.961l10.095,5.878.056-1.1a29.8,29.8,0,0,0-.453-5.265c-.37-2.414-3.737-8.261-4.73-9.943l.484-.484L20.1,10.288l1.649-5.635.756-.167-.5,8.281a2.938,2.938,0,0,0,.1.854l4.533,16.205,5.519-7.808L31.3,5.313H31.8l1.7,10.822L41.6,6.4l.027.6-6.075,8.511a7.785,7.785,0,0,0-1.559,4.515l.176,1.974.009.072a6.562,6.562,0,0,1-.053,1.568l-3.15,7.761,5.4-4.5a1.581,1.581,0,0,1,1.029-.361l.087,0c1.339.027,3.826.078,5.613-1.035a28.454,28.454,0,0,0,5.539-5.379L43.33,28.313a1.464,1.464,0,0,1-.879.627l-2.278.3-.063.011a3.406,3.406,0,0,0-1.6,1.149l-6.746,7.79V52.7l8.477,3.935Z" transform="translate(-4.713 -0.001)"/>
        </g>
      </g>
    </g>
    <g id="Grupo_1002173" data-name="Grupo 1002173" transform="translate(370 7564.211)">
      <g id="Grupo_1001183" data-name="Grupo 1001183" transform="translate(0 0.868)">
        <g id="Grupo_108556" data-name="Grupo 108556" transform="translate(0 0)">
          <circle id="Elipse_5027" data-name="Elipse 5027" cx="13.155" cy="13.155" r="13.155" fill="#12263f" opacity="0.222"/>
          <circle id="Elipse_5026" data-name="Elipse 5026" cx="8.77" cy="8.77" r="8.77" transform="translate(4.385 4.385)" fill="#12263f"/>
        </g>
      </g>
      <text id="_" data-name="+" transform="translate(12.762 20)" fill="#fff" font-size="19" font-family="Roboto-Medium, Roboto" font-weight="500"><tspan x="-5.293" y="0">+</tspan></text>
    </g>
    <g id="Grupo_1008631" data-name="Grupo 1008631" transform="translate(580 7564.211)">
      <g id="Grupo_1001183-2" data-name="Grupo 1001183" transform="translate(0 0.868)">
        <g id="Grupo_108556-2" data-name="Grupo 108556" transform="translate(0 0)">
          <circle id="Elipse_5027-2" data-name="Elipse 5027" cx="13.155" cy="13.155" r="13.155" fill="#12263f" opacity="0.222"/>
          <circle id="Elipse_5026-2" data-name="Elipse 5026" cx="8.77" cy="8.77" r="8.77" transform="translate(4.385 4.385)" fill="#12263f"/>
        </g>
      </g>
      <text id="_2" data-name="+" transform="translate(12.762 20)" fill="#fff" font-size="19" font-family="Roboto-Medium, Roboto" font-weight="500"><tspan x="-5.293" y="0">+</tspan></text>
    </g>
    <g id="Grupo_1008633" data-name="Grupo 1008633" transform="translate(787.689 7564.211)">
      <g id="Grupo_1001183-3" data-name="Grupo 1001183" transform="translate(0 0.868)">
        <g id="Grupo_108556-3" data-name="Grupo 108556" transform="translate(0 0)">
          <circle id="Elipse_5027-3" data-name="Elipse 5027" cx="13.155" cy="13.155" r="13.155" fill="#12263f" opacity="0.222"/>
          <circle id="Elipse_5026-3" data-name="Elipse 5026" cx="8.77" cy="8.77" r="8.77" transform="translate(4.385 4.385)" fill="#12263f"/>
        </g>
      </g>
      <text id="_3" data-name="+" transform="translate(12.762 20)" fill="#fff" font-size="19" font-family="Roboto-Medium, Roboto" font-weight="500"><tspan x="-5.293" y="0">+</tspan></text>
    </g>
    <g id="Grupo_1008635" data-name="Grupo 1008635" transform="translate(993.689 7564.211)">
      <g id="Grupo_1001183-4" data-name="Grupo 1001183" transform="translate(0 0.868)">
        <g id="Grupo_108556-4" data-name="Grupo 108556" transform="translate(0 0)">
          <circle id="Elipse_5027-4" data-name="Elipse 5027" cx="13.155" cy="13.155" r="13.155" fill="#12263f" opacity="0.222"/>
          <circle id="Elipse_5026-4" data-name="Elipse 5026" cx="8.77" cy="8.77" r="8.77" transform="translate(4.385 4.385)" fill="#12263f"/>
        </g>
      </g>
      <text id="_4" data-name="+" transform="translate(12.762 20)" fill="#fff" font-size="19" font-family="Roboto-Medium, Roboto" font-weight="500"><tspan x="-5.293" y="0">+</tspan></text>
    </g>
    <g id="Grupo_1008637" data-name="Grupo 1008637" transform="translate(1203.689 7564.211)">
      <g id="Grupo_1001183-5" data-name="Grupo 1001183" transform="translate(0 0.868)">
        <g id="Grupo_108556-5" data-name="Grupo 108556" transform="translate(0 0)">
          <circle id="Elipse_5027-5" data-name="Elipse 5027" cx="13.155" cy="13.155" r="13.155" fill="#12263f" opacity="0.222"/>
          <circle id="Elipse_5026-5" data-name="Elipse 5026" cx="8.77" cy="8.77" r="8.77" transform="translate(4.385 4.385)" fill="#12263f"/>
        </g>
      </g>
      <text id="_5" data-name="+" transform="translate(12.762 20)" fill="#fff" font-size="19" font-family="Roboto-Medium, Roboto" font-weight="500"><tspan x="-5.293" y="0">+</tspan></text>
    </g>
    <g id="Grupo_1008630" data-name="Grupo 1008630" transform="translate(475 7460.669)">
      <g id="Grupo_1001183-6" data-name="Grupo 1001183" transform="translate(0 0.868)">
        <g id="Grupo_108556-6" data-name="Grupo 108556" transform="translate(0 0)">
          <circle id="Elipse_5027-6" data-name="Elipse 5027" cx="13.155" cy="13.155" r="13.155" fill="#12263f" opacity="0.222"/>
          <circle id="Elipse_5026-6" data-name="Elipse 5026" cx="8.77" cy="8.77" r="8.77" transform="translate(4.385 4.385)" fill="#12263f"/>
        </g>
      </g>
      <text id="_6" data-name="+" transform="translate(12.762 20)" fill="#fff" font-size="19" font-family="Roboto-Medium, Roboto" font-weight="500"><tspan x="-5.293" y="0">+</tspan></text>
    </g>
    <g id="Grupo_1008632" data-name="Grupo 1008632" transform="translate(685 7460.669)">
      <g id="Grupo_1001183-7" data-name="Grupo 1001183" transform="translate(0 0.868)">
        <g id="Grupo_108556-7" data-name="Grupo 108556" transform="translate(0 0)">
          <circle id="Elipse_5027-7" data-name="Elipse 5027" cx="13.155" cy="13.155" r="13.155" fill="#12263f" opacity="0.222"/>
          <circle id="Elipse_5026-7" data-name="Elipse 5026" cx="8.77" cy="8.77" r="8.77" transform="translate(4.385 4.385)" fill="#12263f"/>
        </g>
      </g>
      <text id="_7" data-name="+" transform="translate(12.762 20)" fill="#fff" font-size="19" font-family="Roboto-Medium, Roboto" font-weight="500"><tspan x="-5.293" y="0">+</tspan></text>
    </g>
    <g id="Grupo_1008634" data-name="Grupo 1008634" transform="translate(892.689 7460.669)">
      <g id="Grupo_1001183-8" data-name="Grupo 1001183" transform="translate(0 0.868)">
        <g id="Grupo_108556-8" data-name="Grupo 108556" transform="translate(0 0)">
          <circle id="Elipse_5027-8" data-name="Elipse 5027" cx="13.155" cy="13.155" r="13.155" fill="#12263f" opacity="0.222"/>
          <circle id="Elipse_5026-8" data-name="Elipse 5026" cx="8.77" cy="8.77" r="8.77" transform="translate(4.385 4.385)" fill="#12263f"/>
        </g>
      </g>
      <text id="_8" data-name="+" transform="translate(12.762 20)" fill="#fff" font-size="19" font-family="Roboto-Medium, Roboto" font-weight="500"><tspan x="-5.293" y="0">+</tspan></text>
    </g>
    <g id="Grupo_1008636" data-name="Grupo 1008636" transform="translate(1098.689 7460.669)">
      <g id="Grupo_1001183-9" data-name="Grupo 1001183" transform="translate(0 0.868)">
        <g id="Grupo_108556-9" data-name="Grupo 108556" transform="translate(0 0)">
          <circle id="Elipse_5027-9" data-name="Elipse 5027" cx="13.155" cy="13.155" r="13.155" fill="#12263f" opacity="0.222"/>
          <circle id="Elipse_5026-9" data-name="Elipse 5026" cx="8.77" cy="8.77" r="8.77" transform="translate(4.385 4.385)" fill="#12263f"/>
        </g>
      </g>
      <text id="_9" data-name="+" transform="translate(12.762 20)" fill="#fff" font-size="19" font-family="Roboto-Medium, Roboto" font-weight="500"><tspan x="-5.293" y="0">+</tspan></text>
    </g>
  </g>
</svg>
