<svg xmlns="http://www.w3.org/2000/svg" xmlns:xlink="http://www.w3.org/1999/xlink" width="151.659" height="151.655" viewBox="0 0 151.659 151.655">
  <defs>
    <clipPath id="clip-path">
      <rect id="Rect치ngulo_44530" data-name="Rect치ngulo 44530" width="151.659" height="151.655" fill="none"/>
    </clipPath>
  </defs>
  <g id="Grupo_1008691" data-name="Grupo 1008691" transform="translate(0)">
    <g id="Grupo_562284" data-name="Grupo 562284" transform="translate(0)" clip-path="url(#clip-path)">
      <path id="Trazado_195734" data-name="Trazado 195734" d="M319.419,232.707l2.19,1.305,6.22,1.085,3.573-1.72,2.382-2.3,1.905-3.31-3.113,1.508-2.736-.157c3.574-3.094,3.573-5.152,3.573-7.729L331.8,223l-3.935,2.178a38.794,38.794,0,0,0,.6-5.408c0-2.116-.926-4.367-3.236-6.851.659,1.617-2.031,5.4-2.031,7.672a21.857,21.857,0,0,0,.515,4.567c-2.915-1.2-3.973-2.037-5.331-4.133l-.02,2.576,1.422,2.972,2.038,2.726-4.579-.635-1.576-1.409,1.318,3.014Z" transform="translate(-248.825 -167.836)" fill="#ef4136"/>
      <path id="Trazado_195735" data-name="Trazado 195735" d="M118.671,182.987l64.322-64.32L118.671,54.348,54.35,118.667l64.321,64.32m2.787-9.214a4.939,4.939,0,0,1-3.646,1.234q-2.975,0-4.134-1.77a4.881,4.881,0,0,1-.676-2.465h2.7a2.653,2.653,0,0,0,.271,1.27,1.9,1.9,0,0,0,1.832.926,2.134,2.134,0,0,0,1.42-.511,1.816,1.816,0,0,0,.606-1.47,1.651,1.651,0,0,0-1.118-1.7,6.138,6.138,0,0,0-2-.24v-1.8a5.615,5.615,0,0,0,1.865-.238,1.457,1.457,0,0,0,.913-1.5,1.6,1.6,0,0,0-.467-1.191,1.8,1.8,0,0,0-1.315-.459,1.738,1.738,0,0,0-1.431.562,2.229,2.229,0,0,0-.438,1.5h-2.567a5.772,5.772,0,0,1,.357-1.8,4.071,4.071,0,0,1,1.062-1.379,3.8,3.8,0,0,1,1.284-.685,6.073,6.073,0,0,1,1.825-.237,5.173,5.173,0,0,1,3.239.947,3.041,3.041,0,0,1,1.231,2.54,2.665,2.665,0,0,1-.732,1.9,2.5,2.5,0,0,1-.962.66,2.019,2.019,0,0,1,1.073.593,3.048,3.048,0,0,1,1.044,2.443,3.934,3.934,0,0,1-1.232,2.863m13.277-56.765H104.043v-4.281h30.692ZM102.01,92.787l2.578,2.372,2.191.235-1.44-1.877-.764-2.327-.543-3.5.509-2.819-.442-4.195,2.429,2.174,1.613,2.531,1.4.934-.606-1.643V82.345l.391-2.993.469-2.778-.53-2.826,2.428,1.241,1,.959.939,2.289.352,1.956,1.037,2.093,1.115-2.562.724-5.673-.059-4.382.43-2.328,1.428-3.775,1.27,5.713,4.266,9.311.489,2.7-.333,2.289,1.741-.919,1.037-3.345.352-5.5,2.471,4.879.365,3.865v3.658l-.939,2.328,1.467-.939,1.369-1.8,1.8-3.071,1.174,3.247.509,3.522-1.78,5.178L132.7,96.254l1.819-.2,1.878-1.272,1.017-7.59.117,4.656-.554,7.472-1.343,4.265-2.328,3.189-2.425,1.649-2.9,1.52-6.241.529-4.6-.216-4.988-.371-4.382-1.311-3.695-2.393-1.8-2.9-1.053-4.4L99.345,91.3l-.273-1.762Z" transform="translate(-42.842 -42.84)" fill="#ef4136"/>
      <path id="Trazado_195736" data-name="Trazado 195736" d="M0,75.828l75.829,75.828,75.83-75.828L75.829,0,0,75.828m143.145,0L75.829,143.142,8.514,75.828,75.829,8.514Z" transform="translate(0 -0.001)" fill="#ef4136"/>
      <path id="Trazado_195737" data-name="Trazado 195737" d="M267.715,133.2l1.053,4.4,1.8,2.9,3.695,2.392,4.382,1.311,4.988.371,4.6.216,6.241-.529,2.9-1.52,2.425-1.649,2.328-3.189,1.343-4.265.554-7.472-.117-4.656-1.017,7.59L301,130.373l-1.819.2L300.4,129l1.78-5.178-.509-3.521-1.174-3.247-1.8,3.071-1.369,1.8-1.467.939.939-2.328v-3.658l-.366-3.865-2.471-4.879-.352,5.5-1.037,3.345-1.741.919.333-2.289-.489-2.7-4.266-9.311-1.27-5.713-1.428,3.775-.43,2.328.059,4.382-.724,5.673L281.5,116.6l-1.037-2.093-.352-1.956-.939-2.289-1-.959-2.428-1.241.53,2.826-.47,2.778-.391,2.993v2.328l.606,1.643-1.4-.934-1.613-2.531-2.429-2.174.442,4.195-.509,2.819.544,3.5.764,2.327,1.44,1.877-2.191-.235L268.5,127.1l-2.938-3.244.273,1.762Zm10.03,4.786,4.579.635-2.038-2.726-1.422-2.972.02-2.576c1.358,2.1,2.416,2.935,5.331,4.133a21.845,21.845,0,0,1-.515-4.567c0-2.276,2.691-6.055,2.032-7.672,2.309,2.484,3.235,4.735,3.235,6.851a38.8,38.8,0,0,1-.6,5.407l3.935-2.178,1.615-1.615c0,2.576,0,4.634-3.573,7.729l2.736.157,3.113-1.508-1.905,3.31-2.382,2.3-3.573,1.72-6.22-1.085-2.19-1.305-2.436-2.436-1.318-3.014Z" transform="translate(-209.328 -77.154)" fill="#fff"/>
      <rect id="Rect치ngulo_44529" data-name="Rect치ngulo 44529" width="30.692" height="4.281" transform="translate(61.202 69.886)" fill="#fff"/>
      <path id="Trazado_195738" data-name="Trazado 195738" d="M107.523,174.835l67.316-67.314L107.523,40.207,40.208,107.52Zm0-131.633,64.322,64.319-64.322,64.32L43.2,107.52,107.523,43.2" transform="translate(-31.694 -31.693)" fill="#fff"/>
      <path id="Trazado_195739" data-name="Trazado 195739" d="M339.989,568.575a2.019,2.019,0,0,0-1.073-.593,2.5,2.5,0,0,0,.962-.66,2.665,2.665,0,0,0,.732-1.9,3.041,3.041,0,0,0-1.231-2.54,5.173,5.173,0,0,0-3.239-.946,6.074,6.074,0,0,0-1.825.237,3.8,3.8,0,0,0-1.284.685,4.07,4.07,0,0,0-1.062,1.379,5.77,5.77,0,0,0-.357,1.8h2.567a2.229,2.229,0,0,1,.438-1.5,1.738,1.738,0,0,1,1.431-.562,1.8,1.8,0,0,1,1.315.459,1.6,1.6,0,0,1,.467,1.191,1.457,1.457,0,0,1-.913,1.5,5.618,5.618,0,0,1-1.865.238v1.8a6.132,6.132,0,0,1,2,.24,1.651,1.651,0,0,1,1.118,1.7,1.816,1.816,0,0,1-.606,1.47,2.134,2.134,0,0,1-1.42.511,1.9,1.9,0,0,1-1.832-.926,2.653,2.653,0,0,1-.271-1.271h-2.7a4.881,4.881,0,0,0,.676,2.465q1.159,1.77,4.134,1.77a4.939,4.939,0,0,0,3.646-1.234,3.935,3.935,0,0,0,1.231-2.863,3.048,3.048,0,0,0-1.044-2.442" transform="translate(-261.185 -442.948)" fill="#fff"/>
    </g>
  </g>
</svg>
