<svg id="Grupo_1008694" data-name="Grupo 1008694" xmlns="http://www.w3.org/2000/svg" width="144.743" height="144.585" viewBox="0 0 144.743 144.585">
  <path id="Trazado_195740" data-name="Trazado 195740" d="M124.969,443.338l3.238,3.237-.3.3,3.829,3.829.3-.3,3.516,3.516v-7.273l-10.583-10.583Z" transform="translate(-99.73 -347.997)" fill="#ef4136"/>
  <path id="Trazado_195741" data-name="Trazado 195741" d="M226.5,544.866l3.447,3.447-.3.3,3.829,3.829.3-.3,3.771,3.771v-7.273L226.5,537.593Z" transform="translate(-180.752 -429.02)" fill="#ef4136"/>
  <path id="Trazado_195742" data-name="Trazado 195742" d="M18.551,300.006v-6.242l-.874.874-.812-.812-3.829,3.829.812.812L7.32,305l-.812-.812-1.881,1.881,0,0,.3-.3,6.528,6.528-.3.3,3.829,3.829.3-.3,3.267,3.267v-7.273l-6.058-6.059Z" transform="translate(-3.693 -234.435)" fill="#ef4136"/>
  <path id="Trazado_195743" data-name="Trazado 195743" d="M551.74,197.56l-4.212-4.212.516-.516L544.215,189l-.516.516-3.3-3.3v6.833l11.338,11.338Z" transform="translate(-431.262 -148.613)" fill="#ef4136"/>
  <path id="Trazado_195744" data-name="Trazado 195744" d="M337.277,0,336.2,1.078l.812.812L331.706,7.2v6.242l5.571-5.571,5.476,5.476V6.508l-3.2-3.2.516-.516Z" transform="translate(-264.714 0)" fill="#ef4136"/>
  <path id="Trazado_195745" data-name="Trazado 195745" d="M331.706,642.8v7.273l2.913,2.913-.3.3,2.955,2.955,5.476-5.476V642.9l-5.475,5.475Z" transform="translate(-264.714 -512.982)" fill="#ef4136"/>
  <path id="Trazado_195746" data-name="Trazado 195746" d="M56.965,341.416l3.354,3.354v-6.707Z" transform="translate(-45.46 -269.787)" fill="#ef4136"/>
  <path id="Trazado_195747" data-name="Trazado 195747" d="M135.552,189.963l-1.124,1.124-.812-.812-3.83,3.829.812.812-5.63,5.63v6.242L135.552,196.2Z" transform="translate(-99.73 -151.597)" fill="#ef4136"/>
  <path id="Trazado_195748" data-name="Trazado 195748" d="M540.4,452.348l11.338-11.338v-7.865L540.4,444.483Z" transform="translate(-431.262 -345.666)" fill="#ef4136"/>
  <path id="Trazado_195749" data-name="Trazado 195749" d="M446.408,92.229l-3.3-3.3.516-.516-3.829-3.83-.516.517-3.765-3.765v6.833l10.89,10.89Z" transform="translate(-347.56 -64.911)" fill="#ef4136"/>
  <path id="Trazado_195750" data-name="Trazado 195750" d="M237.543,86.138l-1.378,1.378-.812-.812-3.829,3.829.812.812-5.84,5.839v6.242L237.543,92.38Z" transform="translate(-180.753 -68.742)" fill="#ef4136"/>
  <path id="Trazado_195751" data-name="Trazado 195751" d="M435.518,559l10.89-10.891v-7.865l-10.89,10.89Z" transform="translate(-347.56 -431.138)" fill="#ef4136"/>
  <path id="Trazado_195752" data-name="Trazado 195752" d="M124.969,244.845v27.469L135.552,282.9V234.261Z" transform="translate(-99.73 -186.95)" fill="#ef4136"/>
  <path id="Trazado_195753" data-name="Trazado 195753" d="M342.753,209.609h-.921l.921-.4v-9.914l-.6.47.017-4.777-.794-3.656-1.517-2.365-1.761-1.77-.027,3.467-.749,2.194-.881,2.432.031,1.823.382,2.481-1.607-.59-1.311-.885-.951-1.279-.624-1.784.034,3.522.328,1.934,1.132,1,1.23,1.812-2.967-.316-.413-.111v3.592l1.349,1.349,2.292,1.129,3.181.59-3.181-.1L332.4,209.2l-.69-.2v3.379h11.047Z" transform="translate(-264.714 -149.387)" fill="#ef4136"/>
  <path id="Trazado_195754" data-name="Trazado 195754" d="M236.943,148.576l-.522-2.911,1.122,1.162V130.437L226.5,141.484v68.478l11.047,11.047V150.733Z" transform="translate(-180.753 -104.094)" fill="#ef4136"/>
  <path id="Trazado_195755" data-name="Trazado 195755" d="M331.706,327.067v61.062l5.572,5.572,5.475-5.476V327.067Zm9.211,53.031v2.771H338.56V380.1h-5.195v-1.83l4.591-7.316h2.961v7.308h1.477V380.1Z" transform="translate(-264.714 -261.012)" fill="#ef4136"/>
  <path id="Trazado_195756" data-name="Trazado 195756" d="M647.858,340.9v5.561l2.781-2.781Z" transform="translate(-517.015 -272.053)" fill="#ef4136"/>
  <path id="Trazado_195757" data-name="Trazado 195757" d="M352.605,560.575v-5.053l-3.3,5.053Z" transform="translate(-278.759 -443.328)" fill="#ef4136"/>
  <path id="Trazado_195758" data-name="Trazado 195758" d="M435.518,128.565v8.793l.029-.046.858,2.815.454,2.461-.846,3.4-.5,1.013v2.681l.577-.153,1.607-1.246.811-2.3-.4,5.756-1.262,4.317-1.328,2.14v7.394h.546v3.064h-.546v51.239L446.408,209V139.455Z" transform="translate(-347.56 -102.6)" fill="#ef4136"/>
  <path id="Trazado_195759" data-name="Trazado 195759" d="M331.86,68.781l.985.992.7,1.845.483,2.592,1.094,2.195,1.107-2.367.48-2.244.059-3.632.016-4.684.4-2.062.9-2.531,1.325,4.33,2.108,4.62,1.236,2.719V57.816l-5.476-5.476-5.571,5.571V68.733Z" transform="translate(-264.713 -41.769)" fill="#ef4136"/>
  <path id="Trazado_195760" data-name="Trazado 195760" d="M540.4,233.449v48.964l11.338-11.338V244.786Z" transform="translate(-431.262 -186.301)" fill="#ef4136"/>
  <path id="Trazado_195761" data-name="Trazado 195761" d="M654,299.817l.517-.517-3.829-3.829-.517.517-2.308-2.308v6.833L653.343,306l-5.485,5.485v7.865L661.208,306l-.169-.169-.517.516Z" transform="translate(-517.015 -234.367)" fill="#ef4136"/>
  <path id="Trazado_195762" data-name="Trazado 195762" d="M306.568,105.034l-1.629,1.565-1.88,1.035,1.148-2.663.013-4.014-.47-2.824L302.1,94.759l-.366,3.938-.945,2.82-.809,1.244-1.149.416.392-2.5-.366-2.4-.846-1.862L296.772,93.7l-2.108-4.62-1.325-4.33-.9,2.531-.4,2.062-.016,4.684-.06,3.632-.48,2.245-1.107,2.367-1.094-2.195-.483-2.592-.7-1.845-.985-.992-.154-.049-2.185-.691.538,2.171-.488,2.743-.32,2.508.017,2.419.74,2.226-1.312-.993L282.5,103.6l-.976-1.868-1.683-1.666.471,4.039.051,2.373.465,3.163.7,1.953,1.245,2.339-3.012-.4-1.431-1.178-1.262-1.666-.308-.319-1.122-1.162.522,2.912.6,2.158,1.957,7.032,1.709,2.451,3,2.48,3.531,1.01.69.2,2.951.262,3.181.1-3.181-.59-2.292-1.129-1.349-1.349-.973-.973-1.615-4.023,1.508,1.115,1.08.29.413.111,2.967.315-1.23-1.812-1.132-1-.328-1.934-.034-3.522.624,1.784.951,1.279,1.311.885,1.607.59-.382-2.481-.032-1.823.881-2.432.749-2.194.027-3.467,1.761,1.77,1.517,2.365.794,3.656-.017,4.777.6-.47.316-.248,1.578-1,1.4-1.338.757-2.007.013,3.5-.922,2.689-.871,1.174-1.376,1.287,1.96.045,1.815-.525,1.779-.732-1.893,3.471-1.868,1.653-2.486,1.856-.2.089-.921.4H299.8l2.474-.517,2.815-1.452,2.121-1.5.716-1.154,1.328-2.14,1.262-4.317.4-5.756-.811,2.3-1.607,1.246-.577.153-2.016.535,1.641-2.449.375-.767.5-1.013.846-3.4-.454-2.462-.858-2.815-.029.046-.577.938Z" transform="translate(-219.969 -67.633)"/>
  <path id="Trazado_195763" data-name="Trazado 195763" d="M303.95,311.9h-7.024v3.064h28.537V311.9H303.95Z" transform="translate(-236.958 -248.905)"/>
  <path id="Trazado_195764" data-name="Trazado 195764" d="M347.476,551.668V544.36h-2.961l-4.591,7.316v1.83h5.195v2.771h2.357v-2.771h1.476v-1.839Zm-2.357,0h-3.3l3.3-5.053Z" transform="translate(-271.272 -434.42)"/>
  <path id="Trazado_195765" data-name="Trazado 195765" d="M165.615,97.226,155.251,86.862,143.913,75.524,133.621,65.232l-10.89-10.89-9.919-9.919-5.476-5.476-5.571,5.571-10.2,10.2L80.516,65.767,70.6,75.688,60.012,86.271,49.631,96.652l-6.058,6.058,6.058,6.059,10.381,10.38L70.6,129.733l9.921,9.922L91.564,150.7l10.2,10.2,5.572,5.572L112.812,161l9.919-9.919,10.89-10.89L143.913,129.9l11.338-11.338L165.615,108.2l5.485-5.485Zm-10.364,18.63-11.338,11.338-10.293,10.293-10.89,10.89-9.919,9.919-5.476,5.475-5.572-5.572L91.564,148,80.516,136.95,70.6,127.028,60.012,116.445,49.631,106.064l-3.354-3.354,3.354-3.354L60.012,88.976,70.6,78.393l9.921-9.921L91.564,57.424l10.2-10.2,5.571-5.571,5.476,5.476,9.919,9.919,10.89,10.89,10.293,10.293,11.338,11.338L165.615,99.93l2.781,2.781-2.781,2.781Z" transform="translate(-34.773 -31.081)"/>
  <path id="Trazado_195766" data-name="Trazado 195766" d="M373.756,14.7l3.327,3.327,1.235-1.235-6.527-6.528-.719.718-.516.516Z" transform="translate(-295.717 -8.189)"/>
  <path id="Trazado_195767" data-name="Trazado 195767" d="M428.881,68.791l.718-.718-6.528-6.528-1.235,1.235,2.763,2.763,3.765,3.765Z" transform="translate(-336.642 -49.115)"/>
  <path id="Trazado_195768" data-name="Trazado 195768" d="M476.416,117.358l3.232,3.232,1.235-1.235-6.528-6.528-.718.718-.516.516Z" transform="translate(-377.568 -90.041)"/>
  <path id="Trazado_195769" data-name="Trazado 195769" d="M531.447,171.355l.719-.718-6.528-6.528-1.235,1.235,3.231,3.231,3.3,3.3Z" transform="translate(-418.493 -130.965)"/>
  <path id="Trazado_195770" data-name="Trazado 195770" d="M579.9,220.839l2.316,2.315,1.234-1.235-6.528-6.527-.718.718-.516.516Z" transform="translate(-459.418 -171.891)"/>
  <path id="Trazado_195771" data-name="Trazado 195771" d="M634.011,273.919l.718-.718-6.528-6.528-1.235,1.235,4.219,4.219,2.308,2.308Z" transform="translate(-500.344 -212.816)"/>
  <path id="Trazado_195772" data-name="Trazado 195772" d="M678.765,318.674l-.517.517,6.528,6.527.517-.516.718-.718-6.528-6.527Z" transform="translate(-541.268 -253.741)"/>
  <path id="Trazado_195773" data-name="Trazado 195773" d="M.938,353.518,0,354.457l6.527,6.528.939-.939.3-.3-6.528-6.528Z" transform="translate(0 -281.885)"/>
  <path id="Trazado_195774" data-name="Trazado 195774" d="M52.22,404.8l-.939.939,6.528,6.528,1.235-1.235-3.261-3.261-3.267-3.267Z" transform="translate(-40.924 -322.811)"/>
  <path id="Trazado_195775" data-name="Trazado 195775" d="M107.09,459.077l-3.29-3.29-1.235,1.235,6.528,6.528.939-.939.3-.3Z" transform="translate(-81.851 -363.735)"/>
  <path id="Trazado_195776" data-name="Trazado 195776" d="M154.786,507.366l-.939.938,6.528,6.528,1.235-1.235-3.012-3.012-3.516-3.516Z" transform="translate(-122.776 -404.661)"/>
  <path id="Trazado_195777" data-name="Trazado 195777" d="M209.445,561.434l-3.08-3.08-1.235,1.235,6.528,6.528.939-.939.3-.3Z" transform="translate(-163.702 -445.587)"/>
  <path id="Trazado_195778" data-name="Trazado 195778" d="M257.35,609.931l-.938.938,6.527,6.528,1.235-1.235-2.757-2.757-3.771-3.771Z" transform="translate(-204.627 -486.512)"/>
  <path id="Trazado_195779" data-name="Trazado 195779" d="M312.543,664.533l-3.615-3.614-1.235,1.235,6.528,6.528.938-.938.3-.3Z" transform="translate(-245.551 -527.438)"/>
  <path id="Trazado_195780" data-name="Trazado 195780" d="M19.608,312.174l-.812-.812-.423-.423-6.528,6.528.423.423.812.812Z" transform="translate(-9.453 -248.142)"/>
  <path id="Trazado_195781" data-name="Trazado 195781" d="M65.237,266.545l5.653-5.653-1.235-1.235-6.528,6.528.423.423.812.812Z" transform="translate(-50.379 -207.216)"/>
  <path id="Trazado_195782" data-name="Trazado 195782" d="M121.361,208.8l-.423-.423L114.41,214.9l1.235,1.235.9-.9,5.63-5.63Z" transform="translate(-91.304 -166.291)"/>
  <path id="Trazado_195783" data-name="Trazado 195783" d="M168.052,163.73l5.4-5.4-1.235-1.235-6.528,6.527.423.423.812.812Z" transform="translate(-132.229 -125.365)"/>
  <path id="Trazado_195784" data-name="Trazado 195784" d="M223.925,106.231l-.423-.423-6.528,6.528,1.235,1.235.688-.688,5.84-5.839Z" transform="translate(-173.154 -84.439)"/>
  <path id="Trazado_195785" data-name="Trazado 195785" d="M270.869,60.911l5.149-5.149-1.235-1.235-6.528,6.528.423.422.812.812Z" transform="translate(-214.079 -43.514)"/>
  <path id="Trazado_195786" data-name="Trazado 195786" d="M326.49,3.668l-.423-.422L319.54,9.773l1.235,1.235L322,9.786,327.3,4.48Z" transform="translate(-255.005 -2.59)"/>
  <rect id="Rectángulo_44531" data-name="Rectángulo 44531" width="9.232" height="1.746" transform="translate(72.771 143.35) rotate(-45)"/>
  <rect id="Rectángulo_44532" data-name="Rectángulo 44532" width="9.231" height="1.746" transform="matrix(0.707, -0.707, 0.707, 0.707, 83.128, 132.993)"/>
  <rect id="Rectángulo_44533" data-name="Rectángulo 44533" width="9.232" height="1.746" transform="translate(93.485 122.636) rotate(-45.001)"/>
  <rect id="Rectángulo_44534" data-name="Rectángulo 44534" width="9.232" height="1.746" transform="matrix(0.707, -0.707, 0.707, 0.707, 103.842, 112.279)"/>
  <rect id="Rectángulo_44535" data-name="Rectángulo 44535" width="9.231" height="1.746" transform="translate(114.2 101.922) rotate(-45.002)"/>
  <rect id="Rectángulo_44536" data-name="Rectángulo 44536" width="9.231" height="1.746" transform="translate(124.556 91.565) rotate(-45)"/>
  <rect id="Rectángulo_44537" data-name="Rectángulo 44537" width="9.231" height="1.746" transform="translate(134.914 81.208) rotate(-45.002)"/>
</svg>
