<svg xmlns="http://www.w3.org/2000/svg" width="156.508" height="152.024" viewBox="0 0 156.508 152.024">
  <g id="Grupo_1009395" data-name="Grupo 1009395" transform="translate(-574.888 -9300.764)">
    <path id="Trazado_195721" data-name="Trazado 195721" d="M0,0,9.555.139l.028,1.932L.028,1.932Z" transform="translate(716.202 9388.685) rotate(-45)"/>
    <path id="Trazado_195703" data-name="Trazado 195703" d="M757.071,399.648l-1.387-1.346,1.68-1.633-4.349-4.227,1.387-1.347c3.161,3.071,5.042,4.9,5.042,4.9l.692.673Z" transform="translate(-28.738 8979.946)"/>
    <path id="Trazado_195722" data-name="Trazado 195722" d="M0,0,1.933.028,2.07,9.48.138,9.452Z" transform="matrix(0.707, -0.707, 0.707, 0.707, 713.482, 9361.904)"/>
    <g id="Grupo_1009394" data-name="Grupo 1009394">
      <path id="Trazado_195708" data-name="Trazado 195708" d="M0,0,9.416.137l.028,1.932L.028,1.932Z" transform="translate(594.791 9357.603) rotate(-45)"/>
      <path id="Trazado_195709" data-name="Trazado 195709" d="M0,0,9.468.138,9.5,2.07.028,1.932Z" transform="matrix(0.707, -0.707, 0.707, 0.707, 584.022, 9368.062)"/>
      <path id="Trazado_195701" data-name="Trazado 195701" d="M74.671,407.267l-7.329-7.12,5.194-5.051,1.387,1.346-3.809,3.7,5.943,5.774Z" transform="translate(507.547 8976.792)"/>
      <path id="Trazado_195710" data-name="Trazado 195710" d="M0,0,1.932.028,2.07,9.445.137,9.416Z" transform="translate(586.206 9387.933) rotate(-45.001)"/>
      <path id="Trazado_195715" data-name="Trazado 195715" d="M0,0,1.932.028l.139,9.555L.139,9.555Z" transform="translate(639.902 9440.088) rotate(-45)"/>
      <path id="Trazado_195702" data-name="Trazado 195702" d="M417.656,747.526l-2.256-2.192,1.387-1.347.87.845,5.479-5.321,1.387,1.346Z" transform="translate(235.32 8705.262)"/>
      <path id="Trazado_195716" data-name="Trazado 195716" d="M0,0,9.539.139l.028,1.932L.028,1.932Z" transform="matrix(0.707, -0.707, 0.707, 0.707, 662.395, 9440.948)"/>
      <g id="Grupo_1009393" data-name="Grupo 1009393">
        <path id="Trazado_195694" data-name="Trazado 195694" d="M308.734,195.615a2.719,2.719,0,0,0-1.286,2.506,2.741,2.741,0,0,1-.1.692,3.561,3.561,0,0,1-.608.5,3.21,3.21,0,0,0-1.7,2.491c0,2.2,2.7,3.173,3.93,3.281a9.854,9.854,0,0,0,2.266-.252c.335-.061.773-.139.951-.151.707.146,4.928,1.514,7.749,2.427,1.83.593,3.449,1.117,4.319,1.383v.028c-1.926.722-8.618,2.915-9.622,3.214a23.158,23.158,0,0,1-3.749.05l-.837-.023a5.251,5.251,0,0,0-3.865,2.225,1.969,1.969,0,0,0-.357,1.087,1.545,1.545,0,0,0,.074.476c.281.878,1.211,1.26,1.957,1.567.186.077.441.183.591.265,0,.019,0,.029,0,.051,0,.135-.009.314-.016.458-.01.2-.021.425-.021.663a3.941,3.941,0,0,0,.747,2.686,3.679,3.679,0,0,0,2.653.671c2.064,0,3.894-2.441,5.282-4.167a5.849,5.849,0,0,1,.82-.965c.621-.339,3.474-1.621,5.574-2.459L327,213.16a9.536,9.536,0,0,0,4.946.922,9.887,9.887,0,0,0,4.337-.861c1.165.583,3.693,1.846,4.109,2.019a8.172,8.172,0,0,0,2.431.476,35.821,35.821,0,0,1,4.842,4.55,3.388,3.388,0,0,0,2.729,1.091h.066a4,4,0,0,0,3.421-1.83,1.875,1.875,0,0,0,.212-.87,2.927,2.927,0,0,0-.2-.97l-.025-.081c.15-.136.376-.321.559-.471a6.18,6.18,0,0,0,2.125-2.416,1.957,1.957,0,0,0,.1-.6,1.767,1.767,0,0,0-.366-1.077c-1.063-1.4-4.287-1.687-9.144-1.687-1.359,0-3.539-.9-6.062-1.937l-1.444-.589q.06-.28.1-.552l2.538-.78c2.5-.776,7.154-2.22,7.855-2.267a3.817,3.817,0,0,1,.92.173,7.422,7.422,0,0,0,2.029.307c1.835,0,4.442-1.948,4.442-3.766a2.27,2.27,0,0,0-1.795-2.095,2.51,2.51,0,0,1-.867-.472,1.816,1.816,0,0,1-.325-1.124,2.938,2.938,0,0,0-.548-1.707,2.555,2.555,0,0,0-1.932-.739c-.8-.043-2.672.079-3.342.729l-.332.377a19.826,19.826,0,0,1-3.7,3.5,16.238,16.238,0,0,0,.406-4.164,20.355,20.355,0,0,0-1.65-8.371.95.95,0,0,0-.2-.266c-.694-.667-6.91-6.52-11.216-6.52-7.353,0-13.14,6.23-13.382,6.5a.943.943,0,0,0-.193.319,24.542,24.542,0,0,0-1.114,7.656,16.839,16.839,0,0,0,.588,4.9,13.25,13.25,0,0,1-3.546-3.524l-.449-.6a4.119,4.119,0,0,0-5.187-.73M322.923,212.5c-3.495,1.395-5.665,2.285-6.336,2.882a10.761,10.761,0,0,0-1.179,1.241c-.877,1.089-2.561,3.312-3.668,3.312a1.683,1.683,0,0,1-1.109-.29,1.6,1.6,0,0,1-.261-1.07c0-.2.01-.4.019-.585s.019-.367.019-.539a1.98,1.98,0,0,0-.21-1,2.956,2.956,0,0,0-1.58-1.08,5.764,5.764,0,0,1-.775-.366,3.394,3.394,0,0,1,2.2-1.331l.764.022a18.5,18.5,0,0,0,4.4-.133c.773-.231,6.895-2,9.4-2.907a4.467,4.467,0,0,0,.618,1.094Zm13.545-1.926a6.035,6.035,0,0,1-4.547,1.494c-2.428,0-3.869-.269-4.693-1.105a3.116,3.116,0,0,1-.856-2.306c1.08,1.027,2.8,1.252,5.5,1.252,2.26,0,4.426-.179,5.558-1.091a2.35,2.35,0,0,1-.966,1.757m3.844.6a40.316,40.316,0,0,0,6.828,2.088c.341.076,6.111-.637,7.137.888.159.237-.752,1.036-1.238,1.433-.69.565-.742.482-1.008.819a8.8,8.8,0,0,0-.538,1.461c0,.317.383.589.367.754a1.909,1.909,0,0,1-1.484.68c-1.292,0-1.824-1.168-2.946-2.268-2.126-2.082-4.124-3.53-4.474-3.53a8.387,8.387,0,0,1-2.123-.357c-.248-.1-1.7-.663-3.1-1.359.4-.415.846-.632,1.09-1.094Zm9.583-13.054.15-.175a5.249,5.249,0,0,1,2.428-.153,3,3,0,0,1,.1.639,3.478,3.478,0,0,0,.837,2.241,4.124,4.124,0,0,0,1.563.942,2.554,2.554,0,0,1,.578.279h0c0,.007,0,.025,0,.053,0,.593-1.557,1.861-2.481,1.861a5.478,5.478,0,0,1-1.514-.24,5.46,5.46,0,0,0-1.453-.24c-.719,0-3.182.727-8.434,2.357l-1.846.568c0-.105-.008-.2-.013-.3a9.946,9.946,0,0,0,.677-1.394l0,.014a19.5,19.5,0,0,0,9.4-6.455m-29.659-9.4a10.969,10.969,0,0,1,4.645-3.626c2.4-.985,5.368-2.092,7.137-2.092,3.6,0,7.87,4.111,9.707,5.847a19.373,19.373,0,0,1,1.393,7.4c0,5.295-.994,5.7-3.046,5.7-.58,0-.948.168-1.088.545,0,0-.91,2.172-1.289,2.857-.508.917-3.3,1.668-5.747,1.668-2.409,0-5.245-.557-5.679-1.351a4.7,4.7,0,0,1-.342-2.116c-.066-.416-.751-.841-1.18-.9,0,0-2.792-.544-2.9-.582-1.46-.557-2.551-1.779-2.551-6.511a23.9,23.9,0,0,1,.946-6.849m-7.854,8.811.388.517a15.648,15.648,0,0,0,8.183,6.02,5.937,5.937,0,0,0,.67.225q.856.272,1.822.5l.047-.189h.009l.311.041a5.7,5.7,0,0,0,.48,1.514l-.011.349c-.924-.291-2.3-.736-3.73-1.2-6.837-2.215-7.918-2.53-8.318-2.53a8.708,8.708,0,0,0-1.362.189,10.212,10.212,0,0,1-1.729.227c-.623-.055-2.146-.608-2.146-1.385,0-.3.489-.654.92-.969a3.8,3.8,0,0,0,1.151-1.114,3.456,3.456,0,0,0,.337-1.462c.04-.526.08-.877.253-.967s1.813-.893,2.726.23" transform="translate(321.639 9145.508)"/>
        <path id="Trazado_195695" data-name="Trazado 195695" d="M433.762,255.715a13.691,13.691,0,0,0,2.1.827,8.808,8.808,0,0,0,2.1-1.1,3.152,3.152,0,0,0,1.078-1.433,4.753,4.753,0,0,0-3.347-1.543,4.406,4.406,0,0,0-3.233,1.488,3.081,3.081,0,0,0,1.3,1.763" transform="translate(221.979 9089.24)"/>
        <path id="Trazado_195696" data-name="Trazado 195696" d="M390.124,255.953a12.573,12.573,0,0,0,1.959.818,9.04,9.04,0,0,0,2.226-.967,6.9,6.9,0,0,0,1.044-1.636,3.605,3.605,0,0,0-3.185-1.464,3.733,3.733,0,0,0-3.227,1.456,5.778,5.778,0,0,0,1.182,1.792" transform="translate(256.014 9089.052)"/>
        <path id="Trazado_195697" data-name="Trazado 195697" d="M414.624,282.933a8.393,8.393,0,0,0,1.664-.086c.317-.125.6-.423,1.011-.423s.773.337,1.11.452a4.406,4.406,0,0,0,1.257,0,6.159,6.159,0,0,0-.376-1.779,12.459,12.459,0,0,0-2.11-1.731s-1.953,1.279-2.17,1.855a11.222,11.222,0,0,0-.386,1.711" transform="translate(235.927 9068.031)"/>
        <path id="Trazado_195698" data-name="Trazado 195698" d="M414.686,588.24h-4.8c.087-.084,1.193-.979,2.153-1.716a12.829,12.829,0,0,0,1.748-1.433,3.211,3.211,0,0,0,.873-2.215,3.174,3.174,0,0,0-1.239-2.612,5.21,5.21,0,0,0-3.338-.988,3.991,3.991,0,0,0-3.694,1.68,4.757,4.757,0,0,0-.611,2.314h2.978a1.551,1.551,0,0,1,1.464-1.582c.521,0,1.367.339,1.367,1.117,0,1.172-1.792,2.336-2.712,3.037a10.673,10.673,0,0,0-2.631,2.513,4.718,4.718,0,0,0-.6,2.216h9.045Z" transform="translate(242.953 8831.588)"/>
        <path id="Trazado_195699" data-name="Trazado 195699" d="M183.938,241.193a.992.992,0,0,1-.691-.277l-66.6-64.252a.933.933,0,0,1,0-1.352l66.6-64.148a1,1,0,0,1,1.383,0l66.042,64.148a.933.933,0,0,1,0,1.346l-66.042,64.252a.992.992,0,0,1-.694.279m-65.2-65.2,65.2,62.906,64.659-62.906-64.659-62.805Z" transform="translate(469.207 9200.855)" fill="#1f1a17"/>
        <path id="Trazado_195700" data-name="Trazado 195700" d="M407.2,64.886l-1.386-1.347L410.492,59l3.765,3.657L412.87,64l-2.378-2.31Z" transform="translate(242.817 9241.767)"/>
        <path id="Trazado_195704" data-name="Trazado 195704" d="M0,0,9.52.139l.028,1.932L.028,1.932Z" transform="translate(637.82 9315.808) rotate(-45)"/>
        <path id="Trazado_195705" data-name="Trazado 195705" d="M0,0,9.486.138l.028,1.932L.028,1.932Z" transform="translate(627.047 9326.271) rotate(-45)"/>
        <path id="Trazado_195706" data-name="Trazado 195706" d="M0,0,9.556.139l.028,1.932L.028,1.932Z" transform="translate(616.291 9336.719) rotate(-45)"/>
        <path id="Trazado_195707" data-name="Trazado 195707" d="M0,0,9.521.139l.028,1.933L.028,1.933Z" transform="matrix(0.707, -0.707, 0.707, 0.707, 605.534, 9347.166)"/>
        <path id="Trazado_195711" data-name="Trazado 195711" d="M0,0,1.932.028,2.07,9.5.138,9.468Z" transform="matrix(0.707, -0.707, 0.707, 0.707, 596.913, 9398.332)"/>
        <path id="Trazado_195712" data-name="Trazado 195712" d="M0,0,1.932.028,2.072,9.6.139,9.573Z" transform="matrix(0.707, -0.707, 0.707, 0.707, 607.669, 9408.78)"/>
        <path id="Trazado_195713" data-name="Trazado 195713" d="M0,0,1.932.028l.139,9.538L.139,9.538Z" transform="translate(618.438 9419.24) rotate(-45.002)"/>
        <path id="Trazado_195714" data-name="Trazado 195714" d="M0,0,1.932.028l.139,9.521L.139,9.521Z" transform="matrix(0.707, -0.707, 0.707, 0.707, 629.207, 9429.699)"/>
        <path id="Trazado_195717" data-name="Trazado 195717" d="M0,0,9.572.139,9.6,2.072.028,1.932Z" transform="matrix(0.707, -0.707, 0.707, 0.707, 673.126, 9430.524)"/>
        <path id="Trazado_195718" data-name="Trazado 195718" d="M0,0,9.556.139l.028,1.932L.028,1.932Z" transform="matrix(0.707, -0.707, 0.707, 0.707, 683.87, 9420.089)"/>
        <path id="Trazado_195719" data-name="Trazado 195719" d="M0,0,9.417.137l.028,1.932L.028,1.932Z" transform="translate(694.701 9409.568) rotate(-45)"/>
        <path id="Trazado_195720" data-name="Trazado 195720" d="M0,0,9.539.139l.028,1.932L.028,1.932Z" transform="translate(705.457 9399.12) rotate(-45)"/>
        <path id="Trazado_195723" data-name="Trazado 195723" d="M0,0,1.933.028,2.072,9.6.139,9.574Z" transform="translate(702.651 9351.384) rotate(-44.998)"/>
        <path id="Trazado_195724" data-name="Trazado 195724" d="M0,0,1.933.028,2.072,9.6.139,9.572Z" transform="translate(691.908 9340.948) rotate(-45.001)"/>
        <path id="Trazado_195725" data-name="Trazado 195725" d="M0,0,1.933.028l.14,9.625L.14,9.625Z" transform="translate(681.125 9330.476) rotate(-45.001)"/>
        <path id="Trazado_195726" data-name="Trazado 195726" d="M0,0,1.932.028l.139,9.52L.139,9.52Z" transform="translate(670.446 9320.103) rotate(-45)"/>
        <path id="Trazado_195727" data-name="Trazado 195727" d="M0,0,1.932.028,2.069,9.41.137,9.382Z" transform="matrix(0.707, -0.707, 0.707, 0.707, 659.7, 9309.665)"/>
      </g>
    </g>
  </g>
</svg>
