<svg id="Grupo_562275" data-name="Grupo 562275" xmlns="http://www.w3.org/2000/svg" xmlns:xlink="http://www.w3.org/1999/xlink" width="128.868" height="128.873" viewBox="0 0 128.868 128.873">
  <defs>
    <clipPath id="clip-path">
      <rect id="Rect치ngulo_44497" data-name="Rect치ngulo 44497" width="128.868" height="128.873" fill="none"/>
    </clipPath>
  </defs>
  <path id="Trazado_195629" data-name="Trazado 195629" d="M223.276,270.357l.37-.132-.453-.018Z" transform="translate(-183.227 -221.823)" fill="#df7b2d"/>
  <path id="Trazado_195630" data-name="Trazado 195630" d="M7.241,64.322,63.983,7.58l.594-.6L121.91,64.322,64.578,121.658ZM64.436,0,0,64.436l64.436,64.436,64.432-64.436Z" fill="#f79428"/>
  <path id="Trazado_195631" data-name="Trazado 195631" d="M383.146,271.937l1.657.052-.379-.408Z" transform="translate(-314.539 -222.952)" fill="#df7b2d"/>
  <g id="Grupo_562274" data-name="Grupo 562274">
    <g id="Grupo_562273" data-name="Grupo 562273" clip-path="url(#clip-path)">
      <path id="Trazado_195632" data-name="Trazado 195632" d="M108.691,162.216c1.151-1.153,53.8-53.8,54.952-54.956-1.153-1.153-53.8-53.8-54.953-54.956L53.735,107.259l54.956,54.956M78.7,100.493l-.464.5-.736.038-.387,1.084-.056-.077-1.183-1.627.426-1.394,1.162.736.348-.426,1.123.426Zm23.541,24.985v-.962a3.043,3.043,0,0,0,.9-.514,1.958,1.958,0,0,0,.664-.884h.856v5.54h-1.052v-3.982a3.639,3.639,0,0,1-1.365.8m6.151,29.58h-2.238v-7.7h-2.619v-1.5a9.807,9.807,0,0,0,1.453-.137,2.053,2.053,0,0,0,1.076-.578,1.9,1.9,0,0,0,.43-.791,1.8,1.8,0,0,0,.085-.441h1.813Zm.889-16.181-1.129.8-1.181-1.614-1.217,1.614-1.13-.8,1.212-1.723-1.844-.573.405-1.291,1.811.586v-2.1h1.5v2.107l1.81-.586.4,1.286-1.841.573ZM106.469,127.6h1.052v1.052h-1.052Zm4.608,1.052h-1.05v-3.982a3.625,3.625,0,0,1-1.363.8v-.962a3.037,3.037,0,0,0,.9-.514,1.956,1.956,0,0,0,.663-.884h.854Zm22.312-46.991L99.331,89.39l33.591-8.71Zm-33.283,6.907,19.075-13.446v1.6Zm13.154-4.647-11.3,4.359,11.221-5.3Zm10.28-7.977.534-.411,1.85-.082.7-2.18,1.521,2.591.041,2.8-2.3-1.563-1.151,1.234-1.439-.822Zm-7.4,6.292.37-.987.781-.863,2.261,2.262ZM98.947,69.187l.779.307.4-1.011.919.016.671,2.17L100.5,71.995l-.7,1.027-.414-1.516-.828-.389ZM96.466,82.639A7.293,7.293,0,0,1,98.68,83l4.034-15.746.906.544-4.9,15.217c.07.023.14.048.21.073L107.2,59.5l1.585.725-8.442,23.528.051.033,6.443-12.728.816.5L100.5,83.85a7.142,7.142,0,0,1,1.379,1.138l.993-1.082-.133-.311,1.177-.827L118.4,66.984l.822.822L104.936,82.234,106.6,82.2l2.137-1.768-1.356,2.508-2.426,1.974-.329-1.151-1.522.7-.114-.265-.958.967a6.023,6.023,0,0,1,.493.647l-1.12-.013-3.687,3.723,3.42-3.726-1.347-.016L99.472,87.1l-2.212-.241.724,1.77-1.609,1.931L93.56,89.154l-2.018.114,1.177.887-1.309-.879-.7.04-.968-1.046c.008-.033.017-.066.026-.1l-2.348-1.577-.349-.7,2.749,2.071a7.041,7.041,0,0,1,6.652-5.328m11.991-7.351-.208,1.02-.743.9-1.04-.9.3-1.506.515-.723.366.367L108,74.07ZM91.983,90.5l-6.118-2.943-.155-.387Zm-8.944-1.549,8.6,1.936-9.177-1.433Zm-16.03,6.311,22.905-2.629a7.9,7.9,0,0,1-.262-1.028l.024-.063-4.4-.177.091,1.031H84.51l-.426.7-1.355-.232-1.239-.89.448-.74-8.579-.344-.465-.5,9.19.606.18-.3,1.51.077.191.343,1,.066.279-.1.011.119L89.7,91.5l0-.009.045.012,1.93.127-1.707-.069,2.789.734,2.132-1.85L97.9,93.016l.96-.646L97.8,91.535l1.112.805,1.208-.813V90.039l.464.369,36.905-6.255V85.4l-36.9,5.014,1.1.875.172.292,10.229.324-.367-1.424,1.555-.518,1.088-1.037,4.1,1.815-1.169,1.329,15.322.485.674.518-16.2-.767-.127.144-2.281-.155-.1-.107-2.392-.113-.049.013,0-.016-10.268-.486.227.386,1.024.367c-.062.219-.134.434-.214.644l13.227,1.853-.259,1.763-6.051-1.559.974.422.68.772-.065.995-4.13-.707L105.7,95.354l.432-.785,1.557.288.223-.31L102.8,93.229a7.736,7.736,0,0,1-.419.849l8.175,4.5.483.982-8.732-5.35c-.083.139-.171.273-.262.406l9.686,7.015-.447.447-9.35-7.306q-.212.292-.449.56l6.887,5.055.446,1.011L101.4,95.417a6.6,6.6,0,0,1-9.987-.127l-2.8,2.571h1.126l.736.465-.31,1.045-.774.465L89,99.448l-.774.348-.7-.775.158-.316-6.469,5.93-.813-.774,10.9-8.7a7.509,7.509,0,0,1-.8-1.16l-9.326,5.49-.039-.5,9.333-5.046-.051-.1-5.952,1.967.078-.581,5.793-1.545q-.065-.13-.125-.263L72.856,97.705l.116-.581,17.2-3.8q-.138-.318-.249-.652l-22.955,3.1Zm8.518-1.7V93.1l1.2-.89,2.13,1.665ZM80.677,96l2.052.116v.7l-.852.348Z" transform="translate(-44.113 -42.938)" fill="#f79428"/>
      <path id="Trazado_195633" data-name="Trazado 195633" d="M40.441,96.346l57.336,57.337L155.11,96.346,97.777,39.009l-.594.6Zm112.288,0c-1.153,1.153-53.8,53.8-54.952,54.956L42.821,96.346,97.777,41.389c1.151,1.153,53.8,53.8,54.953,54.956" transform="translate(-33.2 -32.024)"/>
      <path id="Trazado_195634" data-name="Trazado 195634" d="M316,93.218l-1.585-.725-8.27,23.584a7.884,7.884,0,0,1,1.412.669Z" transform="translate(-251.323 -75.931)"/>
      <path id="Trazado_195635" data-name="Trazado 195635" d="M321.575,157.533l-.816-.5-6.443,12.728.1.066Z" transform="translate(-258.034 -128.916)"/>
      <path id="Trazado_195636" data-name="Trazado 195636" d="M309.678,136.318l-.906-.544-4.034,15.746.042.014Z" transform="translate(-250.171 -111.462)"/>
      <path id="Trazado_195637" data-name="Trazado 195637" d="M305.25,147.2l.7-1.027,1.218-1.325-.671-2.17-.919-.016-.4,1.011-.779-.306-.4,1.93.828.389Z" transform="translate(-249.572 -117.116)"/>
      <path id="Trazado_195638" data-name="Trazado 195638" d="M349.035,173.872l-.515.723-.3,1.506,1.04.9.743-.9.208-1.02-.455-1.218-.357.376Z" transform="translate(-285.869 -142.73)"/>
      <path id="Trazado_195639" data-name="Trazado 195639" d="M323.713,229.087l-.123-.287-.993,1.082c.053.057.107.114.158.173Z" transform="translate(-264.832 -187.831)"/>
      <path id="Trazado_195640" data-name="Trazado 195640" d="M334.994,149.539l14.286-14.428-.822-.822-14.485,15.786.755-.53Z" transform="translate(-274.172 -110.243)"/>
      <path id="Trazado_195641" data-name="Trazado 195641" d="M299.382,243.052l3.687-3.723-.268,0Z" transform="translate(-245.774 -196.472)"/>
      <path id="Trazado_195642" data-name="Trazado 195642" d="M331.776,179.758,312.7,193.2l19.075-11.843Z" transform="translate(-256.708 -147.57)"/>
      <path id="Trazado_195643" data-name="Trazado 195643" d="M334.338,224.566l-.082-.946-11.221,5.3Z" transform="translate(-265.192 -183.578)"/>
      <path id="Trazado_195644" data-name="Trazado 195644" d="M327.769,213.412l1.522-.7.329,1.151,2.426-1.974,1.356-2.508-2.137,1.768-1.667.036-.266.006-.755.53-1.177.827.133.311.123.287Z" transform="translate(-268.774 -171.89)"/>
      <path id="Trazado_195645" data-name="Trazado 195645" d="M402.6,210.016l-.37.987,3.413.411-2.261-2.262Z" transform="translate(-330.21 -171.701)"/>
      <path id="Trazado_195646" data-name="Trazado 195646" d="M444.783,173.247l2.3,1.562-.041-2.8-1.521-2.591-.7,2.18-1.85.082-.535.411-.247,1.563,1.44.822Z" transform="translate(-363.013 -139.086)"/>
      <path id="Trazado_195647" data-name="Trazado 195647" d="M342.432,211.762l-.467-.985-33.591,8.71Z" transform="translate(-253.156 -173.035)"/>
      <path id="Trazado_195648" data-name="Trazado 195648" d="M352.253,231.42v-1.244l-36.905,6.255,0,0Z" transform="translate(-258.881 -188.96)"/>
      <path id="Trazado_195649" data-name="Trazado 195649" d="M379.844,274.4l.049-.013-.053,0Z" transform="translate(-311.825 -225.256)"/>
      <path id="Trazado_195650" data-name="Trazado 195650" d="M379.828,259.458l.379.408,2.912.092,1.169-1.33-4.1-1.815-1.088,1.037-1.555.518.367,1.424.635.02Z" transform="translate(-309.943 -210.829)"/>
      <path id="Trazado_195651" data-name="Trazado 195651" d="M393.591,275.142l2.281.155.127-.144-2.508-.119Z" transform="translate(-323.032 -225.786)"/>
      <path id="Trazado_195652" data-name="Trazado 195652" d="M332.747,272.134l.053,0,2.392.113,2.508.119,16.2.767-.674-.519-15.322-.485L335,272.039l-1.657-.053-.635-.02-10.229-.324,0,.006Z" transform="translate(-264.732 -223.002)"/>
      <path id="Trazado_195653" data-name="Trazado 195653" d="M332.854,281.042l.182-.253,1.716.743,6.051,1.559.259-1.763-13.227-1.853q-.047.125-.1.248Z" transform="translate(-269.051 -229.433)"/>
      <path id="Trazado_195654" data-name="Trazado 195654" d="M346.172,287.063l-.223.31-1.557-.288-.432.785,1.57,1.165,4.13.707.065-.995-.68-.772-.975-.422-1.717-.743Z" transform="translate(-282.369 -235.453)"/>
      <path id="Trazado_195655" data-name="Trazado 195655" d="M333.719,291.078l-.484-.982-8.175-4.5c-.024.042-.048.085-.073.127Z" transform="translate(-266.794 -234.46)"/>
      <path id="Trazado_195656" data-name="Trazado 195656" d="M332.257,296.038l.447-.447-9.686-7.015q-.054.079-.11.156Z" transform="translate(-265.087 -236.903)"/>
      <path id="Trazado_195657" data-name="Trazado 195657" d="M299.8,271.4l1.069.835.044-.029Z" transform="translate(-246.114 -222.803)"/>
      <path id="Trazado_195658" data-name="Trazado 195658" d="M327.357,298.641l-.446-1.011-6.887-5.055-.082.09Z" transform="translate(-262.653 -240.186)"/>
      <path id="Trazado_195659" data-name="Trazado 195659" d="M242.471,307.886l.7.775.774-.349.387.387.774-.465.31-1.045-.736-.465h-1.126l-.923.846Z" transform="translate(-199.053 -251.802)"/>
      <path id="Trazado_195660" data-name="Trazado 195660" d="M202.683,300.333l.813.774,6.469-5.93.923-.846,2.8-2.571c-.038-.044-.075-.088-.112-.133Z" transform="translate(-166.39 -239.409)"/>
      <path id="Trazado_195661" data-name="Trazado 195661" d="M206.792,289.862l.039.5,9.326-5.49c-.011-.02-.021-.04-.031-.059Z" transform="translate(-169.763 -233.816)"/>
      <path id="Trazado_195662" data-name="Trazado 195662" d="M225.465,284.939l-.078.581,5.953-1.967c-.028-.053-.056-.105-.082-.159Z" transform="translate(-185.029 -232.649)"/>
      <path id="Trazado_195663" data-name="Trazado 195663" d="M206.249,297.159v-.7l-2.052-.116,1.2,1.161Z" transform="translate(-167.633 -243.282)"/>
      <path id="Trazado_195664" data-name="Trazado 195664" d="M178.971,313.947l-1.162-.736-.426,1.394,1.183,1.627.056.076.387-1.084.736-.038.464-.5.232-.736-1.123-.426Z" transform="translate(-145.621 -257.127)"/>
      <path id="Trazado_195665" data-name="Trazado 195665" d="M160.634,285.185l-.116.581,17.361-4.286c-.014-.032-.028-.065-.042-.1Z" transform="translate(-131.775 -230.998)"/>
      <path id="Trazado_195666" data-name="Trazado 195666" d="M150.594,277.555l-22.905,2.629-.039.5,22.955-3.1-.011-.033" transform="translate(-104.793 -227.856)"/>
      <path id="Trazado_195667" data-name="Trazado 195667" d="M175.437,276.045v.465l3.33.31-2.13-1.665Z" transform="translate(-144.023 -225.885)"/>
      <path id="Trazado_195668" data-name="Trazado 195668" d="M213.748,266.8l-1.51-.077-.18.3,1.88.124Z" transform="translate(-174.087 -218.962)"/>
      <path id="Trazado_195669" data-name="Trazado 195669" d="M228.434,268.883l-.279.1.29.019Z" transform="translate(-187.301 -220.737)"/>
      <path id="Trazado_195670" data-name="Trazado 195670" d="M211.409,269.963l-.083-.15-2.14-.086-.448.74,1.239.89,1.355.232.426-.7h.852l-.091-1.031-.74-.03Z" transform="translate(-171.36 -221.429)"/>
      <path id="Trazado_195671" data-name="Trazado 195671" d="M173.1,265.807l-.289-.019-1-.066-1.881-.124-9.19-.606.465.5,8.579.344,2.14.086.453.018.74.03,4.4.177.019-.05Z" transform="translate(-131.952 -217.542)"/>
      <path id="Trazado_195672" data-name="Trazado 195672" d="M256.759,271.327l-1.93-.127.223.059Z" transform="translate(-209.199 -222.638)"/>
      <path id="Trazado_195673" data-name="Trazado 195673" d="M214.725,256.991l-.581.5,9.177,1.433Z" transform="translate(-175.799 -210.974)"/>
      <path id="Trazado_195674" data-name="Trazado 195674" d="M238.58,250.373l-6.273-3.33.155.387Z" transform="translate(-190.71 -202.807)"/>
      <path id="Trazado_195675" data-name="Trazado 195675" d="M265.442,259.628l-1.177-.887-.132.008Z" transform="translate(-216.836 -212.41)"/>
      <path id="Trazado_195676" data-name="Trazado 195676" d="M240.224,240.605l2.348,1.577c.017-.068.034-.136.052-.2l-2.749-2.071Z" transform="translate(-196.923 -196.95)"/>
      <path id="Trazado_195677" data-name="Trazado 195677" d="M254.842,266.331c.014.032.027.065.042.1q.06.133.125.263c.027.054.054.106.082.159l.051.1c.011.02.021.04.032.059a7.526,7.526,0,0,0,.8,1.16c.037.044.074.089.112.133a6.6,6.6,0,0,0,9.987.127l.082-.09q.237-.268.449-.56.056-.077.11-.156c.091-.132.179-.267.262-.406.025-.042.049-.085.073-.127a7.707,7.707,0,0,0,.419-.849q.052-.123.1-.248c.08-.21.152-.425.214-.644l-1.024-.367-.227-.386,0-.006-.172-.292-1.1-.875,0,0-.464-.369v1.488l-1.208.813-.044.029-.96.646-3.016-2.574-2.132,1.85-2.789-.734-.223-.059-.045-.012,0,.009-.019.051-.024.063a7.882,7.882,0,0,0,.262,1.028l.011.033q.111.334.249.652" transform="translate(-208.78 -215.946)"/>
      <path id="Trazado_195678" data-name="Trazado 195678" d="M254.791,227.348l.968,1.046.7-.04.132-.008,2.018-.114,2.815,1.408,1.609-1.931-.724-1.77,2.212.241.322-1.327,1.347.016.268,0,1.12.013a6.035,6.035,0,0,0-.493-.647c-.051-.059-.1-.115-.158-.172a7.123,7.123,0,0,0-1.379-1.138l-.1-.066-.051-.033a7.885,7.885,0,0,0-1.412-.669c-.07-.025-.139-.05-.209-.073l-.042-.014a7.289,7.289,0,0,0-2.214-.357,7.041,7.041,0,0,0-6.652,5.328c-.019.067-.035.135-.052.2-.008.033-.018.066-.026.1" transform="translate(-209.168 -182.017)"/>
      <path id="Trazado_195679" data-name="Trazado 195679" d="M334.824,564.346a1.894,1.894,0,0,1-.43.791,2.053,2.053,0,0,1-1.076.578,9.807,9.807,0,0,1-1.453.137v1.5h2.619v7.7h2.238V563.905h-1.813a1.8,1.8,0,0,1-.085.441" transform="translate(-272.441 -462.931)"/>
      <path id="Trazado_195680" data-name="Trazado 195680" d="M327.052,453.313v-5.54H326.2a1.96,1.96,0,0,1-.665.884,3.048,3.048,0,0,1-.9.514v.962a3.639,3.639,0,0,0,1.365-.8v3.982Z" transform="translate(-266.505 -367.594)"/>
      <rect id="Rect치ngulo_44496" data-name="Rect치ngulo 44496" width="1.052" height="1.052" transform="translate(62.356 84.667)"/>
      <path id="Trazado_195681" data-name="Trazado 195681" d="M361.389,448.657a3.037,3.037,0,0,1-.9.514v.962a3.627,3.627,0,0,0,1.363-.8v3.982h1.05v-5.54h-.855a1.956,1.956,0,0,1-.663.884" transform="translate(-295.943 -367.594)"/>
      <path id="Trazado_195682" data-name="Trazado 195682" d="M339.938,508.809l-1.81.586v-2.107h-1.5v2.1l-1.811-.586-.405,1.291,1.844.573-1.212,1.724,1.13.8,1.217-1.614,1.181,1.614,1.129-.8-1.2-1.724,1.841-.573Z" transform="translate(-274.532 -416.452)"/>
    </g>
  </g>
</svg>
