<svg id="Grupo_1008698" data-name="Grupo 1008698" xmlns="http://www.w3.org/2000/svg" xmlns:xlink="http://www.w3.org/1999/xlink" width="148.958" height="148.959" viewBox="0 0 148.958 148.959">
  <defs>
    <clipPath id="clip-path">
      <rect id="Rectángulo_44567" data-name="Rectángulo 44567" width="148.958" height="148.959" fill="none"/>
    </clipPath>
  </defs>
  <g id="Grupo_562312" data-name="Grupo 562312" clip-path="url(#clip-path)">
    <path id="Trazado_195842" data-name="Trazado 195842" d="M117.551,51.9,55.958,113.5l-.333.333-.319.319-.4.4-.8.8.221.221H180.86l.221-.221L117.594,51.861Zm16.01,59.875h-30.21V109.47h30.21ZM118.983,66.808,123.357,76l.364,2.592-.263,2.126,1.418-.992,1.113-3.867.385-4.617,2.571,4.738.466,3.847-.183,3.827-.79,1.842,1.073-.749,1.539-1.822,1.823-3.037,1.154,3.219.527,3.543-1.8,5.163-1.093,1.337,1.579-.142,1.7-1.235,1.134-7.087.344,4.171-.648,7.524-1.254,3.928-2.608,3.628-2.14,1.4-2.992,1.638-6.034.519-4.53-.234-4.982-.418-4.112-1.271-3.727-2.441-1.772-2.858-1.037-4.33-1.972-7.489-.151-1.705,2.892,3.193,2.491,2.073,2.173.451-1.387-1.805-.752-2.29-.535-3.443.5-2.775-.435-4.129,2.39,2.14,1.588,2.491,1.288.735-.752-1.5.1-2.157.368-3.125.484-2.558-.384-2.842,2.424,1.17.986.92.8,1.655.418,2.056,1.077,2.374,1.2-3.689.452-4.366V67.111l.376-2.258,1.43-3.538Z" transform="translate(-42.87 -41.091)" fill="#ef4136"/>
    <path id="Trazado_195843" data-name="Trazado 195843" d="M0,74.479H8.823L8.6,74.258,74.065,8.794l.659-.659,66.123,66.122-.221.221h8.333L74.479,0Z" transform="translate(0 0)" fill="#ef4136"/>
    <path id="Trazado_195844" data-name="Trazado 195844" d="M56.783,360.254,118.4,421.867l.041.04.8-.8.4-.4.318-.318.465-.465.5-.5.7-.7.518-.518.271-.271.685-.685,1.3-1.3,1.607-1.606.378-.378,1.724-1.724.26-.26,2.953-2.953,1.015-1.015,1.685-1.685.3-.3,3.649-3.649.319-.319,1.784-1.784.2-.2.878-.878,3.09-3.089,2.5-2.5,1.464-1.463.832-.832,1.152-1.152,1.152-1.152.832-.832,1.464-1.464,2.5-2.5,3.089-3.09.879-.879.2-.2,1.784-1.783.319-.319,3.649-3.649.3-.3,1.685-1.685,1.015-1.015L172,368.34l.26-.26,1.724-1.724.378-.377,1.607-1.606,1.3-1.3.685-.685.271-.271.518-.518.7-.7.5-.5.465-.465.319-.318.4-.4.578-.578H55.17l1.613,1.613m69.975,35.4a1.81,1.81,0,0,0-2.819.315,4.228,4.228,0,0,0-.28,1.56h-2.43a6.13,6.13,0,0,1,.586-2.617,3.653,3.653,0,0,1,3.545-1.9,4.494,4.494,0,0,1,3.2,1.117,3.863,3.863,0,0,1,1.19,2.956,4,4,0,0,1-.84,2.505,8.409,8.409,0,0,1-1.811,1.622l-1,.711q-.936.667-1.281.965a2.815,2.815,0,0,0-.58.693h5.53v2.187h-8.687a5.925,5.925,0,0,1,.589-2.49,7.094,7.094,0,0,1,2.52-2.688,18.436,18.436,0,0,0,2.229-1.772,2.626,2.626,0,0,0,.776-1.824,2.026,2.026,0,0,0-.445-1.341m-10.1,7.5h2.653v2.612h-2.653Zm-4.863-3.016a1.6,1.6,0,0,0-1.422-.669,2.47,2.47,0,0,0-.79.114,1.569,1.569,0,0,0-.887.777l-2.235-.1.9-7.006h6.995v2.105h-5.206l-.456,2.784a5.236,5.236,0,0,1,.9-.5,3.8,3.8,0,0,1,1.318-.2,3.822,3.822,0,0,1,3.91,4.131,4.82,4.82,0,0,1-1.128,3.135,4.1,4.1,0,0,1-3.374,1.38,4.48,4.48,0,0,1-2.972-.971,3.771,3.771,0,0,1-1.294-2.755h2.49a2.407,2.407,0,0,0,.571,1.258,1.617,1.617,0,0,0,1.229.443,1.66,1.66,0,0,0,1.418-.651,2.657,2.657,0,0,0,.487-1.638,2.834,2.834,0,0,0-.457-1.639" transform="translate(-43.713 -284.162)" fill="#fff200"/>
    <path id="Trazado_195845" data-name="Trazado 195845" d="M74.724,424.541l-65.9-65.9H0l74.479,74.48,74.479-74.48h-8.333Z" transform="translate(0 -284.161)" fill="#fff200"/>
    <path id="Trazado_195846" data-name="Trazado 195846" d="M54.1,354.526l.8-.8Z" transform="translate(-42.869 -280.268)" fill="#fff"/>
    <path id="Trazado_195847" data-name="Trazado 195847" d="M124.617,52.064,63.024,113.658l61.593-61.594" transform="translate(-49.936 -41.252)" fill="#fff"/>
    <path id="Trazado_195848" data-name="Trazado 195848" d="M60.2,350.262l-.319.319.319-.319" transform="translate(-47.449 -277.523)" fill="#fff"/>
    <path id="Trazado_195849" data-name="Trazado 195849" d="M106.883,39.834,41.42,105.3l66.122-66.122Z" transform="translate(-32.818 -31.04)" fill="#fff"/>
    <path id="Trazado_195850" data-name="Trazado 195850" d="M428.379,588.3l-1.685,1.685Z" transform="translate(-338.082 -466.129)" fill="#fff"/>
    <path id="Trazado_195851" data-name="Trazado 195851" d="M465.787,553.97l-.878.879Z" transform="translate(-368.361 -438.927)" fill="#fff"/>
    <path id="Trazado_195852" data-name="Trazado 195852" d="M439.9,569.288l-3.649,3.649Z" transform="translate(-345.651 -451.064)" fill="#fff"/>
    <path id="Trazado_195853" data-name="Trazado 195853" d="M457.138,559.165l-1.784,1.784Z" transform="translate(-360.79 -443.043)" fill="#fff"/>
    <path id="Trazado_195854" data-name="Trazado 195854" d="M410.539,601.3l-2.953,2.953Z" transform="translate(-322.942 -476.429)" fill="#fff"/>
    <path id="Trazado_195855" data-name="Trazado 195855" d="M486.519,527.034l-2.5,2.5Z" transform="translate(-383.499 -417.585)" fill="#fff"/>
    <path id="Trazado_195856" data-name="Trazado 195856" d="M523.693,493.831l-1.464,1.464Z" transform="translate(-413.777 -391.277)" fill="#fff"/>
    <path id="Trazado_195857" data-name="Trazado 195857" d="M399.757,616.772l-1.724,1.724Z" transform="translate(-315.373 -488.687)" fill="#fff"/>
    <path id="Trazado_195858" data-name="Trazado 195858" d="M513.828,504.885l-1.152,1.152Z" transform="translate(-406.208 -400.035)" fill="#fff"/>
    <path id="Trazado_195859" data-name="Trazado 195859" d="M503.954,515.98l-.832.832Z" transform="translate(-398.638 -408.826)" fill="#fff"/>
    <path id="Trazado_195860" data-name="Trazado 195860" d="M375.127,646l.518-.518-.518.518" transform="translate(-297.224 -511.438)" fill="#fff"/>
    <path id="Trazado_195861" data-name="Trazado 195861" d="M365.6,656.294l.318-.318-.318.318" transform="translate(-289.676 -519.749)" fill="#fff"/>
    <path id="Trazado_195862" data-name="Trazado 195862" d="M650.225,370.226l.7-.7-.7.7" transform="translate(-515.192 -292.789)" fill="#fff"/>
    <path id="Trazado_195863" data-name="Trazado 195863" d="M544.426,466.9l-3.09,3.089Z" transform="translate(-428.916 -369.935)" fill="#fff"/>
    <path id="Trazado_195864" data-name="Trazado 195864" d="M659.753,361.826l.4-.4-.4.4" transform="translate(-522.742 -286.368)" fill="#fff"/>
    <path id="Trazado_195865" data-name="Trazado 195865" d="M62.936,366.407l61.613,61.613L62.936,366.407" transform="translate(-49.866 -290.315)" fill="#fff"/>
    <path id="Trazado_195866" data-name="Trazado 195866" d="M369.87,651.337l-.5.5Z" transform="translate(-292.664 -516.073)" fill="#fff"/>
    <path id="Trazado_195867" data-name="Trazado 195867" d="M390.086,626.892l-1.607,1.606Z" transform="translate(-307.803 -496.705)" fill="#fff"/>
    <path id="Trazado_195868" data-name="Trazado 195868" d="M379.611,640.883l-.685.685Z" transform="translate(-300.234 -507.79)" fill="#fff"/>
    <path id="Trazado_195869" data-name="Trazado 195869" d="M360.617,659.439l-.8.8Z" transform="translate(-285.094 -522.493)" fill="#fff"/>
    <path id="Trazado_195870" data-name="Trazado 195870" d="M570.316,451.577,570,451.9Z" transform="translate(-451.625 -357.798)" fill="#fff"/>
    <path id="Trazado_195871" data-name="Trazado 195871" d="M638.172,379.982l-1.3,1.3Z" transform="translate(-504.613 -301.071)" fill="#fff"/>
    <path id="Trazado_195872" data-name="Trazado 195872" d="M646.7,375.378l-.271.271Z" transform="translate(-512.182 -297.423)" fill="#fff"/>
    <path id="Trazado_195873" data-name="Trazado 195873" d="M618.026,404.093l-.26.26Z" transform="translate(-489.474 -320.175)" fill="#fff"/>
    <path id="Trazado_195874" data-name="Trazado 195874" d="M589.4,432.563l-.3.3Z" transform="translate(-466.765 -342.732)" fill="#fff"/>
    <path id="Trazado_195875" data-name="Trazado 195875" d="M656.445,364.89l-.465.465Z" transform="translate(-519.752 -289.113)" fill="#fff"/>
    <path id="Trazado_195876" data-name="Trazado 195876" d="M560.643,461.7l-.2.2Z" transform="translate(-444.055 -365.819)" fill="#fff"/>
    <path id="Trazado_195877" data-name="Trazado 195877" d="M627.7,393.973l-.378.377Z" transform="translate(-497.043 -312.156)" fill="#fff"/>
    <path id="Trazado_195878" data-name="Trazado 195878" d="M599.673,419.563l-1.015,1.015Z" transform="translate(-474.334 -332.432)" fill="#fff"/>
    <path id="Trazado_195879" data-name="Trazado 195879" d="M44.854,104.5l.4-.4.318-.318.333-.333L107.5,41.851l.042-.042L171.03,105.3h2.635L107.542,39.175,41.42,105.3h2.634Z" transform="translate(-32.818 -31.04)" fill="#fff"/>
    <path id="Trazado_195880" data-name="Trazado 195880" d="M173.443,357.8l.221-.221H171.03l-.221.221-.578.578-.4.4-.319.318-.465.465-.5.5-.7.7-.518.518-.271.271-.685.685-1.3,1.3-1.607,1.606-.378.377-1.724,1.724-.26.26-2.953,2.953-1.015,1.015-1.685,1.685-.3.3-3.649,3.649-.319.319-1.784,1.783-.2.2-.878.879-3.09,3.09-2.5,2.5-1.464,1.464-.832.832-1.152,1.152-1.152,1.152-.832.832-1.464,1.463-2.5,2.5-3.09,3.089-.878.878-.2.2-1.784,1.784-.319.319-3.649,3.649-.3.3-1.685,1.685-1.015,1.015-2.953,2.953-.26.26-1.724,1.724-.378.378-1.607,1.606-1.3,1.3-.685.685-.271.271-.518.518-.7.7-.5.5-.465.465-.319.318-.4.4-.8.8-.041-.041L45.888,359.41,44.275,357.8l-.221-.221H41.42l.221.221,65.9,65.9Z" transform="translate(-32.818 -283.318)"/>
    <path id="Trazado_195881" data-name="Trazado 195881" d="M304.511,536.129a1.618,1.618,0,0,1-1.229-.443,2.4,2.4,0,0,1-.571-1.258h-2.49a3.771,3.771,0,0,0,1.293,2.755,4.481,4.481,0,0,0,2.972.971,4.1,4.1,0,0,0,3.374-1.38,4.819,4.819,0,0,0,1.128-3.135,3.822,3.822,0,0,0-3.911-4.131,3.8,3.8,0,0,0-1.318.2,5.228,5.228,0,0,0-.9.5l.456-2.784h5.205v-2.105h-6.995l-.9,7.006,2.235.1a1.569,1.569,0,0,1,.887-.777,2.471,2.471,0,0,1,.791-.114,1.6,1.6,0,0,1,1.422.669,2.836,2.836,0,0,1,.457,1.639,2.656,2.656,0,0,1-.488,1.638,1.66,1.66,0,0,1-1.418.651" transform="translate(-237.874 -416.224)"/>
    <rect id="Rectángulo_44565" data-name="Rectángulo 44565" width="2.653" height="2.612" transform="translate(72.949 118.994)"/>
    <path id="Trazado_195882" data-name="Trazado 195882" d="M375.7,531.723a7.094,7.094,0,0,0-2.52,2.688,5.925,5.925,0,0,0-.589,2.49h8.686v-2.187h-5.53a2.812,2.812,0,0,1,.58-.693q.344-.3,1.281-.965l1-.711a8.408,8.408,0,0,0,1.811-1.622,4,4,0,0,0,.84-2.505,3.863,3.863,0,0,0-1.19-2.956,4.494,4.494,0,0,0-3.2-1.117,3.653,3.653,0,0,0-3.545,1.9,6.131,6.131,0,0,0-.586,2.617h2.43a4.228,4.228,0,0,1,.28-1.56,1.81,1.81,0,0,1,2.819-.315,2.026,2.026,0,0,1,.445,1.341,2.625,2.625,0,0,1-.777,1.824,18.425,18.425,0,0,1-2.229,1.772" transform="translate(-295.212 -415.296)"/>
    <path id="Trazado_195883" data-name="Trazado 195883" d="M285.069,103.183V107.4l-.452,4.366-1.2,3.689-1.077-2.374-.418-2.056-.8-1.655-.986-.92-2.424-1.17.384,2.842-.485,2.558-.368,3.126-.1,2.157.752,1.5-1.287-.735-1.588-2.491-2.39-2.14.435,4.129-.5,2.775.535,3.443.752,2.29,1.387,1.805-2.173-.451-2.491-2.073-2.892-3.193.15,1.705,1.972,7.489,1.037,4.329,1.772,2.858,3.727,2.441,4.112,1.271,4.982.418,4.53.234,6.034-.519,2.992-1.638,2.14-1.4,2.608-3.628,1.254-3.928.648-7.524-.344-4.171-1.134,7.087-1.7,1.235-1.579.142,1.093-1.337,1.8-5.163-.526-3.543-1.154-3.219L300.268,119l-1.539,1.822-1.073.749.79-1.842.183-3.827-.466-3.847-2.571-4.738-.385,4.617-1.113,3.867-1.418.992.263-2.126-.364-2.592-4.374-9.193-1.325-5.492-1.43,3.538Zm2.464,18.049c2.1,2.515,3.065,4.815,3.065,6.9a43.2,43.2,0,0,1-.472,5.169l3.97-2.063,1.375-1.631c0,2.535-.019,4.52-3.537,7.566l2.83.157,2.751-1.278-1.631,2.83-2.26,2.26-3.557,1.808-5.8-1.022-2.457-1.219-2.4-2.4-1.3-2.967,1.69,1.553,4.461.55-1.847-2.594-1.651-3.105.02-2.535c1.337,2.063,2.378,2.889,5.247,4.068a19.522,19.522,0,0,1-.432-4.4c0-2.24,2.574-6.053,1.926-7.645" transform="translate(-212.088 -77.163)" fill="#fff"/>
    <path id="Trazado_195884" data-name="Trazado 195884" d="M320.636,220.19l-.02,2.535,1.651,3.105,1.848,2.594-4.461-.55-1.69-1.553,1.3,2.968,2.4,2.4,2.457,1.219,5.8,1.022,3.557-1.808,2.26-2.26,1.631-2.83-2.751,1.278-2.83-.157c3.518-3.046,3.537-5.031,3.537-7.566l-1.375,1.631-3.97,2.063a43.2,43.2,0,0,0,.472-5.169c0-2.083-.963-4.383-3.065-6.9.648,1.592-1.926,5.4-1.926,7.645a19.521,19.521,0,0,0,.432,4.4c-2.869-1.179-3.911-2-5.247-4.068" transform="translate(-251.931 -168.141)" fill="#ef4136"/>
    <rect id="Rectángulo_44566" data-name="Rectángulo 44566" width="30.21" height="2.308" transform="translate(60.482 68.379)" fill="#fff"/>
  </g>
</svg>
