<svg xmlns="http://www.w3.org/2000/svg" xmlns:xlink="http://www.w3.org/1999/xlink" width="88.689" height="88.689" viewBox="0 0 88.689 88.689">
  <defs>
    <clipPath id="clip-path">
      <rect id="Rectángulo_348247" data-name="Rectángulo 348247" width="37.85" height="43.965" fill="#12263f"/>
    </clipPath>
  </defs>
  <g id="Grupo_1009397" data-name="Grupo 1009397" transform="translate(-180 -2043)">
    <g id="Grupo_1005245" data-name="Grupo 1005245" transform="translate(180 2043)" opacity="0.752">
      <g id="Grupo_20664" data-name="Grupo 20664" transform="translate(0 0)">
        <path id="Trazado_99075" data-name="Trazado 99075" d="M44.345,0A44.345,44.345,0,1,1,0,44.345,44.345,44.345,0,0,1,44.345,0Z" fill="#3076b6"/>
        <path id="Trazado_715274" data-name="Trazado 715274" d="M35.122,0A35.122,35.122,0,1,1,0,35.122,35.122,35.122,0,0,1,35.122,0Z" transform="translate(9.223 9.223)" fill="#f6f6f6"/>
      </g>
    </g>
    <g id="Grupo_1006757" data-name="Grupo 1006757" transform="translate(205.764 2067)" opacity="0.752">
      <g id="Grupo_1006756" data-name="Grupo 1006756" clip-path="url(#clip-path)">
        <path id="Trazado_717977" data-name="Trazado 717977" d="M2.016,0a9.778,9.778,0,0,1,.5,2.161q.049,16.806.023,33.612c0,3.685,1.93,5.633,5.614,5.638q10.824.013,21.649,0c3.538,0,5.508-1.975,5.509-5.5,0-11.128-.008-22.256.021-33.384A15.217,15.217,0,0,1,35.758,0h1.6a10.4,10.4,0,0,1,.472,2.171q.046,16.812.021,33.624c0,5.126-3.04,8.167-8.137,8.167q-10.828,0-21.657,0C3.126,43.963,0,40.843,0,35.924Q0,19.34.021,2.756A19.079,19.079,0,0,1,.42,0h1.6" transform="translate(0)" fill="#12263f"/>
        <path id="Trazado_717978" data-name="Trazado 717978" d="M41.59,0c1.32,1.129,2.129,2.856,4.064,3.3a1.77,1.77,0,0,1,.994,1.267,1.012,1.012,0,0,1-1.227,1.144,9.4,9.4,0,0,1-2.535-.838A4.892,4.892,0,0,1,41.655,3.7c-1.468-1.58-2.244-1.574-3.713.05-2.474,2.734-5,2.745-7.472.034C28.942,2.11,28.185,2.1,26.677,3.754c-2.5,2.737-4.958,2.719-7.486.044a5.332,5.332,0,0,0-2.047-1.257c-1.111-.4-1.314-.986-.631-2.541H19.02a36.729,36.729,0,0,0,3.162,2.958,1.884,1.884,0,0,0,1.749-.14A37.82,37.82,0,0,0,27,0h3.192A37.1,37.1,0,0,0,33.31,2.89a1.862,1.862,0,0,0,1.752.005A36.815,36.815,0,0,0,38.17,0h3.42" transform="translate(-12.444)" fill="#12263f"/>
        <path id="Trazado_717979" data-name="Trazado 717979" d="M37.1,51.527c.553-.65.867-1.3,1.377-1.551.736-.359,1.245.259,1.656.846.457.652.947,1.282,1.4,1.936.82,1.179.541,2-.824,2.382-1.169.327-2.348.618-3.522.923-.738.192-1.635.526-2.024-.346-.246-.55.023-1.329.072-2.181-.361-.24-1.023-.618-1.613-1.086-2.781-2.2-2.877-5.514-.019-7.594a14.855,14.855,0,0,1,4.793-2.228,18.033,18.033,0,0,1,12.042.757,10.622,10.622,0,0,1,3.332,2.294,4.164,4.164,0,0,1,.046,5.877,9.911,9.911,0,0,1-5.166,2.936,1.155,1.155,0,0,1-1.54-.8,1.254,1.254,0,0,1,.842-1.631,19.36,19.36,0,0,0,3.339-1.648c1.554-1.11,1.553-2.538-.031-3.614a12.119,12.119,0,0,0-3.684-1.686,16.07,16.07,0,0,0-10.909.773c-1.205.544-2.562,1.213-2.538,2.767.023,1.483,1.364,2.068,2.5,2.683a2.623,2.623,0,0,0,.465.192" transform="translate(-24.315 -32.379)" fill="#12263f"/>
        <path id="Trazado_717980" data-name="Trazado 717980" d="M77.5,154.343a1.465,1.465,0,0,1-1.349-2.059c.139-.379.036-.846.174-1.226.2-.557.4-1.338.828-1.527s1.155.159,1.691.4a3.173,3.173,0,0,1,1.07.883,2.552,2.552,0,0,1,.722,1.3,1.7,1.7,0,0,1-.726,1.169,11.629,11.629,0,0,1-1.958.95,2.019,2.019,0,0,1-.453.108" transform="translate(-58.705 -115.399)" fill="#12263f"/>
        <path id="Trazado_717981" data-name="Trazado 717981" d="M100.58,120.187c-.4-.342-1.009-.616-1.151-1.044a2.664,2.664,0,0,1,.286-1.551,3.377,3.377,0,0,1,.739-1.158c.373-.376.867-.914,1.283-.892.479.025.972.541,1.379.928a3,3,0,0,1,.68,1.07c.192.5.5,1.117.34,1.53a1.823,1.823,0,0,1-1.264.887,8.993,8.993,0,0,1-2.121-.132l-.171.361" transform="translate(-76.727 -89.2)" fill="#12263f"/>
        <path id="Trazado_717982" data-name="Trazado 717982" d="M40.951,125.1a5.575,5.575,0,0,1,.335,1.665,2.086,2.086,0,0,1-.706,1.481c-.4.217-1.1-.049-1.646-.192a3.083,3.083,0,0,1-1.118-.547c-.463-.369-1.145-.8-1.19-1.26s.52-1.039.922-1.468a2.955,2.955,0,0,1,1.18-.721,2.744,2.744,0,0,1,1.556-.216c.4.131.66.71.982,1.092l-.315.165" transform="translate(-28.273 -95.57)" fill="#12263f"/>
      </g>
    </g>
  </g>
</svg>
