<svg xmlns="http://www.w3.org/2000/svg" xmlns:xlink="http://www.w3.org/1999/xlink" width="128.689" height="128.689" viewBox="0 0 128.689 128.689">
  <defs>
    <clipPath id="clip-path">
      <rect id="Rectángulo_348178" data-name="Rectángulo 348178" width="68.092" height="62.486" fill="#12263f"/>
    </clipPath>
  </defs>
  <g id="Grupo_1009393" data-name="Grupo 1009393" transform="translate(-429.655 -5461.311)">
    <g id="Grupo_1006774" data-name="Grupo 1006774" transform="translate(429.655 5461.311)" opacity="0.752">
      <g id="Grupo_20664" data-name="Grupo 20664" transform="translate(0 0)">
        <path id="Trazado_99075" data-name="Trazado 99075" d="M64.345,0A64.345,64.345,0,1,1,0,64.345,64.345,64.345,0,0,1,64.345,0Z" fill="#c5dcee"/>
        <path id="Trazado_715274" data-name="Trazado 715274" d="M50.963,0A50.963,50.963,0,1,1,0,50.963,50.963,50.963,0,0,1,50.963,0Z" transform="translate(13.382 13.382)" fill="#f6f6f6"/>
      </g>
    </g>
    <g id="Grupo_1006698" data-name="Grupo 1006698" transform="translate(458.954 5490.412)">
      <g id="Grupo_1006697" data-name="Grupo 1006697" clip-path="url(#clip-path)">
        <path id="Trazado_717676" data-name="Trazado 717676" d="M28.073,7.444a2.444,2.444,0,0,1-1.585-2.676,21.262,21.262,0,0,0,0-2.389A2.3,2.3,0,0,1,28.859,0c3.341-.01,6.682,0,10.023.009a2.392,2.392,0,0,1,2.474,2.493,13.317,13.317,0,0,1-.1,3.153,2.139,2.139,0,0,1-2.1,1.767c-.558-.021-.69.077-.684.7.042,4.269.011,8.539,0,12.809-.015-.015-.036-.045-.045-.042-.07.023-.068.051,0,.068.01,0,.028-.029.042-.045a2.141,2.141,0,0,0,.623,1.42c.012.12-.01.285.186.238.132-.032.106-.157.075-.261a9.926,9.926,0,0,1,.189-2.652l.1-.141a2.418,2.418,0,0,1,.775-1.049l.158-.115a2.952,2.952,0,0,1,1.9-.7q4.413,0,8.827-.013a1.559,1.559,0,0,1,.976.458l.1.1.052.4c-.131.428-.249.869-.8.932l-.147.093-5.845.051-.134-.044a8.2,8.2,0,0,0-2.925,0,1.26,1.26,0,0,0-1.2,1.424c0,.683,0,1.366,0,2.05,0,.205-.009.443.2.515a24.379,24.379,0,0,1,3.922,2.028.67.67,0,0,0,.119.154,20.765,20.765,0,0,1,5.321,5.56c.125.186.319.119.485.119q5.577.006,11.155,0c.151,0,.364.114.45-.136.007-.419.02-.839.021-1.258,0-1.218,0-1.218-1.2-1.259-.847-.029-1.18-.37-1.17-1.2q.174-.13,0-.26c.315-.67.937-.7,1.528-.652.661.057.98-.117.849-.822a.368.368,0,0,1,.025-.128c.109-.089.106-.174-.007-.258a.78.78,0,0,1,.013-.379c.434-1.654,1.57-2.9,2.475-4.279a.256.256,0,0,0,.137-.268v0l.135-.135,0,0a.258.258,0,0,0,.137-.267c.077-.535-.266-.539-.65-.54q-4.657,0-9.315-.022c-.049-.073-.094-.063-.137.007a.544.544,0,0,1-.531-.24l-.091-.128a1.122,1.122,0,0,1-.2-.666.93.93,0,0,1,1.069-.962c3.208,0,6.417-.015,9.625.01a2.65,2.65,0,0,1,2.353,1.614v.266q-.205.133,0,.266v.532c-.094.044-.093.089,0,.133V20.6c-.728,1.317-1.723,2.458-2.494,3.747a3.281,3.281,0,0,0-.562,1.692q0,8.1.017,16.209c0,5.536.011,11.073-.005,16.609a3.349,3.349,0,0,1-2.589,3.5,2.509,2.509,0,0,1-.766.086q-9.534.01-19.067,0a2.983,2.983,0,0,1-2.164-.842c-.191-.186-.326-.163-.567-.085a17.653,17.653,0,0,1-7.252.887,28.286,28.286,0,0,0-2.992.043q-12.191-.012-24.381-.005A5.411,5.411,0,0,1,.453,59.1a5.693,5.693,0,0,1,.664-5.585c1.265-1.925,2.572-3.822,3.818-5.759.185-.287.574-.438.577-.843l.109-.137a16.96,16.96,0,0,1,1.767-2.627.9.9,0,0,0,.118-.293l.109-.137c1.149-1.87,2.4-3.675,3.573-5.527.662-1.043,1.652-1.953,1.692-3.313s.05-2.714.053-4.072c.007-2.966,0-5.931,0-8.9,0-.386.054-.642-.547-.677a2.334,2.334,0,0,1-2.359-2.643c.029-.906.046-1.816,0-2.721a2.391,2.391,0,0,1,2.217-2.177c.884.032,1.77-.006,2.655.008a1.048,1.048,0,0,1,1.106,1.027.933.933,0,0,1-.815.97l-2.935,0c-.088-.022-.119.029-.134.1a9.4,9.4,0,0,0,.007,3.2c.029.152.166.123.265.159a11.44,11.44,0,0,0,3.457,0l.135-.044,6.508.044c.047.068.092.062.135,0,.082-.069.234-.139.234-.209a12.965,12.965,0,0,0-.088-3.147c-.165-.224-.406-.122-.612-.126-.86-.016-1.72-.013-2.581-.018-.459-.162-.915-.328-.965-.92A1.2,1.2,0,0,1,19.82,13.7a16.967,16.967,0,0,1,3.213.109,2.274,2.274,0,0,1,1.878,2.477c0,.816-.014,1.631-.022,2.447-.164.018-.123.155-.147.253-.361.207.064.459-.056.746a2.167,2.167,0,0,1-1.907,1.382c-.552-.017-.736.158-.72.719.037,1.3.012,2.608.012,3.965a3.8,3.8,0,0,0,1.148-.705,19.1,19.1,0,0,1,4.354-2.026,2.49,2.49,0,0,0,1.8-2.659c.036-4.113.007-8.227.024-12.34,0-.42-.121-.555-.521-.5a3.042,3.042,0,0,1-.527-.021c-.011-.256-.157-.144-.278-.1m-8.1,13.721a11.859,11.859,0,0,0-1.985-.011c-.55-.005-1.1-.042-1.65-.006-.459.031-.941-.169-1.377.119-.01.242-.028.484-.028.727,0,3.957.024,7.914-.015,11.87a7.944,7.944,0,0,1-1.294,4.251c-.146.229-.493.242-.485.382.042.761-.57,1.163-.887,1.715-.494.86-1.07,1.674-1.678,2.609a13.428,13.428,0,0,1,4.228.341c.38.141.757.292,1.14.423,1.344.458,2.463,1.363,3.781,1.88a8.382,8.382,0,0,0,5.832.273c.412-.134.683-.175.285-.667a13.929,13.929,0,0,1-.941-1.5c.1-.172.053-.256-.151-.237a32.043,32.043,0,0,1-1.843-2.82c.1-.172.052-.256-.151-.237-.087-.119-.178-.235-.259-.358a12.013,12.013,0,0,1-2.2-4.112c-.156-.776-.493-.976-1.191-.863a2.817,2.817,0,0,1-.592-.026c-.045-.059-.087-.056-.127,0l-.394-.114c-.526-.705-.524-1.042.008-1.688.255-.25.58-.116.872-.164.373-.061.781.169,1.123-.135a6.011,6.011,0,0,0-.015-2.488,8.024,8.024,0,0,1-1.987-.177c-.542-.734-.541-1.01,0-1.7a1.966,1.966,0,0,1,1-.153c.334-.019.694.106.992-.154.021.007.042.022.062.019a.057.057,0,0,0,.03-.045,9.769,9.769,0,0,0-.1-2.443c-.611-.115-1.255.1-1.85-.177-.672-.564-.7-.969-.136-1.708.328-.252.709-.1,1.065-.139.313-.032.653.091.928-.16.021.005.044.018.063.013a.057.057,0,0,0,.03-.046,8.231,8.231,0,0,0-.105-2.3M34.48,7.457c-.808-.008-1.616-.031-2.424-.015-.208,0-.481-.16-.636.136-.007.265-.018.531-.018.8q-.011,6.044-.02,12.089l-.1.151a4.157,4.157,0,0,1-3.06,4.369,16.656,16.656,0,0,0-6.107,3.477c-.221.17-.107.41-.109.613-.013,1.194-.018,2.388,0,3.582a3.345,3.345,0,0,0,.089,1.367c-.16.43.112.821.114,1.224,0,.612.325.634.8.648,1.362.039,2.72-.072,4.088.1A20.574,20.574,0,0,1,34.8,38.762a13.848,13.848,0,0,0,2.417,1.376A26.425,26.425,0,0,0,41.24,41.4a.957.957,0,0,1,.836,1.125,1.007,1.007,0,0,1-1.233.838A19.5,19.5,0,0,1,35.829,41.6c-1.38-.73-2.705-1.575-4.122-2.224a14.493,14.493,0,0,0-8.075-1.435,1.484,1.484,0,0,0,.124.316c1.953,2.978,3.942,5.933,5.858,8.935,1.47,2.3,3.057,4.531,4.413,6.909a5.26,5.26,0,0,1-.07,5.8c-.078.124-.308.236-.2.437s.31.125.48.131a15.509,15.509,0,0,0,3.028-.369,16.315,16.315,0,0,0,5.579-2.037A18.308,18.308,0,0,0,50.7,49.156a21.819,21.819,0,0,0,1.219-4.243.141.141,0,0,0-.007-.252,11.281,11.281,0,0,0,.078-2.672c-.209.079-.371.137-.53.2A19.212,19.212,0,0,1,46.02,43.6a1.124,1.124,0,0,1-1.341-.934A1.206,1.206,0,0,1,45.855,41.6a15.185,15.185,0,0,0,5.7-1.7c.271-.136.372-.293.317-.555A21.633,21.633,0,0,0,50.477,34.8a17.964,17.964,0,0,0-4.188-5.813l-.111-.145c-.4-.33-.795-.668-1.2-.987A16.616,16.616,0,0,0,39.782,25.1a4.127,4.127,0,0,1-3.012-2.771c-.273-1.029-.6-1.6-1.747-1.346a1.512,1.512,0,0,1-.555-.1A.485.485,0,0,1,34.2,20.6a.258.258,0,0,0-.139-.268c-.324-.59-.047-1,.411-1.349a5.67,5.67,0,0,0,2.011-.112c.017-.013.05-.029.048-.039a.52.52,0,0,0-.037-.1V16.481c.082-.078.064-.121-.047-.129a8.714,8.714,0,0,1-1.976-.12,1.088,1.088,0,0,1,0-1.9,5.523,5.523,0,0,0,2.011-.109c.017-.013.05-.029.048-.039a.517.517,0,0,0-.037-.1V11.829c.08-.077.07-.121-.046-.129a9.519,9.519,0,0,1-1.984-.121l.011-.048-.139-.1c-.609-.606-.568-1.129.137-1.751a8.958,8.958,0,0,1,1.972-.119c.1-.009.135-.045.05-.127q-.023-.929-.046-1.858a5.331,5.331,0,0,0-1.964-.115M28.614,2.123a8.5,8.5,0,0,0-.01,3.2l.145.144c.231.2.508.1.764.108,3.131.06,6.263-.106,9.393.093a.3.3,0,0,0,.339-.241c0-.036.009-.072.012-.108a7.709,7.709,0,0,0,0-3.079.182.182,0,0,0-.038-.108c-.125-.238-.35-.142-.531-.142q-4.8-.008-9.6,0c-.161,0-.359-.086-.476.119ZM11.077,44.758a2.091,2.091,0,0,0-.329.035c-.78.209-1.6.13-2.162,1.03-1.942,3.12-4,6.168-6,9.25a3.3,3.3,0,0,0-.436,2.8,3.672,3.672,0,0,0,3.834,2.6c5.8-.045,11.594-.015,17.392-.018,2.1,0,4.2-.014,6.305-.021.172.107.283-.063.423-.1a3.466,3.466,0,0,0,2.152-5.456c-1.583-2.424-3.2-4.823-4.784-7.248-.184-.283-.3-.317-.6-.2a9.111,9.111,0,0,1-2.778.646c-.085-.115-.17-.116-.257,0H22.365c-.087-.113-.173-.112-.257,0a10.13,10.13,0,0,1-3.952-1.1c-1.53-.768-2.922-1.83-4.692-2.044a16.187,16.187,0,0,0-2.131-.18c-.085-.116-.17-.117-.257,0m49.7,2.157c0-.141.025-.291-.109-.4V46.38c.134-.1.106-.255.109-.4.394-.8,1.135-.5,1.751-.517.387-.014.562-.074.523-.508a6.657,6.657,0,0,1,0-1.393c.078-.634-.119-.86-.776-.791-.55.057-1.172.15-1.5-.518,0-.139.023-.287-.11-.39v-.139c.135-.106.106-.257.108-.4.253-.605.779-.534,1.288-.53.979.008.979,0,.979-.959,0-.088.006-.177,0-.266-.034-.458.2-1.036-.094-1.342-.266-.281-.839-.057-1.276-.089-.022,0-.044,0-.066,0a1.041,1.041,0,0,1-.96-1.049c.005-.623.328-.932.993-.944.31-.006.62-.011.93,0,.339.013.483-.133.475-.473-.018-.73-.019-1.461-.028-2.191-.127-.178-.319-.122-.487-.122q-4.941,0-9.881,0c-.167,0-.361-.062-.484.125-.063.219.1.364.178.537a18.525,18.525,0,0,1,1.658,7.165l.09.137a9.232,9.232,0,0,1,0,1.737l-.09.137q-.023.729-.046,1.459l-.088.133a8.732,8.732,0,0,1-.409,2.43A20.085,20.085,0,0,1,45.3,58.911c-.751.522-1.6.877-2.309,1.459l-.1.05.1,0,2.74.007a2.375,2.375,0,0,0,.325.045q7.718,0,15.436,0c.169,0,.359.052.489-.12.933-.329,1.066-.569,1.054-2.024,0-.459.187-1.021-.083-1.348-.232-.281-.791-.059-1.2-.094-.044,0-.09,0-.133,0a1.152,1.152,0,0,1-.973-1.119,1.066,1.066,0,0,1,1.006-1.007c.458-.074,1.091.266,1.338-.17.21-.369.05-.949.051-1.436,0-.912,0-.926-.886-.909a1.925,1.925,0,0,1-.822-.153,1.039,1.039,0,0,1-.678-1.207c.085-.573.476-.73.962-.764a4.89,4.89,0,0,1,.928,0c.429.052.529-.124.5-.52a9.024,9.024,0,0,1,0-1.525c.058-.55-.165-.65-.66-.639-.58.013-1.265.231-1.616-.517" transform="translate(0 0)" fill="#12263f"/>
        <path id="Trazado_717677" data-name="Trazado 717677" d="M510.447,146.892q-.205-.133,0-.266Z" transform="translate(-442.355 -127.092)" fill="#12263f"/>
        <path id="Trazado_717678" data-name="Trazado 717678" d="M510.659,152.745c-.093-.044-.094-.089,0-.133Z" transform="translate(-442.567 -132.281)" fill="#12263f"/>
        <path id="Trazado_717682" data-name="Trazado 717682" d="M293.724,167.51c.031.1.056.229-.075.261-.2.047-.174-.118-.186-.238l.261-.023" transform="translate(-254.367 -145.194)" fill="#12263f"/>
        <path id="Trazado_717683" data-name="Trazado 717683" d="M185.723,140.886c.024-.1-.017-.236.147-.254.223.242,0,.223-.147.254" transform="translate(-160.98 -121.897)" fill="#12263f"/>
        <path id="Trazado_717684" data-name="Trazado 717684" d="M210.726,55.477c.121-.042.267-.154.278.1-.114.024-.228.048-.278-.1" transform="translate(-182.652 -48.033)" fill="#12263f"/>
        <path id="Trazado_717685" data-name="Trazado 717685" d="M56.41,328.154l-.109.137c-.024-.094.031-.124.109-.137" transform="translate(-48.795 -284.436)" fill="#12263f"/>
        <path id="Trazado_717686" data-name="Trazado 717686" d="M303.558,137.77l-.158.115c.029-.072.059-.14.158-.115" transform="translate(-262.98 -119.411)" fill="#12263f"/>
        <path id="Trazado_717687" data-name="Trazado 717687" d="M392.506,135.921l-.1-.1c.091-.021.129.009.1.1" transform="translate(-340.13 -117.718)" fill="#12263f"/>
        <path id="Trazado_717688" data-name="Trazado 717688" d="M41.446,351.1l-.109.137c-.024-.094.031-.124.109-.137" transform="translate(-35.825 -304.329)" fill="#12263f"/>
        <path id="Trazado_717689" data-name="Trazado 717689" d="M296.873,146.542l-.1.141c-.036-.1.027-.121.1-.141" transform="translate(-257.228 -127.019)" fill="#12263f"/>
        <path id="Trazado_717690" data-name="Trazado 717690" d="M288.159,156.863c-.014.016-.032.047-.042.045-.071-.017-.072-.046,0-.068.01,0,.03.027.045.042v-.018" transform="translate(-249.687 -135.945)" fill="#12263f"/>
        <path id="Trazado_717708" data-name="Trazado 717708" d="M343.318,452.665c.251-.259.556-.072.824-.073q7.713-.02,15.426,0c-.13.173-.32.12-.489.12q-7.718,0-15.436,0a2.323,2.323,0,0,1-.325-.045" transform="translate(-297.58 -392.241)" fill="#12263f"/>
        <path id="Trazado_717709" data-name="Trazado 717709" d="M382.327,235.376l12.09-.02c-.086.25-.3.136-.45.136q-5.577.011-11.155,0c-.166,0-.36.067-.485-.119" transform="translate(-331.392 -204.001)" fill="#12263f"/>
        <path id="Trazado_717710" data-name="Trazado 717710" d="M402.449,250.5l-10.852,0c.123-.187.317-.125.484-.125q4.94,0,9.881,0c.169,0,.36-.056.487.122" transform="translate(-339.427 -217.011)" fill="#12263f"/>
        <path id="Trazado_717711" data-name="Trazado 717711" d="M215.794,40.778l3.724-.042,6.77,0a.3.3,0,0,1-.338.241c-3.129-.2-6.262-.033-9.393-.093-.256,0-.533.09-.764-.108" transform="translate(-187.045 -35.309)" fill="#12263f"/>
        <path id="Trazado_717712" data-name="Trazado 717712" d="M218.631,14.984l-3.865-.025c.116-.2.315-.118.476-.119q4.8-.009,9.6,0c.181,0,.406-.1.531.142l-6.743,0" transform="translate(-186.154 -12.846)" fill="#12263f"/>
        <path id="Trazado_717713" data-name="Trazado 717713" d="M165.124,213.622q.014,2.717.028,5.434l-.047.129a3.344,3.344,0,0,1-.09-1.367c-.018-1.194-.013-2.388,0-3.582,0-.2-.112-.443.109-.613" transform="translate(-143.007 -185.163)" fill="#12263f"/>
        <path id="Trazado_717714" data-name="Trazado 717714" d="M93.082,143.829l3.457,0a11.444,11.444,0,0,1-3.457,0" transform="translate(-80.681 -124.668)" fill="#12263f"/>
        <path id="Trazado_717715" data-name="Trazado 717715" d="M213.759,15.932q-.005,1.6-.01,3.2a8.5,8.5,0,0,1,.01-3.2" transform="translate(-185.145 -13.809)" fill="#12263f"/>
        <path id="Trazado_717716" data-name="Trazado 717716" d="M150.241,117.675c-.861,0-1.721,0-2.582-.005-.208,0-.449.088-.61-.138.86,0,1.721,0,2.581.018.206,0,.446-.1.612.126" transform="translate(-127.458 -101.872)" fill="#12263f"/>
        <path id="Trazado_717717" data-name="Trazado 717717" d="M90.174,118.615q0,1.6.007,3.2a9.4,9.4,0,0,1-.007-3.2" transform="translate(-78.044 -102.813)" fill="#12263f"/>
        <path id="Trazado_717718" data-name="Trazado 717718" d="M115.309,158.6l-3.023,0c.436-.288.918-.088,1.377-.119.548-.037,1.1,0,1.651.006a.566.566,0,0,0,.007.107l-.012.009" transform="translate(-97.327 -137.336)" fill="#12263f"/>
        <path id="Trazado_717719" data-name="Trazado 717719" d="M294.666,19.916q0-1.539,0-3.079a7.71,7.71,0,0,1,0,3.079" transform="translate(-255.41 -14.594)" fill="#12263f"/>
        <path id="Trazado_717720" data-name="Trazado 717720" d="M238.894,55.724l-3.045,0c.155-.3.428-.132.636-.136.808-.016,1.616.007,2.424.015a.315.315,0,0,0-.01.093Z" transform="translate(-204.428 -48.148)" fill="#12263f"/>
        <path id="Trazado_717721" data-name="Trazado 717721" d="M94.985,117.829a8.108,8.108,0,0,1-2.935,0l2.935,0" transform="translate(-79.787 -102.131)" fill="#12263f"/>
        <path id="Trazado_717722" data-name="Trazado 717722" d="M322.481,146.574l-2.925,0a8.2,8.2,0,0,1,2.925,0" transform="translate(-276.984 -126.935)" fill="#12263f"/>
        <path id="Trazado_717723" data-name="Trazado 717723" d="M149.964,195.224q0-1.235-.007-2.47a9.759,9.759,0,0,1,.1,2.443.056.056,0,0,1-.03.045c-.019,0-.041-.012-.062-.019" transform="translate(-129.979 -167.075)" fill="#12263f"/>
        <path id="Trazado_717724" data-name="Trazado 717724" d="M149.8,161.194q-.016-1.1-.032-2.205c.008-.042.015-.083.019-.125a8.24,8.24,0,0,1,.105,2.3.058.058,0,0,1-.03.046c-.019,0-.041-.008-.062-.013" transform="translate(-129.818 -137.699)" fill="#12263f"/>
        <path id="Trazado_717725" data-name="Trazado 717725" d="M149.973,230.162q-.008-1.244-.016-2.488a6.014,6.014,0,0,1,.016,2.488" transform="translate(-129.979 -197.343)" fill="#12263f"/>
        <path id="Trazado_717726" data-name="Trazado 717726" d="M258.745,55.817a.313.313,0,0,1,.01-.093,5.332,5.332,0,0,1,1.964.114l-1.974-.022" transform="translate(-224.274 -48.267)" fill="#12263f"/>
        <path id="Trazado_717727" data-name="Trazado 717727" d="M137,158.555c0,.042-.011.084-.019.125l-1.959-.029a.555.555,0,0,1-.007-.107,11.848,11.848,0,0,1,1.985.011" transform="translate(-117.023 -137.391)" fill="#12263f"/>
        <path id="Trazado_717728" data-name="Trazado 717728" d="M455.466,314.65c-.174-.091-.108-.25-.11-.39.133.1.106.251.11.39" transform="translate(-394.683 -272.393)" fill="#12263f"/>
        <path id="Trazado_717729" data-name="Trazado 717729" d="M455.445,349.574c-.177-.093-.11-.254-.109-.4.134.105.106.255.109.4" transform="translate(-394.663 -302.659)" fill="#12263f"/>
        <path id="Trazado_717730" data-name="Trazado 717730" d="M455.338,345.562c0-.142-.067-.3.109-.4,0,.141.025.291-.109.4" transform="translate(-394.665 -299.183)" fill="#12263f"/>
        <path id="Trazado_717731" data-name="Trazado 717731" d="M185.9,325.476c-.187.008-.111-.151-.151-.237.2-.019.247.065.151.237" transform="translate(-161.006 -281.907)" fill="#12263f"/>
        <path id="Trazado_717732" data-name="Trazado 717732" d="M455.319,310.616c0-.144-.072-.305.108-.4,0,.142.027.293-.108.4" transform="translate(-394.647 -268.888)" fill="#12263f"/>
        <path id="Trazado_717733" data-name="Trazado 717733" d="M170.94,302.529c-.187.008-.111-.151-.151-.237.2-.018.247.065.151.237" transform="translate(-148.036 -262.017)" fill="#12263f"/>
        <path id="Trazado_717734" data-name="Trazado 717734" d="M492.1,154.839c.038-.093,0-.224.137-.268a.256.256,0,0,1-.137.268" transform="translate(-426.544 -133.979)" fill="#12263f"/>
        <path id="Trazado_717735" data-name="Trazado 717735" d="M179.18,360.349l-.257,0c.087-.113.172-.112.257,0" transform="translate(-155.086 -312.267)" fill="#12263f"/>
        <path id="Trazado_717736" data-name="Trazado 717736" d="M166.205,360.347l-.257,0c.084-.115.17-.116.257,0" transform="translate(-143.84 -312.268)" fill="#12263f"/>
        <path id="Trazado_717737" data-name="Trazado 717737" d="M255.785,152.9c-.138-.042-.1-.174-.139-.268a.258.258,0,0,1,.139.268" transform="translate(-221.588 -132.299)" fill="#12263f"/>
        <path id="Trazado_717738" data-name="Trazado 717738" d="M494.114,151.853c.038-.093,0-.224.137-.267a.259.259,0,0,1-.137.267" transform="translate(-428.287 -131.391)" fill="#12263f"/>
        <path id="Trazado_717739" data-name="Trazado 717739" d="M389.691,335.486l-.007-.252a.141.141,0,0,1,.007.252" transform="translate(-337.769 -290.573)" fill="#12263f"/>
        <path id="Trazado_717740" data-name="Trazado 717740" d="M83.4,335.412l-.257,0c.087-.114.173-.113.257,0" transform="translate(-72.068 -290.652)" fill="#12263f"/>
        <path id="Trazado_717741" data-name="Trazado 717741" d="M473.44,191.8q0-.129-.007-.258c.112.083.115.169.007.258" transform="translate(-410.361 -166.029)" fill="#12263f"/>
        <path id="Trazado_717742" data-name="Trazado 717742" d="M455.449,205.769q0-.13,0-.26.175.13,0,.26" transform="translate(-394.773 -178.13)" fill="#12263f"/>
        <path id="Trazado_717743" data-name="Trazado 717743" d="M273.827,140.752l.011-.14a.521.521,0,0,1,.037.1c0,.01-.031.026-.048.039" transform="translate(-237.347 -121.879)" fill="#12263f"/>
        <path id="Trazado_717744" data-name="Trazado 717744" d="M405.474,323.251c.037.09-.03.111-.09.137l.09-.137" transform="translate(-351.377 -280.187)" fill="#12263f"/>
        <path id="Trazado_717745" data-name="Trazado 717745" d="M386.538,146.666c-.028.065-.059.124-.147.093l.147-.093" transform="translate(-334.915 -127.127)" fill="#12263f"/>
        <path id="Trazado_717746" data-name="Trazado 717746" d="M419.452,147.045l-.136.007c.042-.07.087-.079.136-.007" transform="translate(-363.453 -127.411)" fill="#12263f"/>
        <path id="Trazado_717747" data-name="Trazado 717747" d="M405.383,309.185c.06.025.127.047.09.136l-.09-.136" transform="translate(-351.377 -267.994)" fill="#12263f"/>
        <path id="Trazado_717748" data-name="Trazado 717748" d="M404.466,335.227c.032.085-.031.107-.088.133l.088-.133" transform="translate(-350.505 -290.567)" fill="#12263f"/>
        <path id="Trazado_717749" data-name="Trazado 717749" d="M346.71,216.618c-.075-.019-.132-.052-.111-.145l.111.145" transform="translate(-300.421 -187.634)" fill="#12263f"/>
        <path id="Trazado_717750" data-name="Trazado 717750" d="M138.129,261.8l-.063.017-.064-.012c.04-.06.082-.064.127,0" transform="translate(-119.617 -226.888)" fill="#12263f"/>
        <path id="Trazado_717751" data-name="Trazado 717751" d="M273.606,122.869l-.047-.128c.111.008.129.05.047.128" transform="translate(-237.115 -106.389)" fill="#12263f"/>
        <path id="Trazado_717752" data-name="Trazado 717752" d="M168.9,143.815l.135,0c-.043.066-.088.072-.135,0" transform="translate(-146.399 -124.652)" fill="#12263f"/>
        <path id="Trazado_717753" data-name="Trazado 717753" d="M414.653,144.793c-.067-.016-.133-.033-.092-.128l.092.128" transform="translate(-359.321 -125.392)" fill="#12263f"/>
        <path id="Trazado_717754" data-name="Trazado 717754" d="M273.827,105.833l.011-.14a.521.521,0,0,1,.037.1c0,.01-.031.026-.048.039" transform="translate(-237.347 -91.612)" fill="#12263f"/>
        <path id="Trazado_717755" data-name="Trazado 717755" d="M273.614,87.946l-.046-.129c.115.008.126.052.046.129" transform="translate(-237.122 -76.118)" fill="#12263f"/>
        <path id="Trazado_717756" data-name="Trazado 717756" d="M257.847,85.875c-.091.024-.125-.026-.139-.1l.139.1" transform="translate(-223.375 -74.344)" fill="#12263f"/>
        <path id="Trazado_717757" data-name="Trazado 717757" d="M273.54,70.9l.05-.127c.085.082.052.118-.05.127" transform="translate(-237.098 -61.347)" fill="#12263f"/>
        <path id="Trazado_717758" data-name="Trazado 717758" d="M493.12,153.712a.134.134,0,0,1,.135-.135l-.135.135" transform="translate(-427.425 -133.117)" fill="#12263f"/>
        <path id="Trazado_717759" data-name="Trazado 717759" d="M234.919,153.6c.033.094-.028.126-.1.151l.1-.151" transform="translate(-203.537 -133.137)" fill="#12263f"/>
        <path id="Trazado_717760" data-name="Trazado 717760" d="M322.105,453.148l0,.048-.1,0,.1-.05" transform="translate(-279.111 -392.778)" fill="#12263f"/>
        <path id="Trazado_717761" data-name="Trazado 717761" d="M114.859,370.723c.262,1.741-1.6,3.543-3.535,3.5a3.59,3.59,0,0,1-3.393-3.523,3.539,3.539,0,0,1,3.472-3.511,3.379,3.379,0,0,1,3.455,3.535m-1.99-.015a1.472,1.472,0,0,0-1.538-1.535,1.52,1.52,0,0,0-1.393,1.525,1.5,1.5,0,0,0,1.378,1.527c.794-.022,1.708-.6,1.552-1.517" transform="translate(-93.553 -318.27)" fill="#12263f"/>
        <path id="Trazado_717762" data-name="Trazado 717762" d="M80.1,402.027c.7-.007,1.006.289,1.012.981a1.006,1.006,0,0,1-.976,1.012,1.336,1.336,0,0,1-1.019-1.059,1.046,1.046,0,0,1,.983-.934" transform="translate(-68.579 -348.468)" fill="#12263f"/>
        <path id="Trazado_717763" data-name="Trazado 717763" d="M397.005,384.824a2.591,2.591,0,0,1,2.65,2.608,2.677,2.677,0,0,1-2.727,2.672,2.709,2.709,0,0,1-2.605-2.721c-.029-1.293,1.351-2.862,2.682-2.559m.655,2.51c-.014-.279-.172-.484-.591-.523a.58.58,0,0,0-.722.555.65.65,0,0,0,.644.739.691.691,0,0,0,.669-.771" transform="translate(-341.79 -333.523)" fill="#12263f"/>
        <path id="Trazado_717764" data-name="Trazado 717764" d="M240.159,330.466a3.694,3.694,0,0,1-3.523-3.691,3.476,3.476,0,0,1,3.469-3.32c2.293.084,3.45,1.234,3.523,3.5a3.546,3.546,0,0,1-3.468,3.51m-.01-1.993a1.624,1.624,0,0,0,1.555-1.535,1.524,1.524,0,0,0-3.047-.031,1.545,1.545,0,0,0,1.492,1.566" transform="translate(-205.11 -280.362)" fill="#12263f"/>
        <path id="Trazado_717765" data-name="Trazado 717765" d="M300.187,361.372a2.6,2.6,0,0,1-2.569-2.717c.013-1.605,1.066-2.517,2.928-2.465a2.491,2.491,0,0,1,2.368,2.549,2.6,2.6,0,0,1-2.728,2.634m.1-3.193c-.436-.051-.666.168-.66.549.005.333.139.647.572.646.4,0,.71-.2.716-.594.005-.357-.165-.692-.627-.6" transform="translate(-257.969 -308.735)" fill="#12263f"/>
        <path id="Trazado_717766" data-name="Trazado 717766" d="M281.69,399.037c-.627.129-.964-.575-1-1.037a.994.994,0,0,1,1.987,0,.963.963,0,0,1-.99,1.039" transform="translate(-243.296 -344.151)" fill="#12263f"/>
      </g>
    </g>
  </g>
</svg>
