<svg id="Grupo_1006769" data-name="Grupo 1006769" xmlns="http://www.w3.org/2000/svg" xmlns:xlink="http://www.w3.org/1999/xlink" width="83" height="66.935" viewBox="0 0 83 66.935">
  <defs>
    <clipPath id="clip-path">
      <path id="Trazado_718011" data-name="Trazado 718011" d="M0,0H83V66.935H0Z" fill="#d8effd"/>
    </clipPath>
  </defs>
  <g id="Enmascarar_grupo_998601" data-name="Enmascarar grupo 998601" clip-path="url(#clip-path)">
    <path id="Trazado_717999" data-name="Trazado 717999" d="M41.5,66.936H5.273C1.868,66.935,0,65.067,0,61.662q0-28.2,0-56.39C0,1.867,1.866,0,5.272,0H77.726C81.132,0,83,1.867,83,5.272q0,28.195,0,56.39c0,3.4-1.872,5.274-5.273,5.274H41.5M80.286,10.769H2.744V53.5H80.286ZM2.677,56.266c0,1.788,0,3.536,0,5.285,0,2.061.641,2.708,2.684,2.708H63.828q7.11,0,14.22,0a2.048,2.048,0,0,0,2.273-2.278c.01-1.255,0-2.509,0-3.764V56.266ZM2.684,7.973H80.323c0-.894,0-1.728,0-2.562,0-2.105-.63-2.733-2.742-2.733H5.4c-.251,0-.5-.009-.753.007A1.976,1.976,0,0,0,2.694,4.6c-.044,1.109-.01,2.221-.01,3.376" transform="translate(0 -0.001)" fill="#d8effd"/>
    <path id="Trazado_718000" data-name="Trazado 718000" d="M93.911,106.962H16.37V64.227H93.911Zm-38.747-5.317A14.722,14.722,0,1,0,40.4,86.859a14.74,14.74,0,0,0,14.762,14.786" transform="translate(-13.625 -53.458)" fill="#d2f0ff"/>
    <path id="Trazado_718001" data-name="Trazado 718001" d="M15.965,335.583H93.611v1.948c0,1.255.008,2.509,0,3.764a2.048,2.048,0,0,1-2.273,2.278q-7.11.012-14.219,0H18.649c-2.043,0-2.683-.647-2.684-2.708,0-1.749,0-3.5,0-5.285M32.09,340.9H85.078c1.2,0,1.835-.467,1.831-1.343s-.629-1.33-1.839-1.333H32.08c-.174-.762-.559-1.324-1.39-1.324s-1.207.573-1.385,1.278a1.324,1.324,0,0,1-.205.039c-1.589,0-3.179,0-4.769.009-1.055.005-1.666.5-1.664,1.339s.613,1.331,1.669,1.335c1.644.006,3.288,0,4.966,0,.175.767.565,1.324,1.395,1.323s1.2-.579,1.394-1.323" transform="translate(-13.288 -279.317)" fill="#5597c3"/>
    <path id="Trazado_718002" data-name="Trazado 718002" d="M15.943,21.249c0-1.155-.035-2.267.01-3.376a1.976,1.976,0,0,1,1.95-1.912c.25-.016.5-.007.752-.007H90.841c2.112,0,2.741.628,2.742,2.733,0,.834,0,1.668,0,2.562Zm3.288-1.291v.011c.2,0,.39.007.585,0a1.341,1.341,0,1,0,.019-2.671,10.216,10.216,0,0,0-1.337.013,1.327,1.327,0,0,0-.018,2.642,4.714,4.714,0,0,0,.751.006m5.387.011c.167,0,.335,0,.5,0,.926-.028,1.507-.533,1.519-1.319a1.356,1.356,0,0,0-1.48-1.355c-.306-.01-.613-.006-.92,0-1,.016-1.589.5-1.6,1.317s.588,1.335,1.563,1.358c.139,0,.279,0,.418,0m5.406-2.675c-.2,0-.39-.007-.585,0a1.341,1.341,0,1,0,.02,2.672c.362.013.725.014,1.087,0a1.341,1.341,0,1,0-.019-2.672c-.167-.007-.334,0-.5,0" transform="translate(-13.26 -13.277)" fill="#5597c3"/>
    <path id="Trazado_718003" data-name="Trazado 718003" d="M174.468,141.232a14.722,14.722,0,1,1,14.685-14.781,14.729,14.729,0,0,1-14.685,14.781m-12.086-14.739a12.047,12.047,0,1,0,12.19-12.029,12.066,12.066,0,0,0-12.19,12.029" transform="translate(-132.929 -93.045)" fill="#e7ecf1"/>
    <path id="Trazado_718004" data-name="Trazado 718004" d="M65.357,347.419c-.192.744-.565,1.322-1.394,1.323s-1.22-.556-1.395-1.323c-1.678,0-3.322,0-4.966,0-1.056,0-1.668-.5-1.669-1.335s.609-1.333,1.664-1.338c1.589-.008,3.179-.005,4.769-.009a1.324,1.324,0,0,0,.205-.039c.179-.705.553-1.278,1.385-1.278s1.217.562,1.39,1.324h52.99c1.211,0,1.836.457,1.839,1.333s-.629,1.343-1.831,1.343H65.357" transform="translate(-46.554 -285.838)" fill="#e7ecf1"/>
    <path id="Trazado_718005" data-name="Trazado 718005" d="M25.958,26.565a4.717,4.717,0,0,1-.751-.006,1.327,1.327,0,0,1,.019-2.641,10.245,10.245,0,0,1,1.337-.013,1.341,1.341,0,1,1-.019,2.671c-.195.008-.39,0-.585,0v-.011" transform="translate(-19.986 -19.883)" fill="#e7ecf1"/>
    <path id="Trazado_718006" data-name="Trazado 718006" d="M57.912,26.609c-.139,0-.279,0-.418,0-.975-.023-1.575-.545-1.563-1.358s.6-1.3,1.6-1.317c.307-.005.613-.009.92,0a1.356,1.356,0,0,1,1.48,1.355c-.012.785-.593,1.291-1.519,1.319-.167.005-.334,0-.5,0" transform="translate(-46.553 -19.917)" fill="#e7ecf1"/>
    <path id="Trazado_718007" data-name="Trazado 718007" d="M89.9,23.946c.167,0,.335-.006.5,0a1.341,1.341,0,1,1,.019,2.672c-.362.014-.725.013-1.087,0a1.341,1.341,0,1,1-.02-2.671c.195-.008.39,0,.585,0" transform="translate(-73.135 -19.929)" fill="#e7ecf1"/>
    <path id="Trazado_718008" data-name="Trazado 718008" d="M175.667,139.781a12.047,12.047,0,1,1,12.069,12.067,12.06,12.06,0,0,1-12.069-12.067m8.031.006c0,1.672-.053,3.347.032,5.015a2.353,2.353,0,0,0,.684,1.478c.52.476,1.141.142,1.679-.217,2.453-1.642,4.917-3.269,7.368-4.913,1.27-.852,1.279-1.839.023-2.683-2.473-1.662-4.96-3.3-7.436-4.962a1.458,1.458,0,0,0-1.634-.222,1.492,1.492,0,0,0-.72,1.488c.013,1.672,0,3.345,0,5.017" transform="translate(-146.213 -106.332)" fill="#3a99c7"/>
    <path id="Trazado_718009" data-name="Trazado 718009" d="M223.484,166.411c0-1.672.008-3.345,0-5.017a1.492,1.492,0,0,1,.72-1.488,1.458,1.458,0,0,1,1.634.222c2.476,1.657,4.963,3.3,7.436,4.962,1.256.844,1.247,1.831-.023,2.683-2.451,1.644-4.915,3.271-7.368,4.913-.537.36-1.159.693-1.679.217a2.353,2.353,0,0,1-.684-1.478c-.084-1.668-.032-3.343-.032-5.015m6.957.012-4.223-2.812v5.629l4.223-2.817" transform="translate(-186 -132.957)" fill="#e7ecf1"/>
    <path id="Trazado_718010" data-name="Trazado 718010" d="M244.095,185.642l-4.223,2.817V182.83l4.223,2.812" transform="translate(-199.654 -152.176)" fill="#009ccc"/>
  </g>
</svg>
