<svg id="Grupo_1008693" data-name="Grupo 1008693" xmlns="http://www.w3.org/2000/svg" xmlns:xlink="http://www.w3.org/1999/xlink" width="149.848" height="150.732" viewBox="0 0 149.848 150.732">
  <defs>
    <clipPath id="clip-path">
      <rect id="Rectángulo_44555" data-name="Rectángulo 44555" width="149.847" height="150.733" fill="none"/>
    </clipPath>
  </defs>
  <path id="Trazado_195793" data-name="Trazado 195793" d="M346.056,582.646,343,587.083h3.059Z" transform="translate(-270.383 -459.296)" fill="#ef4136"/>
  <path id="Trazado_195794" data-name="Trazado 195794" d="M140.738,358.085l.486.486L75.046,424.748,8.868,358.571l.485-.485H0l74.923,74.924,74.924-74.924Z" transform="translate(0 -282.276)" fill="#ef4136"/>
  <g id="Grupo_562291" data-name="Grupo 562291" transform="translate(0)">
    <g id="Grupo_562290" data-name="Grupo 562290" clip-path="url(#clip-path)">
      <path id="Trazado_195795" data-name="Trazado 195795" d="M55.662,358.571l63.262,63.262,63.263-63.261-.486-.486H56.147l-.485.485m58.444,51.5,5.772-8.288h2.144v8.279h1.664v2.2h-1.664V414.9h-2.47v-2.633h-5.445Z" transform="translate(-43.878 -282.276)" fill="#ef4136"/>
      <path id="Trazado_195796" data-name="Trazado 195796" d="M271.172,112.592l1.706,3.008,3.346,2.319,4.227,1.547,3.093.275,3.334.1-3.334-.619-2.4-1.341-2.348-2.542-1.787-3.953,1.581,1.169,1.565.42,3.11.33-1.29-1.9-1.187-1.051-.344-2.028-.036-3.691.654,1.87,1,1.34,1.375.928,1.684.722-.4-2.7-.033-1.911,1.388-2.639,1.151-3.592-.276-2.026,1.7,1.75,1.612,2.441.725,3.451-.389,4.9,2.593-1.486,1.926-1.341.677-1.81.04,3.659-.821,2.516-1.375,1.787-1.478.928,2.131-.034,2.1-.378,1.925-1.237-2.062,3.884-2.577,2.44-1.906,1.029-1.253.774,2.815-.016,2.269-.571,2.7-1.319,2.548-1.768,2-3.456,1.34-4.262.241-5.98-.447,2.131-1.684,1.306-2.784.721,1.748-2.632.864-1.973.722-3.231-.378-2.268-.928-3.265-1.684,2.681-1.284,1.921-2.182.992,1.266-3.223.385-3.755-.728-3.188-1.447-3.5-.4,4.154-1.255,2.894-.916,1.537-1.237.275.414-2.68-.448-2.441-2.2-4.811-2.165-4.812L286.4,74.993l-.928,2.372-.414,2.161-.017,4.91-.063,3.807-.5,2.353-1.134,2.578-1.173-2.4-.507-2.717-.737-1.934-1.364-.993-2.028-.894,1,2.853-.481,2.234-.378,2.337L277.7,95l.825,2.268-1.718-1.031L275.09,94.24l-2.227-3.325.475,3.943-.413,2.543.378,3.4.893,1.9,1.615,2.735-2.921-.412-1.87-1.5-1.013-1.428-1.826-1.44.481,2.577Z" transform="translate(-211.406 -59.117)"/>
      <rect id="Rectángulo_44540" data-name="Rectángulo 44540" width="30.185" height="3.704" transform="translate(59.843 63.374)"/>
      <path id="Trazado_195797" data-name="Trazado 195797" d="M108.067,180.146l66.179-66.177-.486-.486L108.067,47.792,42.375,113.483l-.485.485Zm0-129.439,62.777,62.776.486.486-63.263,63.261L44.806,113.969l.485-.485,62.776-62.776" transform="translate(-33.022 -37.674)"/>
      <path id="Trazado_195798" data-name="Trazado 195798" d="M337.169,577.607h2.47v-2.633H341.3v-2.2H339.64V564.5H337.5l-5.772,8.288v2.19h5.445Zm-3.059-4.832,3.059-4.437v4.437Z" transform="translate(-261.496 -444.988)"/>
      <rect id="Rectángulo_44541" data-name="Rectángulo 44541" width="9.587" height="1.707" transform="matrix(0.707, -0.707, 0.707, 0.707, 1.116, 73.155)"/>
      <rect id="Rectángulo_44542" data-name="Rectángulo 44542" width="9.587" height="1.707" transform="translate(11.667 62.604) rotate(-45.001)"/>
      <rect id="Rectángulo_44543" data-name="Rectángulo 44543" width="9.587" height="1.707" transform="matrix(0.707, -0.707, 0.707, 0.707, 22.367, 51.904)"/>
      <rect id="Rectángulo_44544" data-name="Rectángulo 44544" width="9.587" height="1.707" transform="translate(33.067 41.204) rotate(-45.002)"/>
      <rect id="Rectángulo_44545" data-name="Rectángulo 44545" width="9.587" height="1.708" transform="translate(43.767 30.504) rotate(-45)"/>
      <rect id="Rectángulo_44546" data-name="Rectángulo 44546" width="9.587" height="1.707" transform="translate(54.292 19.98) rotate(-45.001)"/>
      <rect id="Rectángulo_44547" data-name="Rectángulo 44547" width="1.707" height="9.587" transform="matrix(0.707, -0.707, 0.707, 0.707, 75.215, 1.208)"/>
      <rect id="Rectángulo_44548" data-name="Rectángulo 44548" width="1.707" height="9.587" transform="matrix(0.707, -0.707, 0.707, 0.707, 85.864, 11.857)"/>
      <rect id="Rectángulo_44549" data-name="Rectángulo 44549" width="1.707" height="9.587" transform="translate(96.513 22.505) rotate(-45)"/>
      <rect id="Rectángulo_44550" data-name="Rectángulo 44550" width="1.707" height="9.587" transform="matrix(0.707, -0.707, 0.707, 0.707, 107.162, 33.155)"/>
      <rect id="Rectángulo_44551" data-name="Rectángulo 44551" width="1.707" height="9.588" transform="matrix(0.707, -0.707, 0.707, 0.707, 117.811, 43.804)"/>
      <rect id="Rectángulo_44552" data-name="Rectángulo 44552" width="1.707" height="9.587" transform="matrix(0.707, -0.707, 0.707, 0.707, 128.46, 54.453)"/>
      <rect id="Rectángulo_44553" data-name="Rectángulo 44553" width="1.707" height="9.587" transform="matrix(0.707, -0.707, 0.707, 0.707, 139.109, 65.102)"/>
      <rect id="Rectángulo_44554" data-name="Rectángulo 44554" width="9.587" height="1.707" transform="translate(65.009 9.263) rotate(-45.001)"/>
    </g>
  </g>
</svg>
