<svg id="Grupo_1008686" data-name="Grupo 1008686" xmlns="http://www.w3.org/2000/svg" xmlns:xlink="http://www.w3.org/1999/xlink" width="141.485" height="141.484" viewBox="0 0 141.485 141.484">
  <defs>
    <clipPath id="clip-path">
      <rect id="Rect치ngulo_44501" data-name="Rect치ngulo 44501" width="141.485" height="141.484" fill="none"/>
    </clipPath>
  </defs>
  <g id="Grupo_562278" data-name="Grupo 562278" clip-path="url(#clip-path)">
    <path id="Trazado_195689" data-name="Trazado 195689" d="M344.53,577.448h-8.817a5.984,5.984,0,0,1,.6-2.531,10.333,10.333,0,0,1,3.009-3.393c1.163-.837,2.073-1.694,2.073-2.976a1.283,1.283,0,0,0-1.223-1.245c-1.27,0-1.371,1.278-1.371,2.561h-2.942c0-2.645,1.593-5.359,4.189-5.359a4.557,4.557,0,0,1,3.248,1.132,3.914,3.914,0,0,1,1.207,3,3.186,3.186,0,0,1-.852,2.539,8.544,8.544,0,0,1-1.836,1.646,9.06,9.06,0,0,0-1.783,1.512h4.5Z" transform="translate(-269.379 -452.965)" fill="#3eb134"/>
    <path id="Trazado_195690" data-name="Trazado 195690" d="M273.827,176.086v0a1.891,1.891,0,0,0,1.981.663l6.84-1.836a1.833,1.833,0,0,1,.927,3.452l-6.842,1.836a1.89,1.89,0,0,0-1.38,1.549v0a3.047,3.047,0,0,1-1.887,2.763l-32.3,8.67c-1.652.443-3.584-1.4-4.315-4.124s.018-5.287,1.67-5.73l32.3-8.67a3.041,3.041,0,0,1,3.006,1.432" transform="translate(-189.827 -140.091)" fill="#3eb134"/>
    <rect id="Rect치ngulo_44500" data-name="Rect치ngulo 44500" width="100.045" height="100.045" transform="translate(0 70.742) rotate(-45)" fill="#00b25a"/>
    <path id="Trazado_195691" data-name="Trazado 195691" d="M223.113,189.054c.73,2.722,2.662,4.568,4.315,4.124l32.3-8.67a3.047,3.047,0,0,0,1.886-2.763v0A1.889,1.889,0,0,1,263,180.2l6.842-1.836a1.833,1.833,0,0,0-.927-3.452l-6.84,1.836a1.891,1.891,0,0,1-1.981-.663v0a3.041,3.041,0,0,0-3.006-1.432l-32.3,8.67c-1.652.444-2.4,3.009-1.67,5.73" transform="translate(-178.804 -140.091)" fill="#fff"/>
    <path id="Trazado_195692" data-name="Trazado 195692" d="M342.271,572.819a8.554,8.554,0,0,0,1.837-1.646,3.187,3.187,0,0,0,.852-2.539,3.915,3.915,0,0,0-1.207-3,4.558,4.558,0,0,0-3.248-1.132c-2.6,0-4.189,2.714-4.189,5.359h2.942c0-1.283.1-2.561,1.371-2.561a1.283,1.283,0,0,1,1.223,1.245c0,1.282-.91,2.139-2.073,2.976a10.327,10.327,0,0,0-3.009,3.393,5.983,5.983,0,0,0-.6,2.531h8.817V574.33h-4.5a9.064,9.064,0,0,1,1.783-1.512" transform="translate(-269.743 -452.965)" fill="#fff"/>
    <path id="Trazado_195693" data-name="Trazado 195693" d="M102.922,171.467l62.82-62.815-62.82-62.811L40.106,108.653Zm0-122.831c1.352,1.35,58.676,58.668,60.026,60.017-1.35,1.35-58.673,58.671-60.026,60.02L42.9,108.653c1.35-1.348,58.671-58.667,60.021-60.017" transform="translate(-32.181 -36.784)" fill="#fff"/>
  </g>
</svg>
