<svg id="Grupo_1008695" data-name="Grupo 1008695" xmlns="http://www.w3.org/2000/svg" xmlns:xlink="http://www.w3.org/1999/xlink" width="133.891" height="133.891" viewBox="0 0 133.891 133.891">
  <defs>
    <clipPath id="clip-path">
      <rect id="Rect치ngulo_44539" data-name="Rect치ngulo 44539" width="133.891" height="133.89" fill="none"/>
    </clipPath>
  </defs>
  <path id="Trazado_195787" data-name="Trazado 195787" d="M358.746,565.091V561.3l-2.812,3.789Z" transform="translate(-289.934 -457.222)" fill="#009fdb"/>
  <path id="Trazado_195788" data-name="Trazado 195788" d="M7.421,66.945,66.945,7.421,126.47,66.945,66.945,126.47ZM66.945,0,0,66.945,66.945,133.89l66.946-66.945Z" transform="translate(0)" fill="#009fdb"/>
  <g id="Grupo_562288" data-name="Grupo 562288" transform="translate(0)">
    <g id="Grupo_562287" data-name="Grupo 562287" clip-path="url(#clip-path)">
      <path id="Trazado_195789" data-name="Trazado 195789" d="M54.164,111.064l56.9,56.9,56.9-56.9-56.9-56.9-56.9,56.9m62.57,42.8H115.2v2.248h-2.271v-2.248h-5.007V152l5.307-7.077H115.2v7.069h1.53Zm8-48.943H98.867v-2.707h25.87ZM114.1,67.936l1.947,4.271.285,2.244-.408,2.244,1.1-.2.847-1.271,1.112-2.564.358-3.559,1.437,3.273.49,2.53L121,78.34l-1.013,2.5,1.933-.879,1.318-1.609,1.244-2.418.823,2.89L125.658,81l-.74,3.072-.8,1.567-1.488,2.2,2.656-.77,1.461-1.009.422-1.944L126.8,89.6l-1.168,3.825-1.886,3-2.258,1.567-2.39,1.169-2.284.4h-2.1l.988-.565,1.645-1.037,2.367-1.918,1.877-3.305-2.052.762-1.559.3-1.723-.015,1.131-.844,1.183-1.306.734-2.326-.082-3.142-.49,1.673-1.265,1.1-2.7,1.383.212-4.648-.612-2.9-1.428-2.162-1.51-1.55.245,1.8-1.02,3.183-1.231,2.338.029,1.694.379,2.2-1.831-.605-1.428-1.918-.939-1.591-.091,3.11.231,1.4,1.248,1.49,1.142,1.591-2.755-.293-1.372-.482-1.1-.817,1.037,3.509,2.306,2.227,2.278,1.11,2.8.511-5.971-.38-3.781-.979-2.657-2.285-1.606-2.448L95.05,84.744l-.508-2.254,1.877,1.428.9,1.265,1.237,1.152,2.8.4-1.226-2.282-.936-1.921-.327-2.816.367-2.326L98.949,74l1.836,2.978,1.374,1.412,1.564.954-.632-2.09.029-2.584.277-2.222.449-2.122-.775-2.081,1.644.349,1.375,1.161.653,1.714.449,2.408.979,1.958.98-2.163.531-2.04.055-3.373.015-4.35.256-1.906.956-2.269.962,3.493Z" transform="translate(-44.121 -44.119)" fill="#009fdb"/>
      <path id="Trazado_195790" data-name="Trazado 195790" d="M287.387,86.5l-.256,1.906-.015,4.35-.055,3.374-.53,2.04-.979,2.163-.979-1.959-.449-2.408-.653-1.714-1.375-1.161-1.644-.349.775,2.081-.449,2.122-.277,2.222-.029,2.584.632,2.09-1.563-.954-1.374-1.412-1.836-2.979.285,3.387-.367,2.326.327,2.816.936,1.921,1.226,2.282-2.8-.4-1.237-1.152-.9-1.265-1.877-1.428.508,2.254,2.307,8.682,1.606,2.448L279,122.65l3.781.979,5.971.379-2.8-.511-2.278-1.11-2.306-2.227-1.037-3.509,1.1.817,1.372.482,2.756.293-1.142-1.591-1.248-1.49-.231-1.4.091-3.11.939,1.591,1.428,1.918,1.831.605-.379-2.2-.029-1.694,1.23-2.338,1.02-3.183-.245-1.8,1.51,1.551,1.428,2.162.612,2.9-.212,4.648,2.7-1.383,1.265-1.1.49-1.673.082,3.142-.734,2.326-1.183,1.306-1.131.844,1.723.015,1.559-.3,2.052-.762-1.877,3.305-2.367,1.918-1.645,1.037-.988.565h2.1l2.284-.4,2.39-1.169,2.258-1.567,1.886-3,1.168-3.825.369-5.477-.422,1.944-1.461,1.009-2.656.77,1.487-2.2.8-1.567.74-3.072-.351-2.177-.823-2.89-1.244,2.418-1.318,1.609-1.933.879,1.013-2.5.266-3.441-.49-2.53-1.437-3.273-.358,3.559-1.112,2.564-.847,1.271-1.1.2.408-2.244-.285-2.244-1.947-4.271L289.3,87.722l-.962-3.493Z" transform="translate(-221.501 -68.61)" fill="#fff"/>
      <rect id="Rect치ngulo_44538" data-name="Rect치ngulo 44538" width="25.87" height="2.707" transform="translate(54.746 58.096)" fill="#fff"/>
      <path id="Trazado_195791" data-name="Trazado 195791" d="M40.021,99.545,99.545,159.07,159.07,99.545,99.545,40.021Zm59.524,56.9-56.9-56.9,56.9-56.9,56.9,56.9-56.9,56.9" transform="translate(-32.6 -32.6)" fill="#fff"/>
      <path id="Trazado_195792" data-name="Trazado 195792" d="M351.378,543.609h-1.971l-5.307,7.077v1.87h5.007V554.8h2.272v-2.248h1.53v-1.877h-1.53Zm-2.272,7.069h-2.812l2.812-3.789Z" transform="translate(-280.295 -442.81)" fill="#fff"/>
    </g>
  </g>
</svg>
