<svg id="Grupo_1008690" data-name="Grupo 1008690" xmlns="http://www.w3.org/2000/svg" xmlns:xlink="http://www.w3.org/1999/xlink" width="136.292" height="136.288" viewBox="0 0 136.292 136.288">
  <defs>
    <clipPath id="clip-path">
      <rect id="Rect치ngulo_44528" data-name="Rect치ngulo 44528" width="136.292" height="136.288" fill="none"/>
    </clipPath>
  </defs>
  <g id="Grupo_562282" data-name="Grupo 562282" clip-path="url(#clip-path)">
    <path id="Trazado_195728" data-name="Trazado 195728" d="M0,68.144l68.145,68.144,68.147-68.144L68.145,0,0,68.144m128.64,0-60.5,60.493L7.651,68.144,68.145,7.652Z" transform="translate(0 -0.001)" fill="#ef4136"/>
    <path id="Trazado_195729" data-name="Trazado 195729" d="M319.039,230.7l1.968,1.173,5.59.975,3.211-1.546,2.141-2.069,1.712-2.974-2.8,1.355-2.458-.141c3.212-2.781,3.211-4.63,3.211-6.946l-1.451,1.451-3.536,1.958a34.865,34.865,0,0,0,.539-4.86c0-1.9-.833-3.925-2.908-6.157.592,1.453-1.826,4.849-1.826,6.894a19.645,19.645,0,0,0,.462,4.1c-2.62-1.077-3.571-1.83-4.791-3.714l-.018,2.315,1.278,2.671,1.832,2.45-4.115-.571-1.417-1.266,1.185,2.709Z" transform="translate(-255.598 -172.405)" fill="#ef4136"/>
    <path id="Trazado_195730" data-name="Trazado 195730" d="M112.155,169.952l57.8-57.8-57.8-57.8-57.8,57.8,57.8,57.8m2.5-8.28a4.438,4.438,0,0,1-3.276,1.109q-2.674,0-3.715-1.59a4.386,4.386,0,0,1-.608-2.215h2.426a2.382,2.382,0,0,0,.244,1.142,1.706,1.706,0,0,0,1.646.833,1.917,1.917,0,0,0,1.276-.459,1.632,1.632,0,0,0,.545-1.321,1.484,1.484,0,0,0-1-1.525,5.519,5.519,0,0,0-1.8-.215v-1.617a5.046,5.046,0,0,0,1.676-.214,1.31,1.31,0,0,0,.821-1.348,1.434,1.434,0,0,0-.42-1.07,1.615,1.615,0,0,0-1.182-.413,1.562,1.562,0,0,0-1.286.505,2,2,0,0,0-.394,1.35H107.3A5.182,5.182,0,0,1,107.62,153a3.656,3.656,0,0,1,.954-1.24,3.414,3.414,0,0,1,1.154-.615,5.458,5.458,0,0,1,1.64-.213,4.648,4.648,0,0,1,2.911.851,2.732,2.732,0,0,1,1.107,2.283,2.4,2.4,0,0,1-.657,1.708,2.245,2.245,0,0,1-.865.594,1.814,1.814,0,0,1,.964.533,2.738,2.738,0,0,1,.939,2.195,3.535,3.535,0,0,1-1.107,2.573m11.932-51.013H99.01v-3.848h27.582ZM97.182,88.892,99.5,91.023l1.969.211-1.294-1.687-.687-2.091L99,84.313l.458-2.534-.4-3.77,2.183,1.954,1.45,2.274,1.255.84L103.4,81.6V79.508l.351-2.69.422-2.5-.476-2.539,2.181,1.115.9.861.844,2.057.317,1.758.932,1.881,1-2.3.65-5.1-.053-3.938.387-2.092,1.284-3.393,1.141,5.134,3.834,8.367.44,2.426-.3,2.057,1.564-.826.932-3.006.317-4.94,2.221,4.385.329,3.474v3.288l-.844,2.092,1.319-.844,1.23-1.617,1.617-2.76,1.055,2.918.457,3.165-1.6,4.654-1.09,1.412,1.635-.176,1.688-1.143L129,83.868l.105,4.184-.5,6.715L127.4,98.6l-2.092,2.866-2.179,1.482-2.6,1.366-5.608.475-4.131-.194-4.483-.334-3.938-1.178-3.32-2.15-1.618-2.61-.946-3.953L94.788,87.56l-.246-1.583Z" transform="translate(-44.009 -44.006)" fill="#ef4136"/>
    <path id="Trazado_195731" data-name="Trazado 195731" d="M267.5,129.619l.946,3.953,1.618,2.61,3.321,2.15,3.938,1.178,4.483.334,4.131.194,5.608-.475,2.6-1.366,2.179-1.482,2.092-2.866,1.207-3.833.5-6.715-.106-4.184-.914,6.821-1.688,1.143-1.635.176,1.09-1.412,1.6-4.653-.457-3.164-1.055-2.918-1.617,2.76-1.231,1.617-1.319.844.844-2.092V114.95l-.329-3.473-2.221-4.385-.317,4.94-.932,3.006-1.565.826.3-2.057-.44-2.426-3.834-8.367-1.141-5.134-1.284,3.393-.387,2.092.053,3.938-.65,5.1-1,2.3-.932-1.881-.316-1.758-.844-2.057-.9-.861-2.181-1.115.476,2.539-.422,2.5-.351,2.69v2.092l.545,1.476-1.255-.84-1.45-2.274-2.183-1.953.4,3.77-.458,2.534.488,3.144.687,2.091,1.294,1.687-1.969-.211L268.2,124.14l-2.64-2.915.246,1.583Zm9.013,4.3,4.115.571-1.832-2.45-1.278-2.671.018-2.315c1.22,1.884,2.171,2.638,4.791,3.714a19.633,19.633,0,0,1-.463-4.1c0-2.045,2.418-5.441,1.826-6.895,2.075,2.232,2.908,4.255,2.908,6.157a34.867,34.867,0,0,1-.539,4.859l3.536-1.957,1.451-1.451c0,2.315,0,4.164-3.211,6.946l2.458.141,2.8-1.355-1.712,2.974-2.141,2.069-3.211,1.546-5.59-.975-1.968-1.173-2.189-2.189-1.184-2.709Z" transform="translate(-215.025 -79.255)"/>
    <rect id="Rect치ngulo_44527" data-name="Rect치ngulo 44527" width="27.582" height="3.848" transform="translate(55 62.805)"/>
    <path id="Trazado_195732" data-name="Trazado 195732" d="M100.7,161.193,161.2,100.7,100.7,40.207,40.208,100.7Zm0-118.295,57.8,57.8-57.8,57.8L42.9,100.7l57.8-57.8" transform="translate(-32.557 -32.556)"/>
    <path id="Trazado_195733" data-name="Trazado 195733" d="M339.114,567.9a1.813,1.813,0,0,0-.964-.533,2.245,2.245,0,0,0,.865-.594,2.4,2.4,0,0,0,.657-1.708,2.733,2.733,0,0,0-1.107-2.282,4.649,4.649,0,0,0-2.911-.851,5.457,5.457,0,0,0-1.64.213,3.417,3.417,0,0,0-1.154.615,3.654,3.654,0,0,0-.954,1.24,5.182,5.182,0,0,0-.321,1.619h2.307a2,2,0,0,1,.394-1.35,1.562,1.562,0,0,1,1.286-.505,1.615,1.615,0,0,1,1.182.412,1.434,1.434,0,0,1,.42,1.07,1.31,1.31,0,0,1-.821,1.348,5.05,5.05,0,0,1-1.676.214v1.617a5.511,5.511,0,0,1,1.8.216,1.484,1.484,0,0,1,1,1.524,1.632,1.632,0,0,1-.545,1.321,1.917,1.917,0,0,1-1.276.459,1.706,1.706,0,0,1-1.646-.833,2.382,2.382,0,0,1-.244-1.142h-2.426a4.387,4.387,0,0,0,.608,2.215q1.041,1.591,3.715,1.59a4.438,4.438,0,0,0,3.276-1.109,3.535,3.535,0,0,0,1.107-2.573,2.739,2.739,0,0,0-.938-2.195" transform="translate(-268.296 -455.005)"/>
  </g>
</svg>
