<svg id="Grupo_1008685" data-name="Grupo 1008685" xmlns="http://www.w3.org/2000/svg" xmlns:xlink="http://www.w3.org/1999/xlink" width="131.443" height="131.439" viewBox="0 0 131.443 131.439">
  <defs>
    <clipPath id="clip-path">
      <rect id="Rect치ngulo_44499" data-name="Rect치ngulo 44499" width="131.443" height="131.439" fill="none"/>
    </clipPath>
  </defs>
  <g id="Grupo_562276" data-name="Grupo 562276" clip-path="url(#clip-path)">
    <path id="Trazado_195683" data-name="Trazado 195683" d="M322.193,219.57a18.924,18.924,0,0,0,.446,3.958c-2.527-1.038-3.444-1.765-4.621-3.582L318,222.179l1.232,2.576L321,227.118l-3.969-.551-1.366-1.222,1.142,2.613,2.111,2.112,1.9,1.131,5.391.941,3.1-1.491,2.065-2,1.652-2.869-2.7,1.307-2.371-.136c3.1-2.682,3.1-4.466,3.1-6.7l-1.4,1.4-3.41,1.888a33.622,33.622,0,0,0,.52-4.686c0-1.834-.8-3.785-2.8-5.938.571,1.4-1.761,4.677-1.761,6.649" transform="translate(-257.735 -173.846)" fill="#ef4136"/>
    <path id="Trazado_195684" data-name="Trazado 195684" d="M54.349,110.1,110.1,165.841,165.843,110.1,110.1,54.35,54.349,110.1m60.22,48.145H106.5a5.5,5.5,0,0,1,.548-2.314,7.553,7.553,0,0,1,2.581-2.947c1.107-.72,2.119-1.7,2.119-2.6,0-.574-.373-1.453-1.22-1.453s-1.212.894-1.212,2.371H106.63a5.872,5.872,0,0,1,.545-2.938,3.543,3.543,0,0,1,3.294-1.967,4.174,4.174,0,0,1,2.977,1.038,3.59,3.59,0,0,1,1.106,2.747,3.723,3.723,0,0,1-.78,2.328,7.813,7.813,0,0,1-1.683,1.507s-1.774,1.275-2,1.461h4.484Zm9.449-49.583h-26.6v-3.711h26.6Zm-9.139-33.3L115.3,77.7l-.288,1.984,1.509-.8.9-2.9.305-4.764,2.141,4.229.317,3.35v3.17l-.814,2.018,1.271-.814,1.187-1.56,1.56-2.662,1.018,2.815.44,3.052-1.543,4.488-1.051,1.361,1.577-.17,1.628-1.1.882-6.579.1,4.035-.48,6.476-1.165,3.7-2.018,2.764-2.1,1.429-2.51,1.318L112.76,103l-3.985-.186-4.324-.322-3.8-1.136-3.2-2.074-1.56-2.517-.913-3.812L93.346,86.38l-.237-1.527,2.546,2.811,2.235,2.056,1.9.2L98.541,88.3l-.662-2.016-.471-3.032.442-2.443-.383-3.636,2.1,1.884,1.4,2.193,1.21.81-.525-1.424V78.615l.339-2.594.407-2.408-.46-2.449,2.1,1.076.865.831.814,1.984.305,1.7.9,1.814.967-2.221.627-4.917-.051-3.8.373-2.018,1.238-3.272,1.1,4.952Z" transform="translate(-44.375 -44.376)" fill="#ef4136"/>
    <path id="Trazado_195685" data-name="Trazado 195685" d="M65.721,0,0,65.719l65.721,65.72,65.722-65.72L65.721,0m0,124.061L7.379,65.719,65.721,7.379l58.343,58.341Z" fill="#ef4136"/>
    <path id="Trazado_195686" data-name="Trazado 195686" d="M281.292,101.152l-.373,2.018.051,3.8-.627,4.917-.966,2.221-.9-1.814-.305-1.7-.814-1.984-.865-.831-2.1-1.076.46,2.449-.407,2.408-.339,2.594v2.018l.525,1.424-1.21-.81-1.4-2.193-2.1-1.884.383,3.636-.442,2.443.471,3.032.662,2.016,1.248,1.626-1.9-.2-2.235-2.056-2.546-2.812.237,1.527,1.633,6.568.912,3.812,1.56,2.517,3.2,2.074,3.8,1.136,4.324.322,3.985.186,5.408-.458,2.51-1.318,2.1-1.429,2.018-2.764,1.165-3.7.48-6.477-.1-4.035-.882,6.579-1.628,1.1-1.577.169,1.051-1.361,1.543-4.488-.441-3.051L295.84,114.5l-1.56,2.662-1.187,1.56-1.271.814.814-2.017v-3.17l-.317-3.35-2.142-4.228-.3,4.764-.9,2.9-1.509.8.288-1.984-.424-2.339-3.7-8.069-1.1-4.952Zm4.555,23.778a33.62,33.62,0,0,1-.52,4.686l3.41-1.888,1.4-1.4c0,2.232,0,4.016-3.1,6.7l2.371.136,2.7-1.307-1.652,2.869-2.065,2-3.1,1.491-5.391-.941-1.9-1.131-2.111-2.112-1.142-2.613,1.366,1.222,3.969.551-1.766-2.363-1.232-2.576.017-2.232c1.177,1.817,2.094,2.544,4.621,3.582a18.933,18.933,0,0,1-.446-3.958c0-1.973,2.332-5.248,1.761-6.649,2,2.153,2.8,4.1,2.8,5.938" transform="translate(-216.824 -79.917)" fill="#fff"/>
    <rect id="Rect치ngulo_44498" data-name="Rect치ngulo 44498" width="26.6" height="3.711" transform="translate(53.044 60.571)" fill="#fff"/>
    <path id="Trazado_195687" data-name="Trazado 195687" d="M344.1,563.487a7.813,7.813,0,0,0,1.683-1.507,3.723,3.723,0,0,0,.78-2.328,3.59,3.59,0,0,0-1.106-2.747,4.174,4.174,0,0,0-2.977-1.038,3.543,3.543,0,0,0-3.294,1.967,5.872,5.872,0,0,0-.545,2.938h2.684c0-1.478.365-2.371,1.212-2.371s1.22.879,1.22,1.453c0,.907-1.012,1.885-2.119,2.6a7.554,7.554,0,0,0-2.581,2.947,5.5,5.5,0,0,0-.548,2.314h8.072v-2.772H342.1c.229-.186,2-1.461,2-1.461" transform="translate(-276.387 -453.855)" fill="#fff"/>
    <path id="Trazado_195688" data-name="Trazado 195688" d="M40.207,98.549,98.549,156.89l58.343-58.341L98.549,40.208Zm114.09,0L98.549,154.294,42.8,98.549,98.549,42.8,154.3,98.549" transform="translate(-32.828 -32.829)" fill="#fff"/>
  </g>
</svg>
