<svg xmlns="http://www.w3.org/2000/svg" width="125.812" height="132.617" viewBox="0 0 125.812 132.617">
  <g id="Grupo_1008709" data-name="Grupo 1008709" transform="translate(-501.42 -396.424)">
    <path id="Trazado_195096" data-name="Trazado 195096" d="M2483.034,1833.581l-54.255,55.445,54.021,55.205,54.256-55.444Zm-51.766,55.792-.346-.352,52.107-53.249,51.883,53.019-.57.582Z" transform="translate(-1919.005 -1426.271)"/>
    <g id="Grupo_562259" data-name="Grupo 562259" transform="translate(501.42 396.423)">
      <g id="Grupo_1008711" data-name="Grupo 1008711">
        <path id="Trazado_195097" data-name="Trazado 195097" d="M2563.358,2083.3a4.7,4.7,0,0,1-3.581,1.441c-2.132,0-3.1-.642-3.475-1.441h-10.752v4.361h27.626V2083.3Z" transform="translate(-2516.731 -2028.379)"/>
        <path id="Trazado_195098" data-name="Trazado 195098" d="M2720.589,1790.938l-1.115-1.175,3.76-3.963,3.026,3.191-1.115,1.175-1.912-2.016Z" transform="translate(-2660.194 -1785.801)"/>
        <path id="Trazado_195534" data-name="Trazado 195534" d="M.043.21,8.016,0,7.974,1.619,0,1.829Z" transform="translate(50.41 13.006) rotate(-45)"/>
        <path id="Trazado_195535" data-name="Trazado 195535" d="M.043.209,7.989,0,7.946,1.619,0,1.828Z" transform="translate(41.751 22.135) rotate(-45)"/>
        <path id="Trazado_195536" data-name="Trazado 195536" d="M.043.211l8-.211L8,1.619,0,1.829Z" transform="translate(33.103 31.248) rotate(-45)"/>
        <path id="Trazado_195537" data-name="Trazado 195537" d="M.043.21,8.017,0,7.975,1.619,0,1.829Z" transform="translate(24.456 40.363) rotate(-44.991)"/>
        <path id="Trazado_195538" data-name="Trazado 195538" d="M.043.208,7.93,0,7.887,1.619,0,1.826Z" transform="translate(15.822 49.468) rotate(-45)"/>
        <path id="Trazado_195539" data-name="Trazado 195539" d="M.043.209,7.973,0,7.93,1.619,0,1.828Z" transform="translate(7.165 58.592) rotate(-45)"/>
        <path id="Trazado_195099" data-name="Trazado 195099" d="M2386.89,2132.511,2381,2126.3l4.176-4.4,1.114,1.175-3.06,3.226,4.776,5.037Z" transform="translate(-2380.998 -2059.851)"/>
        <path id="Trazado_195540" data-name="Trazado 195540" d="M.208.043,1.826,0,1.619,7.887,0,7.93Z" transform="translate(8.921 76.156) rotate(-45.001)"/>
        <path id="Trazado_195541" data-name="Trazado 195541" d="M.209.043,1.827,0,1.619,7.931,0,7.973Z" transform="matrix(0.707, -0.707, 0.707, 0.707, 17.527, 85.229)"/>
        <path id="Trazado_195542" data-name="Trazado 195542" d="M.211.043,1.83,0,1.619,8.019,0,8.061Z" transform="translate(26.172 94.345) rotate(-45.001)"/>
        <path id="Trazado_195543" data-name="Trazado 195543" d="M.21.043,1.829,0l-.21,7.989L0,8.032Z" transform="translate(34.829 103.47) rotate(-45.002)"/>
        <path id="Trazado_195544" data-name="Trazado 195544" d="M.21.043,1.829,0l-.21,7.975L0,8.018Z" transform="matrix(0.707, -0.707, 0.707, 0.707, 43.486, 112.594)"/>
        <path id="Trazado_195545" data-name="Trazado 195545" d="M.211.043,1.829,0,1.619,8,0,8.046Z" transform="translate(52.083 121.657) rotate(-45)"/>
        <path id="Trazado_195100" data-name="Trazado 195100" d="M2730.873,2473.278l-1.814-1.912,1.115-1.175.7.737,4.405-4.642,1.114,1.174Z" transform="translate(-2668.1 -2340.66)"/>
        <path id="Trazado_195546" data-name="Trazado 195546" d="M.043.21,8.033,0,7.99,1.619,0,1.829Z" transform="matrix(0.707, -0.707, 0.707, 0.707, 70.164, 122.171)"/>
        <path id="Trazado_195547" data-name="Trazado 195547" d="M.043.211,8.061,0,8.018,1.619,0,1.83Z" transform="matrix(0.707, -0.707, 0.707, 0.707, 78.79, 113.076)"/>
        <path id="Trazado_195548" data-name="Trazado 195548" d="M.043.211l8-.211L8,1.619,0,1.829Z" transform="matrix(0.707, -0.707, 0.707, 0.707, 87.427, 103.973)"/>
        <path id="Trazado_195549" data-name="Trazado 195549" d="M.043.208,7.931,0,7.888,1.619,0,1.826Z" transform="translate(96.136 94.797) rotate(-45)"/>
        <path id="Trazado_195550" data-name="Trazado 195550" d="M.043.21,8.033,0,7.99,1.619,0,1.829Z" transform="translate(104.78 85.681) rotate(-45)"/>
        <path id="Trazado_195551" data-name="Trazado 195551" d="M.043.211l8-.211L8,1.619,0,1.829Z" transform="translate(113.417 76.576) rotate(-45)"/>
        <path id="Trazado_195101" data-name="Trazado 195101" d="M3069.934,2125.355l-1.114-1.175,1.349-1.423-3.495-3.684,1.115-1.175,4.61,4.859Z" transform="translate(-2946.586 -2056.589)"/>
        <path id="Trazado_195552" data-name="Trazado 195552" d="M.209.043,1.827,0,1.619,7.917,0,7.96Z" transform="matrix(0.707, -0.707, 0.707, 0.707, 111.233, 53.456)"/>
        <path id="Trazado_195553" data-name="Trazado 195553" d="M.211.043,1.83,0,1.619,8.02,0,8.062Z" transform="translate(102.524 44.279) rotate(-44.998)"/>
        <path id="Trazado_195554" data-name="Trazado 195554" d="M.211.043,1.83,0,1.619,8.018,0,8.061Z" transform="translate(93.888 35.176) rotate(-45)"/>
        <path id="Trazado_195555" data-name="Trazado 195555" d="M.212.043,1.831,0,1.619,8.063,0,8.105Z" transform="matrix(0.707, -0.707, 0.707, 0.707, 85.22, 26.04)"/>
        <path id="Trazado_195556" data-name="Trazado 195556" d="M.21.043,1.829,0l-.21,7.974L0,8.017Z" transform="translate(76.636 16.989) rotate(-45)"/>
        <path id="Trazado_195557" data-name="Trazado 195557" d="M.207.043,1.826,0,1.619,7.859,0,7.9Z" transform="translate(68 7.882) rotate(-45.001)"/>
        <path id="Trazado_195102" data-name="Trazado 195102" d="M2801.1,2107.533c-.431,0-1.006-.036-1.671-.078-.834-.052-1.78-.111-2.659-.111-2.038,0-3.4-.226-3.4-1.329a1.436,1.436,0,0,1,1.584-1.316v.646c-.471,0-.971.235-.971.671,0,.168,0,.683,2.784.683.9,0,1.852.06,2.7.112.656.041,1.223.076,1.635.076,3.958,0,5.028-.515,5.971-.97a6.738,6.738,0,0,1,3.528-.725v.646a6.171,6.171,0,0,0-3.272.667c-1,.482-2.135,1.028-6.227,1.028" transform="translate(-2721.154 -2045.827)"/>
        <path id="Trazado_195103" data-name="Trazado 195103" d="M2788.507,2096.631h-5.521c-1.6,0-2.033-.921-2.033-1.466,0-.527.332-1.154,1.912-1.154v.646c-.485,0-1.3.065-1.3.507,0,.3.3.819,1.419.819h5.521Z" transform="translate(-2710.906 -2037.112)"/>
        <path id="Trazado_195104" data-name="Trazado 195104" d="M2777.64,2084.238h-6.8c-1.112,0-1.831-.6-1.831-1.537a1.644,1.644,0,0,1,1.813-1.469h6.83v.646h-6.83c-.581,0-1.2.288-1.2.822,0,.558.455.89,1.217.89h6.8Z" transform="translate(-2701.053 -2026.692)"/>
        <path id="Trazado_195105" data-name="Trazado 195105" d="M2783.819,2071.531a1.3,1.3,0,0,1-.986-.352,1.281,1.281,0,0,1-.3-.921v-.02c0-.653.41-1.352,1.562-1.352h7.667a12.826,12.826,0,0,0,2.16-.344l.139.63a13.12,13.12,0,0,1-2.3.361H2784.1c-.63,0-.948.238-.948.706v.022a.668.668,0,0,0,.117.463.791.791,0,0,0,.552.162Z" transform="translate(-2712.212 -2016.344)"/>
        <path id="Trazado_195106" data-name="Trazado 195106" d="M2836.309,2076.038a4.373,4.373,0,0,1-3.152-1.261,3.628,3.628,0,0,1-.834-2.725l.612.039a2.988,2.988,0,0,0,.668,2.244,3.77,3.77,0,0,0,2.706,1.058Z" transform="translate(-2753.271 -2019.206)"/>
        <path id="Trazado_195107" data-name="Trazado 195107" d="M2817.24,2060.694a8.345,8.345,0,0,1-2.829-.379,7.509,7.509,0,0,1-1.531-.834,12.311,12.311,0,0,0-1.492-.866,4.617,4.617,0,0,1-5.614-.388,6.579,6.579,0,0,1-2.583.531.732.732,0,0,0,.175.525c.342.369,1.27.555,2.756.555v.646c-1.7,0-2.718-.238-3.194-.748a1.568,1.568,0,0,1-.349-1.188c0-.041,0-.081,0-.121v-.347l.328.024a6.038,6.038,0,0,0,2.8-.557l.205-.1.154.176a4.028,4.028,0,0,0,5.126.359l.137-.094.15.067a12.441,12.441,0,0,1,1.717.977,6.988,6.988,0,0,0,1.407.773,9.082,9.082,0,0,0,3.13.342l.455,0v.646l-.45,0-.5,0" transform="translate(-2728.743 -2007.295)"/>
        <path id="Trazado_195108" data-name="Trazado 195108" d="M2865.6,2011.7l-.228-.6a3.891,3.891,0,0,0,1.225-1.158,1.164,1.164,0,0,0-.009-.338,1.891,1.891,0,0,1,.156-1.166,1.831,1.831,0,0,1,.9-.72,1.5,1.5,0,0,0,.379-.222c0-.086-.009-.281-.02-.428a3.791,3.791,0,0,1,.112-1.607,7.8,7.8,0,0,1,1.136-1.7l.471.413a7.136,7.136,0,0,0-1.048,1.55,3.466,3.466,0,0,0-.061,1.3,1.441,1.441,0,0,1-.052.791,1.421,1.421,0,0,1-.667.495,1.319,1.319,0,0,0-.625.457,1.276,1.276,0,0,0-.076.77,1.348,1.348,0,0,1-.038.662,4.22,4.22,0,0,1-1.561,1.5" transform="translate(-2780.543 -1963.52)"/>
        <path id="Trazado_195109" data-name="Trazado 195109" d="M2856.167,2015.147l-.347-.533a2.592,2.592,0,0,0,.932-1.148,2.726,2.726,0,0,0-.029-.666,2.528,2.528,0,0,1,.083-1.393,1.539,1.539,0,0,1,.561-.552,1.112,1.112,0,0,0,.468-.481c.09-.193.049-.343-.06-.7a4.375,4.375,0,0,1-.237-1.395h.612a3.671,3.671,0,0,0,.207,1.194,1.5,1.5,0,0,1,.028,1.179,1.714,1.714,0,0,1-.691.744.976.976,0,0,0-.357.328,2.446,2.446,0,0,0-.006,1,2.612,2.612,0,0,1,.006.931,3.213,3.213,0,0,1-1.171,1.49" transform="translate(-2772.661 -1967.211)"/>
        <path id="Trazado_195110" data-name="Trazado 195110" d="M2817,2019.272c-.094-.113-.188-.222-.279-.327a3.775,3.775,0,0,1-.8-1.166,1.912,1.912,0,0,1,0-.85,1.759,1.759,0,0,0-.006-.884,1.358,1.358,0,0,0-.457-.412,1.54,1.54,0,0,1-.738-.844,2.322,2.322,0,0,1,.128-1.131,3.736,3.736,0,0,0,.182-.991h.613a4.348,4.348,0,0,1-.205,1.171,1.967,1.967,0,0,0-.124.795c.037.153.273.317.482.461a1.733,1.733,0,0,1,.68.69,2.31,2.31,0,0,1,.053,1.246,1.582,1.582,0,0,0-.031.54,3.542,3.542,0,0,0,.672.94c.093.108.19.22.287.336Z" transform="translate(-2738.733 -1970.785)"/>
        <path id="Trazado_195111" data-name="Trazado 195111" d="M2801.992,2017.067c-.075-.077-.168-.168-.268-.266a5.421,5.421,0,0,1-.987-1.122,2.681,2.681,0,0,1-.115-.88,4.266,4.266,0,0,0-.055-.628,3.511,3.511,0,0,0-.441-.3,2.09,2.09,0,0,1-.809-.667,2.739,2.739,0,0,1-.085-1.107,4.662,4.662,0,0,0-.044-1.077,3.871,3.871,0,0,0-.747-1.134c-.083-.1-.168-.205-.253-.312l.47-.415c.083.1.166.205.247.3a4.284,4.284,0,0,1,.866,1.357,4.715,4.715,0,0,1,.074,1.294,4.293,4.293,0,0,0,.02.8,3.231,3.231,0,0,0,.571.4,1.88,1.88,0,0,1,.655.517,2.3,2.3,0,0,1,.143.938,3.715,3.715,0,0,0,.057.632,7.1,7.1,0,0,0,.852.926c.1.1.2.194.274.274Z" transform="translate(-2725.123 -1967.926)"/>
        <path id="Trazado_195112" data-name="Trazado 195112" d="M2639.675,2041.7l-.185-.616a.267.267,0,0,0-.04.017,8.132,8.132,0,0,0,1.157-1.19,3.137,3.137,0,0,0,.083-.611,1.84,1.84,0,0,1,.238-1.01,3.21,3.21,0,0,1,.66-.48c.141-.089.344-.217.43-.287.012-.115,0-.383,0-.585a4.757,4.757,0,0,1,.1-1.5,3.254,3.254,0,0,1,.789-1.235c.11-.129.241-.281.394-.466l.461.427c-.156.188-.288.341-.4.472a2.661,2.661,0,0,0-.668,1.023,4.607,4.607,0,0,0-.064,1.255c.018.579.02.82-.106.987a2.511,2.511,0,0,1-.621.46,4.435,4.435,0,0,0-.513.353,3.372,3.372,0,0,0-.087.638,2.49,2.49,0,0,1-.16.873,6.817,6.817,0,0,1-1.466,1.472" transform="translate(-2594.186 -1987.967)"/>
        <path id="Trazado_195113" data-name="Trazado 195113" d="M2633.109,2046.937l-.326-.547a5.022,5.022,0,0,0,.919-1.222,5.364,5.364,0,0,0-.012-.616,3.009,3.009,0,0,1,.135-1.569,1.84,1.84,0,0,1,.521-.461c.191-.13.407-.278.438-.422a2.4,2.4,0,0,0-.07-.525,8.2,8.2,0,0,1-.18-1.632h.613a7.637,7.637,0,0,0,.168,1.5,2.138,2.138,0,0,1,.068.793,1.426,1.426,0,0,1-.7.824,1.475,1.475,0,0,0-.354.291,4.642,4.642,0,0,0-.024,1.162,2.509,2.509,0,0,1-.029.889,5.215,5.215,0,0,1-1.164,1.531" transform="translate(-2588.686 -1993.026)"/>
        <path id="Trazado_195114" data-name="Trazado 195114" d="M2603.542,2051.075l-.053-.052a3.583,3.583,0,0,1-1.092-1.531,3.223,3.223,0,0,1,.02-1.018,2.4,2.4,0,0,0,.027-.713,2.452,2.452,0,0,0-.468-.5,2.474,2.474,0,0,1-.775-.971,2.522,2.522,0,0,1,.221-1.427,6.129,6.129,0,0,0,.22-.754l.6.126a6.264,6.264,0,0,1-.245.846,1.084,1.084,0,0,0,.379,1.692,2.181,2.181,0,0,1,.643.773,2.481,2.481,0,0,1,0,1.011,2.893,2.893,0,0,0-.031.792,3.23,3.23,0,0,0,.915,1.205l.053.053Z" transform="translate(-2562.599 -1996.421)"/>
        <path id="Trazado_195115" data-name="Trazado 195115" d="M2589.824,2042.868a3.076,3.076,0,0,1-1.26-1.075,2.069,2.069,0,0,1-.193-.914,1.766,1.766,0,0,0-.12-.68,1.207,1.207,0,0,0-.554-.485,1.53,1.53,0,0,1-.693-.635,2.437,2.437,0,0,1-.089-1.124,2.24,2.24,0,0,0-.05-.923,4.505,4.505,0,0,0-.482-.708c-.15-.2-.336-.438-.588-.789l.49-.389c.245.342.428.58.574.771a5.1,5.1,0,0,1,.543.8,2.52,2.52,0,0,1,.125,1.277,2.273,2.273,0,0,0,.028.8,1.092,1.092,0,0,0,.439.352,1.748,1.748,0,0,1,.815.781,2.408,2.408,0,0,1,.174.919,1.42,1.42,0,0,0,.121.637,2.5,2.5,0,0,0,.974.793Z" transform="translate(-2549.928 -1989.115)"/>
        <path id="Trazado_195116" data-name="Trazado 195116" d="M2621.409,2038.281c0,.883-.935,2.163-.935,3.417,0,.909.352,1.7.838,1.7s.911-.614.911-1.715-.814-2.752-.814-3.4" transform="translate(-2578.533 -1991.67)"/>
        <path id="Trazado_195117" data-name="Trazado 195117" d="M2640.535,1963.074c-.328-1.892-2.233-2.146-3.941-1.846,0,0-11.909,2.238-12.632,2.377a1.943,1.943,0,0,1-2.145-.854s.81,4.869.854,5.377a6.493,6.493,0,0,0,.118.827c0,.921-1.068,2.649-1.068,3.84s.51,1.958.984,1.958,1.068-.973,1.068-2.253-.765-2.125-.765-2.687.836-.942,1.092-1.024,13.786-2.575,13.786-2.575c1.686-.323,2.978-1.246,2.649-3.138m-2.759,2.539c-.7.148-1.182.231-1.182.231l-13.486,1.269-.394-2.677s13.617-2.4,14.471-2.562,2.474-.208,2.759,1.362-1.292,2.192-2.168,2.377" transform="translate(-2579.562 -1928.755)"/>
        <path id="Trazado_195118" data-name="Trazado 195118" d="M2839.228,2030.2c0,.806.715,1.712.715,2.856,0,.829-.317,1.49-.76,1.49s-.815-.476-.815-1.48.859-2.27.859-2.866" transform="translate(-2758.266 -1985.078)"/>
        <path id="Trazado_195119" data-name="Trazado 195119" d="M2757.379,1965.589c.043-.508.7-5.308.7-5.308a1.665,1.665,0,0,1-2.029.682l-13.661-2.605c-1.708-.3-3.656.139-3.985,2.031s1.306,2.908,2.992,3.231c0,0,14.259,2.444,14.516,2.526s.913.448.913,1.011-.725.964-.725,2.244.3,1.772.769,1.772.948-.563.948-1.753-.617-1.6-.617-2.517c0,0,.133-.806.177-1.314m-13.96-2.387s-1.658-.173-2.357-.32c-.876-.185-2.386-.784-2.1-2.354s2.357-1.716,3.211-1.554,15.127,2.821,15.127,2.821l-.394,2.677Z" transform="translate(-2675.775 -1926.432)"/>
        <path id="Trazado_195120" data-name="Trazado 195120" d="M2715.552,2313.561a1.7,1.7,0,0,1,.443-1.272,1.859,1.859,0,0,1,2.388,0,1.7,1.7,0,0,1,.443,1.272,1.719,1.719,0,0,1-.435,1.253,1.846,1.846,0,0,1-2.4,0,1.72,1.72,0,0,1-.435-1.253m-2.309.133a3.156,3.156,0,0,0,.977,2.334,3.935,3.935,0,0,0,2.876.962,4.244,4.244,0,0,0,2.958-.961,3.034,3.034,0,0,0,1.059-2.332,3.289,3.289,0,0,0-.421-1.654,3.072,3.072,0,0,0-1.254-1.19,2.222,2.222,0,0,0,1.067-1.06,3.065,3.065,0,0,0,.246-1.142,2.613,2.613,0,0,0-.934-2.018,4.577,4.577,0,0,0-5.27,0,2.611,2.611,0,0,0-.933,2.017,3.04,3.04,0,0,0,.247,1.14,2.579,2.579,0,0,0,1.071,1.134,2.7,2.7,0,0,0-1.26,1.116,3.24,3.24,0,0,0-.43,1.655m2.506-4.8a1.316,1.316,0,0,1,.382-1,1.725,1.725,0,0,1,2.113,0,1.332,1.332,0,0,1,.373,1,1.3,1.3,0,0,1-.373.962,1.684,1.684,0,0,1-2.113,0,1.286,1.286,0,0,1-.382-.962" transform="translate(-2655.055 -2209.799)" fill="#fff"/>
        <path id="Trazado_195121" data-name="Trazado 195121" d="M2715.552,2313.561a1.7,1.7,0,0,1,.443-1.272,1.859,1.859,0,0,1,2.388,0,1.7,1.7,0,0,1,.443,1.272,1.719,1.719,0,0,1-.435,1.253,1.846,1.846,0,0,1-2.4,0,1.72,1.72,0,0,1-.435-1.253m-2.309.133a3.156,3.156,0,0,0,.977,2.334,3.935,3.935,0,0,0,2.876.962,4.244,4.244,0,0,0,2.958-.961,3.034,3.034,0,0,0,1.059-2.332,3.289,3.289,0,0,0-.421-1.654,3.072,3.072,0,0,0-1.254-1.19,2.222,2.222,0,0,0,1.067-1.06,3.065,3.065,0,0,0,.246-1.142,2.613,2.613,0,0,0-.934-2.018,4.577,4.577,0,0,0-5.27,0,2.611,2.611,0,0,0-.933,2.017,3.04,3.04,0,0,0,.247,1.14,2.579,2.579,0,0,0,1.071,1.134,2.7,2.7,0,0,0-1.26,1.116,3.24,3.24,0,0,0-.43,1.655m2.506-4.8a1.316,1.316,0,0,1,.382-1,1.725,1.725,0,0,1,2.113,0,1.332,1.332,0,0,1,.373,1,1.3,1.3,0,0,1-.373.962,1.684,1.684,0,0,1-2.113,0,1.286,1.286,0,0,1-.382-.962" transform="translate(-2655.055 -2209.799)" fill="#fff"/>
      </g>
    </g>
  </g>
</svg>
