<svg xmlns="http://www.w3.org/2000/svg" xmlns:xlink="http://www.w3.org/1999/xlink" width="143.591" height="143.592" viewBox="0 0 143.591 143.592">
  <defs>
    <clipPath id="clip-path">
      <rect id="Rectángulo_44564" data-name="Rectángulo 44564" width="143.591" height="143.592" fill="none"/>
    </clipPath>
  </defs>
  <g id="Grupo_1008697" data-name="Grupo 1008697" transform="translate(0)">
    <g id="Grupo_562310" data-name="Grupo 562310" transform="translate(0)" clip-path="url(#clip-path)">
      <path id="Trazado_195799" data-name="Trazado 195799" d="M115.265,51.9,55.891,111.276l-.321.321-.307.307-.387.387-.771.771.213.213H176.294l.213-.213-61.2-61.2ZM130.7,109.62H101.578v-2.225H130.7ZM116.646,66.269l4.216,8.862.351,2.5-.254,2.049,1.366-.957,1.073-3.728.371-4.45,2.479,4.567.449,3.708-.176,3.689-.761,1.776,1.035-.722,1.483-1.756,1.757-2.928,1.112,3.1.508,3.416-1.737,4.977-1.054,1.288,1.522-.137,1.639-1.191,1.093-6.831.332,4.021-.624,7.253-1.209,3.787-2.514,3.5-2.063,1.353-2.885,1.579-5.817.5-4.367-.226-4.8-.4-3.964-1.225-3.593-2.353-1.708-2.755-1-4.174-1.9-7.219L96.86,85.5l2.788,3.078,2.4,2,2.095.435-1.337-1.74-.725-2.208-.515-3.319.483-2.675-.419-3.98,2.3,2.063,1.531,2.4,1.241.709-.725-1.45.1-2.079.355-3.013.467-2.466-.37-2.739,2.336,1.128.951.886.773,1.6.4,1.982,1.038,2.288,1.161-3.556.436-4.209V66.562l.363-2.177,1.379-3.411Z" transform="translate(-43.275 -41.479)" fill="#ef4136"/>
      <path id="Trazado_195800" data-name="Trazado 195800" d="M0,71.8H8.5l-.213-.213L71.4,8.477l.635-.635,63.74,63.74-.213.213h8.033L71.8,0Z" transform="translate(0 0)" fill="#ef4136"/>
      <path id="Trazado_195801" data-name="Trazado 195801" d="M56.725,360.2l59.393,59.393.039.039.771-.77.387-.387.307-.307.448-.448.48-.48.672-.672.5-.5.261-.261.66-.661,1.252-1.252,1.549-1.548.364-.364,1.662-1.662.25-.25,2.847-2.847.978-.978,1.624-1.624.288-.289,3.518-3.518.307-.307L137,398.784l.193-.193.847-.847,2.978-2.978,2.414-2.414,1.411-1.411.8-.8,1.111-1.111,1.111-1.111.8-.8,1.411-1.411,2.414-2.414,2.978-2.978.847-.847.193-.193,1.719-1.719.307-.307,3.518-3.518.288-.288,1.624-1.624.978-.978,2.847-2.847.251-.25,1.662-1.662.364-.364,1.549-1.548,1.252-1.252.66-.661.261-.261.5-.5.672-.672.48-.48.448-.448.307-.307.386-.387.558-.558H55.17l1.555,1.555m67.454,34.123a1.744,1.744,0,0,0-2.717.3,4.076,4.076,0,0,0-.269,1.5H118.85a5.909,5.909,0,0,1,.565-2.523,3.522,3.522,0,0,1,3.417-1.83,4.332,4.332,0,0,1,3.088,1.077,3.724,3.724,0,0,1,1.147,2.85,3.86,3.86,0,0,1-.81,2.415,8.1,8.1,0,0,1-1.746,1.564l-.962.685q-.9.643-1.235.93a2.713,2.713,0,0,0-.559.668h5.331v2.108h-8.374a5.712,5.712,0,0,1,.568-2.4,6.838,6.838,0,0,1,2.429-2.592,17.767,17.767,0,0,0,2.149-1.708,2.531,2.531,0,0,0,.748-1.758,1.953,1.953,0,0,0-.429-1.293m-9.733,7.233H117v2.518h-2.557Zm-4.688-2.908a1.544,1.544,0,0,0-1.371-.645,2.381,2.381,0,0,0-.762.11,1.512,1.512,0,0,0-.855.749l-2.155-.1.87-6.753h6.743v2.029h-5.018l-.44,2.684a5.052,5.052,0,0,1,.867-.479,3.668,3.668,0,0,1,1.27-.194,3.685,3.685,0,0,1,3.77,3.982,4.646,4.646,0,0,1-1.087,3.022,3.954,3.954,0,0,1-3.253,1.33,4.319,4.319,0,0,1-2.865-.936,3.635,3.635,0,0,1-1.247-2.655h2.4a2.321,2.321,0,0,0,.551,1.213,1.559,1.559,0,0,0,1.184.427,1.6,1.6,0,0,0,1.367-.628,2.561,2.561,0,0,0,.47-1.579,2.732,2.732,0,0,0-.44-1.58" transform="translate(-44.126 -286.845)" fill="#fff200"/>
      <path id="Trazado_195802" data-name="Trazado 195802" d="M72.032,422.167,8.505,358.641H0l71.8,71.8,71.8-71.8h-8.033Z" transform="translate(0 -286.845)" fill="#fff200"/>
      <path id="Trazado_195803" data-name="Trazado 195803" d="M54.1,354.5l.771-.771Z" transform="translate(-43.274 -282.914)" fill="#fff"/>
      <path id="Trazado_195804" data-name="Trazado 195804" d="M122.4,52.064,63.024,111.439,122.4,52.064" transform="translate(-50.407 -41.641)" fill="#fff"/>
      <path id="Trazado_195805" data-name="Trazado 195805" d="M60.192,350.262l-.307.307.307-.307" transform="translate(-47.897 -280.144)" fill="#fff"/>
      <path id="Trazado_195806" data-name="Trazado 195806" d="M104.524,39.811l-63.1,63.105,63.74-63.74Z" transform="translate(-33.128 -31.333)" fill="#fff"/>
      <path id="Trazado_195807" data-name="Trazado 195807" d="M428.318,588.3l-1.624,1.624Z" transform="translate(-341.275 -470.531)" fill="#fff"/>
      <path id="Trazado_195808" data-name="Trazado 195808" d="M465.756,553.97l-.847.847Z" transform="translate(-371.84 -443.072)" fill="#fff"/>
      <path id="Trazado_195809" data-name="Trazado 195809" d="M439.765,569.288l-3.518,3.518Z" transform="translate(-348.915 -455.323)" fill="#fff"/>
      <path id="Trazado_195810" data-name="Trazado 195810" d="M457.073,559.165l-1.719,1.719Z" transform="translate(-364.197 -447.227)" fill="#fff"/>
      <path id="Trazado_195811" data-name="Trazado 195811" d="M410.433,601.3l-2.847,2.847Z" transform="translate(-325.992 -480.928)" fill="#fff"/>
      <path id="Trazado_195812" data-name="Trazado 195812" d="M486.429,527.034l-2.414,2.414Z" transform="translate(-387.121 -421.528)" fill="#fff"/>
      <path id="Trazado_195813" data-name="Trazado 195813" d="M523.64,493.831l-1.411,1.411Z" transform="translate(-417.685 -394.972)" fill="#fff"/>
      <path id="Trazado_195814" data-name="Trazado 195814" d="M399.695,616.772l-1.662,1.662Z" transform="translate(-318.351 -493.301)" fill="#fff"/>
      <path id="Trazado_195815" data-name="Trazado 195815" d="M513.787,504.885,512.676,506Z" transform="translate(-410.044 -403.813)" fill="#fff"/>
      <path id="Trazado_195816" data-name="Trazado 195816" d="M503.924,515.98l-.8.8Z" transform="translate(-402.403 -412.687)" fill="#fff"/>
      <path id="Trazado_195817" data-name="Trazado 195817" d="M375.127,645.986l.5-.5-.5.5" transform="translate(-300.031 -516.268)" fill="#fff"/>
      <path id="Trazado_195818" data-name="Trazado 195818" d="M365.6,656.283l.307-.307-.307.307" transform="translate(-292.411 -524.657)" fill="#fff"/>
      <path id="Trazado_195819" data-name="Trazado 195819" d="M650.225,370.2l.672-.672-.672.672" transform="translate(-520.057 -295.553)" fill="#fff"/>
      <path id="Trazado_195820" data-name="Trazado 195820" d="M544.314,466.9l-2.978,2.978Z" transform="translate(-432.967 -373.428)" fill="#fff"/>
      <path id="Trazado_195821" data-name="Trazado 195821" d="M659.753,361.812l.387-.387-.387.387" transform="translate(-527.678 -289.072)" fill="#fff"/>
      <path id="Trazado_195822" data-name="Trazado 195822" d="M62.936,366.407,122.329,425.8,62.936,366.407" transform="translate(-50.337 -293.057)" fill="#fff"/>
      <path id="Trazado_195823" data-name="Trazado 195823" d="M369.852,651.337l-.48.48Z" transform="translate(-295.428 -520.947)" fill="#fff"/>
      <path id="Trazado_195824" data-name="Trazado 195824" d="M390.028,626.892l-1.549,1.549Z" transform="translate(-310.71 -501.395)" fill="#fff"/>
      <path id="Trazado_195825" data-name="Trazado 195825" d="M379.586,640.883l-.66.661Z" transform="translate(-303.069 -512.586)" fill="#fff"/>
      <path id="Trazado_195826" data-name="Trazado 195826" d="M360.589,659.439l-.771.771Z" transform="translate(-287.787 -527.427)" fill="#fff"/>
      <path id="Trazado_195827" data-name="Trazado 195827" d="M570.3,451.577l-.307.307Z" transform="translate(-455.89 -361.176)" fill="#fff"/>
      <path id="Trazado_195828" data-name="Trazado 195828" d="M638.125,379.982l-1.252,1.252Z" transform="translate(-509.378 -303.914)" fill="#fff"/>
      <path id="Trazado_195829" data-name="Trazado 195829" d="M646.686,375.378l-.261.261Z" transform="translate(-517.018 -300.232)" fill="#fff"/>
      <path id="Trazado_195830" data-name="Trazado 195830" d="M618.017,404.093l-.251.25Z" transform="translate(-494.096 -323.198)" fill="#fff"/>
      <path id="Trazado_195831" data-name="Trazado 195831" d="M589.393,432.563l-.288.288Z" transform="translate(-471.173 -345.969)" fill="#fff"/>
      <path id="Trazado_195832" data-name="Trazado 195832" d="M656.428,364.89l-.448.448Z" transform="translate(-524.66 -291.843)" fill="#fff"/>
      <path id="Trazado_195833" data-name="Trazado 195833" d="M560.636,461.7l-.193.193Z" transform="translate(-448.249 -369.273)" fill="#fff"/>
      <path id="Trazado_195834" data-name="Trazado 195834" d="M627.683,393.973l-.364.364Z" transform="translate(-501.737 -315.104)" fill="#fff"/>
      <path id="Trazado_195835" data-name="Trazado 195835" d="M599.636,419.563l-.978.978Z" transform="translate(-478.814 -335.571)" fill="#fff"/>
      <path id="Trazado_195836" data-name="Trazado 195836" d="M44.73,102.145l.387-.387.307-.307.321-.321,59.374-59.375.041-.04,61.2,61.2h2.54l-63.74-63.74-63.74,63.74h2.539Z" transform="translate(-33.128 -31.333)"/>
      <path id="Trazado_195837" data-name="Trazado 195837" d="M168.687,357.789l.213-.213H166.36l-.213.213-.558.558-.386.387-.307.307-.448.448-.48.48-.672.672-.5.5-.261.261-.66.661-1.252,1.252-1.549,1.548-.364.364-1.662,1.662-.251.25-2.847,2.847-.978.978-1.624,1.624-.288.288-3.518,3.518-.307.307-1.719,1.719-.193.193-.847.847-2.978,2.978-2.414,2.414-1.411,1.411-.8.8-1.111,1.111-1.11,1.111-.8.8-1.411,1.411-2.414,2.414-2.978,2.978-.847.847-.193.193-1.719,1.719-.307.307-3.518,3.518-.288.288-1.624,1.624-.978.978-2.847,2.847-.25.25-1.662,1.662-.364.364-1.549,1.548-1.252,1.252-.66.661-.261.261-.5.5-.672.672-.48.48-.448.448-.307.307-.387.387-.771.77-.039-.039L45.727,359.344l-1.555-1.555-.213-.213H41.42l.213.213,63.527,63.527Z" transform="translate(-33.128 -285.993)"/>
      <path id="Trazado_195838" data-name="Trazado 195838" d="M304.357,535.74a1.559,1.559,0,0,1-1.185-.427,2.319,2.319,0,0,1-.55-1.213h-2.4a3.635,3.635,0,0,0,1.247,2.655,4.319,4.319,0,0,0,2.865.936,3.954,3.954,0,0,0,3.253-1.33,4.645,4.645,0,0,0,1.087-3.022,3.685,3.685,0,0,0-3.77-3.982,3.659,3.659,0,0,0-1.27.194,5.037,5.037,0,0,0-.867.479l.44-2.684h5.018v-2.029h-6.743l-.87,6.753,2.154.1a1.513,1.513,0,0,1,.855-.749,2.382,2.382,0,0,1,.762-.11,1.544,1.544,0,0,1,1.371.645,2.734,2.734,0,0,1,.44,1.58,2.56,2.56,0,0,1-.47,1.579,1.6,1.6,0,0,1-1.367.628" transform="translate(-240.12 -420.155)"/>
      <rect id="Rectángulo_44562" data-name="Rectángulo 44562" width="2.557" height="2.518" transform="translate(70.321 114.706)"/>
      <path id="Trazado_195839" data-name="Trazado 195839" d="M375.584,531.45a6.838,6.838,0,0,0-2.429,2.592,5.711,5.711,0,0,0-.568,2.4h8.374v-2.108H375.63a2.709,2.709,0,0,1,.559-.668q.332-.288,1.235-.93l.962-.685a8.107,8.107,0,0,0,1.746-1.564,3.859,3.859,0,0,0,.81-2.415,3.724,3.724,0,0,0-1.147-2.85,4.332,4.332,0,0,0-3.088-1.077,3.522,3.522,0,0,0-3.417,1.83,5.909,5.909,0,0,0-.565,2.523h2.342a4.076,4.076,0,0,1,.269-1.5,1.744,1.744,0,0,1,2.717-.3,1.953,1.953,0,0,1,.429,1.293,2.53,2.53,0,0,1-.749,1.758,17.755,17.755,0,0,1-2.149,1.708" transform="translate(-297.999 -419.217)"/>
      <path id="Trazado_195840" data-name="Trazado 195840" d="M284.443,102.974v4.064l-.436,4.209-1.161,3.556-1.038-2.288-.4-1.982-.773-1.6-.951-.886-2.336-1.128.37,2.739-.467,2.466-.355,3.013-.1,2.079.725,1.45-1.241-.709-1.531-2.4-2.3-2.063.419,3.98-.483,2.675.515,3.319.725,2.208,1.337,1.74-2.095-.435-2.4-2-2.788-3.078.145,1.644,1.9,7.219,1,4.174,1.708,2.755,3.593,2.353,3.964,1.225,4.8.4,4.367.226,5.817-.5,2.884-1.579,2.063-1.353,2.514-3.5,1.209-3.787.624-7.253-.332-4.021-1.093,6.831-1.64,1.191-1.522.137,1.054-1.288,1.737-4.977-.507-3.416-1.112-3.1-1.757,2.928-1.483,1.756-1.035.722.761-1.776.176-3.689-.449-3.708-2.479-4.567-.371,4.45-1.073,3.728-1.366.956.254-2.049-.351-2.5-4.216-8.862-1.277-5.294-1.379,3.411Zm2.375,17.4c2.027,2.424,2.955,4.641,2.955,6.649a41.642,41.642,0,0,1-.455,4.983l3.827-1.989,1.326-1.572c0,2.444-.019,4.357-3.41,7.293l2.728.152,2.652-1.232-1.572,2.728-2.179,2.178-3.429,1.743-5.588-.985-2.368-1.175-2.311-2.311-1.25-2.861,1.629,1.5,4.3.53-1.781-2.5-1.591-2.993.019-2.444c1.288,1.989,2.292,2.785,5.058,3.921a18.818,18.818,0,0,1-.417-4.243c0-2.16,2.482-5.835,1.857-7.369" transform="translate(-214.09 -77.891)" fill="#1f1a17"/>
      <path id="Trazado_195841" data-name="Trazado 195841" d="M320.54,219.9l-.019,2.444,1.591,2.993,1.781,2.5-4.3-.53-1.629-1.5,1.25,2.861,2.311,2.311,2.368,1.175,5.588.985,3.429-1.743,2.179-2.178,1.572-2.728-2.652,1.232-2.728-.152c3.391-2.936,3.41-4.85,3.41-7.293l-1.326,1.572-3.827,1.989a41.638,41.638,0,0,0,.455-4.982c0-2.008-.928-4.225-2.955-6.649.625,1.534-1.857,5.21-1.857,7.369a18.817,18.817,0,0,0,.417,4.243c-2.766-1.137-3.77-1.932-5.058-3.921" transform="translate(-254.31 -169.729)" fill="#ef4136"/>
      <rect id="Rectángulo_44563" data-name="Rectángulo 44563" width="29.121" height="2.225" transform="translate(58.303 65.916)" fill="#1f1a17"/>
    </g>
  </g>
</svg>
