<svg id="Grupo_1008713" data-name="Grupo 1008713" xmlns="http://www.w3.org/2000/svg" xmlns:xlink="http://www.w3.org/1999/xlink" width="131.118" height="131.263" viewBox="0 0 131.118 131.263">
  <defs>
    <clipPath id="clip-path">
      <rect id="Rect치ngulo_348383" data-name="Rect치ngulo 348383" width="131.118" height="131.263" fill="none"/>
    </clipPath>
  </defs>
  <g id="Grupo_1008714" data-name="Grupo 1008714" clip-path="url(#clip-path)">
    <path id="Trazado_718091" data-name="Trazado 718091" d="M116.326,59.553c-.187-.061-.257-.062-.293-.1q-4.438-4.422-8.861-8.859a1.271,1.271,0,0,1-.329-.793c-.033-1.36.043-2.724-.032-4.08-.073-1.315.4-2.7-.447-3.958l.348-.467-3.7-3.8c-1.671.389-1.8-1.338-2.7-1.682.053-.384.217-.763.105-.879-1.223-1.277-2.488-2.513-3.771-3.789l-.718.86c1.759.8,1.568,2.316,1.5,3.8-.021.446.014.894.015,1.34,0,1.154,0,2.308,0,3.542a1.681,1.681,0,0,1-.355-.169c-2.937-2.927-5.879-5.85-8.788-8.8a1.65,1.65,0,0,1-.352-1.053c-.032-2.206-.028-4.414-.009-6.62a12.283,12.283,0,0,1,.218-1.517,7.22,7.22,0,0,0-.91-.792c-1.251-.807-1.673-2.7-3.543-2.693-.023,0-.055-.033-.067-.058-.443-.883-1.937-1.087-1.6-2.479.014-.059-.083-.159-.146-.221-1.231-1.192-2.465-2.382-3.729-3.6l-.669.713a3.847,3.847,0,0,0,.458.493,2.485,2.485,0,0,1,.979,2.353c-.084,1.664-.023,3.336-.023,5V22.2a2.832,2.832,0,0,1-.37-.231c-2.784-2.78-5.575-5.554-8.333-8.36a1.639,1.639,0,0,1-.342-1.042c-.037-2.145-.049-4.29-.025-6.435a3.5,3.5,0,0,0-1.231-3.082C67.382,2.086,66.558.641,65.138,0L59.132,6.968c.607,1.053,1.047-.224,1.68-.282,0,2.015-.04,3.974.019,5.931A2.443,2.443,0,0,1,60,14.6c-2.078,2.019-4.117,4.079-6.17,6.123l-2.374,2.363-.212-.115v-8.3l-.231-.108c-1.518,1.729-3.009,3.485-4.569,5.176a11.365,11.365,0,0,1-2.254,1.921,22.908,22.908,0,0,0-3.644,3.613l.758.965.826-1.225a54.744,54.744,0,0,1,.17,6.415,2.2,2.2,0,0,1-.558,1.318c-1.148,1.238-2.377,2.4-3.56,3.6-1.573,1.6-3.13,3.223-4.695,4.835l-.256-.148V33.069a10.016,10.016,0,0,0-1.729,1.249c-1.147,1.3-2.71,2.173-3.463,3.9-.375.862-1.405,1.406-2.318,1.975a25.488,25.488,0,0,0-3.777,3.5l.63.812,1.22-1.046c0,2.308.028,4.423-.024,6.537a2.01,2.01,0,0,1-.517,1.247c-2.577,2.626-5.195,5.212-7.8,7.809-.183.182-.38.348-.757.692V52.2l-1.642.212c-.338.371-.848.926-1.354,1.484-.608.671-1.524,1.258-1.742,2.038A4.358,4.358,0,0,1,8.436,58a5.494,5.494,0,0,1-1.355.7l-.226-.3C5.949,60.039,4,60.84,3.5,62.865c-.136.554-.848,1-1.36,1.417a4.786,4.786,0,0,1-1.114.512L.92,64.611,0,65.8l3.873,4.12.942-.738L1.254,65.808c.506-.26.856-.592,1.215-.6,2.109-.05,4.219-.025,6.329-.025l-.162.332a8.713,8.713,0,0,0,.858,1.326c.781.84,1.633,1.614,2.448,2.423q17.874,17.744,35.743,35.492,8.58,8.527,17.128,17.088c.531.531.892.6,1.476.015,4.273-4.286,8.584-8.534,12.878-12.8q9.307-9.246,18.605-18.5Q109.644,78.729,121.5,66.88a13.614,13.614,0,0,0,1.034-1.34c1.526,0,3.186.007,4.847,0,1.1-.006,2.252-.164,2.974.985.016.026.11,0,.228,0l.537-.626-3.281-3.634c-1.758.039-2.1-1.406-3.17-2.206l.756-.276c-1.26-1.239-2.362-2.362-3.518-3.427a3.759,3.759,0,0,0-1.2-.426l-2.123-1.869.388-.371-3.826-3.927-.715.681c2.021,1.154,2.041,2.992,1.914,4.9-.059.89-.013,1.787-.014,2.68,0,.494,0,.988,0,1.524M10.9,75.5,7.172,71.414l-.362.071c-.026.43-.246,1.046-.044,1.258,1.057,1.1,2.221,2.106,3.408,3.2L10.9,75.5m44.739,45.911,4.118,3.9.626-.946-3.871-3.62-.873.667M29.6,93.887l-3.965-3.949-.64.55,3.921,3.986.683-.587M20.432,46.636l-1.057-.587-3.6,3.908.712.624,3.944-3.945M52.819,12.805l.684.928,3.986-3.621-.589-.9-4.08,3.6M66.573,130.427l-4-3.6-.608.844c1.348,1.183,2.275,2.747,3.9,3.6l.706-.836m48.265-49.962-3.6,3.943.564.6,4.027-3.894-.994-.647m-66.87,31.921L44.1,108.479l-.688.63.266-.165,3.745,4.129.547-.688m73.044-38.1-3.61,3.964.624.587,4-3.9-1.012-.653M12.522,78.282c1.021,1.132,1.971,2.181,2.914,3.235.75.838.8.841,1.716-.141l-3.969-3.7-.661.609m111.61-5.431,4.034-4.036-.988-.693-3.624,3.985.578.743m-15.8-28.586,3.62,3.863.889-.627-3.881-3.943-.627.707M89.686,25.654l4.2,3.953.5-.646-3.945-3.981-.759.675m13.341,67.285-4,3.993.436.4,4.022-3.872-.462-.521M74.858,122.1l4.005-3.982-.584-.666-3.989,4,.568.646M109.14,86.719l-3.965,3.958.549.61,3.945-3.977-.529-.591M96.84,99.1l-4,3.956.364.45,4.146-3.956-.507-.45M34.985,32.064l3.887-3.892-.434-.594-4.058,4.01.6.476m3,70.094-.736.783.262-.191,3.706,4.067.58-.531-3.813-4.128m49.037,7.564,4.095-4.017-.419-.445-4.073,3.95.4.512M72.238,123.736l-4.058,4.03.679.547,3.82-4.13-.441-.447m12.294-12.246-4,3.952.57.431,3.871-3.918-.444-.465M75.368,11.019l.476-.451L71.9,6.624l-.475.443,3.945,3.953M53.425,119.23l.665-.606-3.963-3.963-.443.5,3.741,4.066M23.255,87.787,19.3,83.831l-.572.705,3.983,3.746.541-.5m12.483,12.14L31.684,96l-.435.623,3.96,3.966.529-.665" fill="#fff"/>
    <path id="Trazado_718092" data-name="Trazado 718092" d="M116.327,59.553c0-.536,0-1.03,0-1.524,0-.894-.045-1.791.014-2.68.127-1.913.107-3.751-1.914-4.9l.715-.681,3.826,3.927-.388.371L120.7,55.93a3.764,3.764,0,0,1,1.2.427c1.156,1.065,2.258,2.188,3.518,3.427l-.756.276c1.071.8,1.412,2.246,3.17,2.206l3.281,3.634-.537.626c-.117,0-.211.023-.228,0-.722-1.149-1.869-.991-2.974-.985-1.661.009-3.321,0-4.847,0a13.641,13.641,0,0,1-1.034,1.34Q109.645,78.729,97.771,90.558q-9.294,9.259-18.6,18.5c-4.294,4.266-8.6,8.514-12.878,12.8-.584.586-.945.516-1.476-.015q-8.551-8.557-17.128-17.088Q29.821,87,11.942,69.264c-.815-.809-1.666-1.583-2.448-2.423a8.7,8.7,0,0,1-.859-1.326l.162-.332c-2.11,0-4.22-.025-6.329.025-.358.009-.709.34-1.215.6L4.816,69.18l-.942.738L0,65.8l.92-1.188.111.183a4.774,4.774,0,0,0,1.114-.512c.512-.417,1.224-.863,1.36-1.417C4,60.84,5.95,60.039,6.857,58.4l.225.3A5.494,5.494,0,0,0,8.437,58a4.357,4.357,0,0,0,1.524-2.059c.218-.781,1.134-1.368,1.742-2.038.506-.558,1.015-1.113,1.354-1.484L14.7,52.2V59.74c.377-.344.574-.51.757-.692,2.607-2.6,5.225-5.183,7.8-7.809a2.011,2.011,0,0,0,.517-1.247c.052-2.114.024-4.229.024-6.537L22.578,44.5l-.63-.812a25.478,25.478,0,0,1,3.777-3.5c.913-.569,1.943-1.114,2.318-1.975.753-1.728,2.316-2.605,3.463-3.9a10.011,10.011,0,0,1,1.729-1.249v7.965l.256.148c1.564-1.612,3.122-3.231,4.695-4.835,1.182-1.206,2.412-2.367,3.559-3.6a2.2,2.2,0,0,0,.558-1.318,54.7,54.7,0,0,0-.17-6.415l-.826,1.225-.758-.965a22.913,22.913,0,0,1,3.643-3.613,11.36,11.36,0,0,0,2.254-1.921c1.56-1.691,3.05-3.446,4.569-5.176l.231.108v8.3l.212.115,2.375-2.363c2.053-2.044,4.092-4.1,6.17-6.123a2.443,2.443,0,0,0,.828-1.981c-.059-1.957-.019-3.916-.019-5.931-.633.058-1.072,1.335-1.68.282L65.139,0c1.419.641,2.244,2.086,3.468,3.055a3.5,3.5,0,0,1,1.231,3.082c-.024,2.145-.012,4.29.025,6.435a1.638,1.638,0,0,0,.342,1.042c2.758,2.806,5.549,5.58,8.333,8.36a2.8,2.8,0,0,0,.37.231v-.956c0-1.668-.06-3.34.024-5a2.486,2.486,0,0,0-.979-2.353,3.859,3.859,0,0,1-.459-.493l.669-.713c1.264,1.22,2.5,2.409,3.729,3.6.064.062.16.162.146.221-.334,1.392,1.161,1.6,1.6,2.479.013.025.044.058.067.058,1.87-.012,2.292,1.885,3.543,2.693a7.229,7.229,0,0,1,.91.792,12.213,12.213,0,0,0-.218,1.516c-.019,2.207-.023,4.414.009,6.621a1.651,1.651,0,0,0,.352,1.053c2.91,2.954,5.852,5.876,8.788,8.8a1.681,1.681,0,0,0,.355.169c0-1.235,0-2.389,0-3.543,0-.447-.037-.895-.015-1.34.071-1.482.263-3-1.5-3.8l.718-.86c1.282,1.276,2.548,2.512,3.771,3.789.111.116-.052.5-.105.879.9.344,1.027,2.071,2.7,1.682l3.7,3.8-.348.467c.845,1.258.374,2.643.447,3.958.075,1.357,0,2.721.032,4.08a1.272,1.272,0,0,0,.329.793q4.413,4.447,8.861,8.859c.036.036.107.038.293.1M60.79,15.323c-3.192,3.182-6.214,6.174-9.2,9.2a1.668,1.668,0,0,0-.266,1.07q-.027,16.49-.025,32.98c0,2.41,0,4.82,0,7.285H42.286V33.709c-3.024,3.031-5.894,5.9-8.738,8.785a1.375,1.375,0,0,0-.291.889q-.024,9.523-.012,19.046v3.414H23.739V52.433l-.22-.116c-2.8,2.848-5.611,5.686-8.385,8.559a1.852,1.852,0,0,0-.379,1.132c-.049,1.138-.017,2.28-.017,3.4-1.564.4-3.147-.32-4.77.432l55.615,55.246,55.6-55.36c-1.752-.35-3.282-.055-4.843-.234,0-1.161.05-2.294-.025-3.419a2.242,2.242,0,0,0-.527-1.332c-2.73-2.792-5.5-5.542-8.267-8.3-.173-.173-.378-.314-.716-.592V65.5H97.446c0-.389,0-.744,0-1.1q0-10.548.012-21.1a2.021,2.021,0,0,0-.637-1.589c-2.721-2.673-5.4-5.383-8.1-8.078-.2-.2-.421-.376-.8-.713V65.488h-9V64.44q.007-19.841.024-39.682a2.024,2.024,0,0,0-.659-1.58c-2.569-2.525-5.1-5.085-7.652-7.631-.2-.2-.418-.377-.813-.731V65.473H60.79Z" transform="translate(-0.001)"/>
    <path id="Trazado_718093" data-name="Trazado 718093" d="M40.95,396.719l-.724.439c-1.186-1.092-2.351-2.093-3.408-3.2-.2-.212.018-.828.044-1.258l.362-.071,3.726,4.088" transform="translate(-30.052 -321.217)"/>
    <path id="Trazado_718094" data-name="Trazado 718094" d="M305.888,664.517l.873-.667,3.871,3.62-.626.946-4.118-3.9" transform="translate(-250.251 -543.105)"/>
    <path id="Trazado_718095" data-name="Trazado 718095" d="M142.043,498.426l-.683.587-3.921-3.986.64-.55,3.965,3.949" transform="translate(-112.441 -404.539)"/>
    <path id="Trazado_718096" data-name="Trazado 718096" d="M91.387,253.759,87.443,257.7l-.712-.624,3.6-3.908,1.057.587" transform="translate(-70.956 -207.124)"/>
    <path id="Trazado_718097" data-name="Trazado 718097" d="M290.4,54.224l4.08-3.6.589.9-3.986,3.621-.684-.928" transform="translate(-237.579 -41.419)"/>
    <path id="Trazado_718098" data-name="Trazado 718098" d="M345.29,700.877l-.706.836c-1.627-.849-2.554-2.413-3.9-3.6l.608-.844,4,3.6" transform="translate(-278.717 -570.449)"/>
    <path id="Trazado_718099" data-name="Trazado 718099" d="M615.193,442.4l.994.647-4.027,3.894-.565-.6,3.6-3.943" transform="translate(-500.356 -361.931)"/>
    <path id="Trazado_718100" data-name="Trazado 718100" d="M243.218,600.322l-.547.688-3.745-4.129-.266.165.688-.631,3.872,3.907" transform="translate(-195.25 -487.936)"/>
    <path id="Trazado_718101" data-name="Trazado 718101" d="M649.077,408.449l1.012.653-4,3.9-.624-.587,3.61-3.964" transform="translate(-528.066 -334.158)"/>
    <path id="Trazado_718102" data-name="Trazado 718102" d="M68.844,427.653l.661-.609,3.969,3.7c-.921.982-.967.98-1.717.142-.943-1.055-1.893-2.1-2.914-3.236" transform="translate(-56.322 -349.371)"/>
    <path id="Trazado_718103" data-name="Trazado 718103" d="M679.87,379.261l-.578-.743,3.624-3.985.988.693-4.035,4.036" transform="translate(-555.739 -306.411)"/>
    <path id="Trazado_718104" data-name="Trazado 718104" d="M595.579,240.185l.627-.707,3.881,3.943-.889.627-3.62-3.863" transform="translate(-487.252 -195.92)"/>
    <path id="Trazado_718105" data-name="Trazado 718105" d="M493.092,138.011l.759-.675,3.945,3.981-.5.646-4.2-3.953" transform="translate(-403.406 -112.357)"/>
    <path id="Trazado_718106" data-name="Trazado 718106" d="M548.467,510.973l.462.521-4.022,3.872-.436-.4,4-3.993" transform="translate(-445.44 -418.034)"/>
    <path id="Trazado_718107" data-name="Trazado 718107" d="M409.012,650.4l-.568-.646,3.989-4,.584.666-4.005,3.982" transform="translate(-334.154 -528.298)"/>
    <path id="Trazado_718108" data-name="Trazado 718108" d="M582.216,476.778l.529.591-3.945,3.977-.549-.61,3.965-3.958" transform="translate(-473.076 -390.059)"/>
    <path id="Trazado_718109" data-name="Trazado 718109" d="M514.414,544.845l.507.45-4.146,3.956-.364-.45,4-3.956" transform="translate(-417.574 -445.746)"/>
    <path id="Trazado_718110" data-name="Trazado 718110" d="M189.626,156.111l-.6-.476,4.058-4.01.434.594-3.887,3.892" transform="translate(-154.641 -124.047)"/>
    <path id="Trazado_718111" data-name="Trazado 718111" d="M205.512,561.664l3.813,4.128-.58.531-3.706-4.067-.262.191.736-.783" transform="translate(-167.53 -459.505)"/>
    <path id="Trazado_718112" data-name="Trazado 718112" d="M476.639,583.182l-.4-.512,4.073-3.95.42.445-4.1,4.018" transform="translate(-389.62 -473.458)"/>
    <path id="Trazado_718113" data-name="Trazado 718113" d="M378.91,680.294l.442.447-3.82,4.13-.679-.547,4.058-4.03" transform="translate(-306.672 -556.558)"/>
    <path id="Trazado_718114" data-name="Trazado 718114" d="M446.771,612.965l.444.465-3.872,3.918-.57-.43,4-3.952" transform="translate(-362.24 -501.476)"/>
    <path id="Trazado_718115" data-name="Trazado 718115" d="M396.622,40.813l-3.945-3.953.475-.443,3.946,3.945-.476.451" transform="translate(-321.255 -29.794)"/>
    <path id="Trazado_718116" data-name="Trazado 718116" d="M276.9,634.969,273.16,630.9l.443-.5,3.963,3.963-.665.606" transform="translate(-223.476 -515.739)"/>
    <path id="Trazado_718117" data-name="Trazado 718117" d="M107.508,464.858l-.541.5-3.983-3.746.572-.705,3.952,3.956" transform="translate(-84.253 -377.071)"/>
    <path id="Trazado_718118" data-name="Trazado 718118" d="M176.295,531.745l-.529.665-3.96-3.966.435-.623,4.053,3.924" transform="translate(-140.557 -431.818)"/>
    <path id="Trazado_718119" data-name="Trazado 718119" d="M105.613,81.964v50.15h9.023V81.457c.4.354.614.533.813.732,2.549,2.546,5.083,5.106,7.652,7.631a2.024,2.024,0,0,1,.659,1.58q-.026,19.841-.024,39.682c0,.325,0,.65,0,1.048h9V99.568c.38.336.6.513.8.713,2.7,2.695,5.384,5.4,8.1,8.078a2.022,2.022,0,0,1,.637,1.588q-.022,10.548-.012,21.1v1.1h9.355V118.491c.338.278.543.419.716.592,2.764,2.759,5.537,5.508,8.267,8.3a2.243,2.243,0,0,1,.527,1.332c.075,1.125.024,2.258.024,3.419,1.561.179,3.09-.116,4.843.234l-55.6,55.36L54.79,132.481c1.623-.752,3.206-.033,4.77-.432,0-1.119-.031-2.261.017-3.4a1.853,1.853,0,0,1,.379-1.132c2.774-2.873,5.585-5.711,8.385-8.559l.22.116v13.41h9.506c0-1.142,0-2.278,0-3.414q0-9.523.012-19.046a1.374,1.374,0,0,1,.291-.889c2.845-2.89,5.714-5.754,8.738-8.785V132.5h9.015c0-2.465,0-4.875,0-7.285q.007-16.49.025-32.98a1.668,1.668,0,0,1,.266-1.07c2.985-3.028,6.006-6.021,9.2-9.2m.832,91.249a2.143,2.143,0,0,0,1.123,2.069,4.877,4.877,0,0,0,2.706.478,3.716,3.716,0,0,0,2.921-2.481,42.073,42.073,0,0,0,.349-4.236,3.806,3.806,0,0,0-2.44-3.852,3.557,3.557,0,0,0-5.092,3.141c-.11,1.82.613,2.753,2.4,3.34a.909.909,0,0,1,.229.134,1.3,1.3,0,0,0,1.868-.058c.2-.192.569-.207.833-.294a1.857,1.857,0,0,1-.736,2.346c-.552.3-1.665.656-2.117-.527-.021-.055-.225-.055-.344-.056-.57-.005-1.14,0-1.7,0m8.237,4.413h-9.511v1.516h9.511Z" transform="translate(-44.824 -66.641)" fill="#fff"/>
    <path id="Trazado_718120" data-name="Trazado 718120" d="M336.794,548.273c.563,0,1.133,0,1.7,0,.119,0,.322,0,.344.056.452,1.183,1.565.825,2.117.527a1.857,1.857,0,0,0,.736-2.346c-.264.087-.633.1-.833.294a1.3,1.3,0,0,1-1.868.058.906.906,0,0,0-.229-.134c-1.789-.587-2.512-1.52-2.4-3.34a3.557,3.557,0,0,1,5.092-3.141,3.806,3.806,0,0,1,2.44,3.852,42.078,42.078,0,0,1-.349,4.236,3.716,3.716,0,0,1-2.922,2.481,4.877,4.877,0,0,1-2.706-.478,2.143,2.143,0,0,1-1.123-2.069m5-4.543c0-1.333-.556-1.989-1.69-1.99a1.616,1.616,0,0,0-1.633,1.839,1.673,1.673,0,0,0,1.655,1.791,1.526,1.526,0,0,0,1.668-1.641" transform="translate(-275.173 -441.7)"/>
    <rect id="Rect치ngulo_348382" data-name="Rect치ngulo 348382" width="9.511" height="1.516" transform="translate(60.347 110.986)"/>
    <path id="Trazado_718121" data-name="Trazado 718121" d="M351.349,552a1.527,1.527,0,0,1-1.668,1.641,1.673,1.673,0,0,1-1.655-1.791,1.616,1.616,0,0,1,1.633-1.839c1.134,0,1.691.657,1.69,1.99" transform="translate(-284.725 -449.973)" fill="#fff"/>
  </g>
</svg>
