<svg id="Grupo_1008704" data-name="Grupo 1008704" xmlns="http://www.w3.org/2000/svg" xmlns:xlink="http://www.w3.org/1999/xlink" width="172.501" height="167.557" viewBox="0 0 172.501 167.557">
  <defs>
    <clipPath id="clip-path">
      <rect id="Rect치ngulo_44526" data-name="Rect치ngulo 44526" width="172.501" height="167.556" fill="none"/>
    </clipPath>
    <clipPath id="clip-path-2">
      <rect id="Rect치ngulo_347829" data-name="Rect치ngulo 347829" width="38.265" height="35.632"/>
    </clipPath>
  </defs>
  <g id="Grupo_562280" data-name="Grupo 562280" clip-path="url(#clip-path)">
    <path id="Trazado_195699" data-name="Trazado 195699" d="M178.7,231.086a.915.915,0,0,1-.637-.255l-61.43-59.268a.861.861,0,0,1,0-1.247l61.43-59.173a.923.923,0,0,1,1.276,0l60.919,59.172a.861.861,0,0,1,0,1.242l-60.919,59.268a.915.915,0,0,1-.64.258M118.55,170.94l60.143,58.027,59.644-58.027-59.644-57.933Z" transform="translate(-92.977 -89.243)" fill="#1f1a17"/>
    <path id="Trazado_195700" data-name="Trazado 195700" d="M407.094,64.429l-1.279-1.242L410.129,59,413.6,62.37l-1.279,1.242-2.194-2.131Z" transform="translate(-324.258 -47.48)"/>
    <path id="Trazado_195704" data-name="Trazado 195704" d="M0,0,8.781.128,8.807,1.91.026,1.783Z" transform="translate(71.584 25.394) rotate(-45)"/>
    <path id="Trazado_195705" data-name="Trazado 195705" d="M0,0,8.75.127,8.776,1.91.026,1.783Z" transform="translate(61.646 35.046) rotate(-45)"/>
    <path id="Trazado_195706" data-name="Trazado 195706" d="M0,0,8.815.128l.026,1.783L.026,1.783Z" transform="translate(51.724 44.683) rotate(-45)"/>
    <path id="Trazado_195707" data-name="Trazado 195707" d="M0,0,8.782.128l.026,1.783L.026,1.783Z" transform="matrix(0.707, -0.707, 0.707, 0.707, 41.802, 54.32)"/>
    <path id="Trazado_195708" data-name="Trazado 195708" d="M0,0,8.686.126l.026,1.783L.026,1.783Z" transform="translate(31.892 63.947) rotate(-45)"/>
    <path id="Trazado_195709" data-name="Trazado 195709" d="M0,0,8.733.127,8.759,1.91.026,1.783Z" transform="matrix(0.707, -0.707, 0.707, 0.707, 21.959, 73.595)"/>
    <path id="Trazado_195701" data-name="Trazado 195701" d="M74.1,406.323l-6.761-6.568,4.791-4.659,1.28,1.242L69.9,399.754l5.482,5.326Z" transform="translate(-53.808 -317.972)"/>
    <path id="Trazado_195710" data-name="Trazado 195710" d="M0,0,1.783.026l.126,8.686L.126,8.686Z" transform="translate(23.973 91.925) rotate(-45.001)"/>
    <path id="Trazado_195711" data-name="Trazado 195711" d="M0,0,1.783.026,1.91,8.759.127,8.733Z" transform="matrix(0.707, -0.707, 0.707, 0.707, 33.85, 101.517)"/>
    <path id="Trazado_195712" data-name="Trazado 195712" d="M0,0,1.783.026l.129,8.83L.129,8.83Z" transform="matrix(0.707, -0.707, 0.707, 0.707, 43.771, 111.155)"/>
    <path id="Trazado_195713" data-name="Trazado 195713" d="M0,0,1.783.026l.128,8.8L.128,8.8Z" transform="translate(53.705 120.803) rotate(-45.002)"/>
    <path id="Trazado_195714" data-name="Trazado 195714" d="M0,0,1.783.026,1.91,8.808.128,8.783Z" transform="matrix(0.707, -0.707, 0.707, 0.707, 63.638, 130.451)"/>
    <path id="Trazado_195715" data-name="Trazado 195715" d="M0,0,1.783.026,1.911,8.84.128,8.814Z" transform="translate(73.504 140.034) rotate(-45)"/>
    <path id="Trazado_195702" data-name="Trazado 195702" d="M417.481,746.9l-2.081-2.022,1.279-1.242.8.78,5.054-4.908,1.279,1.242Z" transform="translate(-331.917 -595.155)"/>
    <path id="Trazado_195716" data-name="Trazado 195716" d="M0,0,8.8.128l.026,1.783-8.8-.128Z" transform="matrix(0.707, -0.707, 0.707, 0.707, 94.252, 140.828)"/>
    <path id="Trazado_195717" data-name="Trazado 195717" d="M0,0,8.83.129l.026,1.783L.026,1.783Z" transform="matrix(0.707, -0.707, 0.707, 0.707, 104.151, 131.212)"/>
    <path id="Trazado_195718" data-name="Trazado 195718" d="M0,0,8.815.128,8.84,1.911.026,1.783Z" transform="matrix(0.707, -0.707, 0.707, 0.707, 114.062, 121.586)"/>
    <path id="Trazado_195719" data-name="Trazado 195719" d="M0,0,8.687.126l.026,1.783L.026,1.783Z" transform="translate(124.053 111.882) rotate(-45)"/>
    <path id="Trazado_195720" data-name="Trazado 195720" d="M0,0,8.8.128l.026,1.783-8.8-.128Z" transform="translate(133.974 102.245) rotate(-45)"/>
    <path id="Trazado_195721" data-name="Trazado 195721" d="M0,0,8.814.128,8.84,1.911.026,1.783Z" transform="translate(143.885 92.618) rotate(-45)"/>
    <path id="Trazado_195703" data-name="Trazado 195703" d="M756.756,398.985l-1.279-1.242,1.55-1.506-4.012-3.9,1.279-1.242,4.651,4.521.638.621Z" transform="translate(-601.681 -314.751)"/>
    <path id="Trazado_195722" data-name="Trazado 195722" d="M0,0,1.783.026,1.91,8.745.127,8.719Z" transform="matrix(0.707, -0.707, 0.707, 0.707, 141.377, 67.915)"/>
    <path id="Trazado_195723" data-name="Trazado 195723" d="M0,0,1.783.026l.129,8.832L.129,8.832Z" transform="translate(131.386 58.21) rotate(-44.998)"/>
    <path id="Trazado_195724" data-name="Trazado 195724" d="M0,0,1.783.026l.129,8.83L.129,8.83Z" transform="translate(121.476 48.584) rotate(-45.001)"/>
    <path id="Trazado_195725" data-name="Trazado 195725" d="M0,0,1.783.026,1.912,8.9.129,8.879Z" transform="translate(111.53 38.924) rotate(-45.001)"/>
    <path id="Trazado_195726" data-name="Trazado 195726" d="M0,0,1.783.026,1.91,8.808.128,8.782Z" transform="translate(101.679 29.355) rotate(-45)"/>
    <path id="Trazado_195727" data-name="Trazado 195727" d="M0,0,1.783.026,1.909,8.68.126,8.654Z" transform="matrix(0.707, -0.707, 0.707, 0.707, 91.766, 19.727)"/>
    <g id="Grupo_1008705" data-name="Grupo 1008705" transform="translate(66.562 34.7)">
      <g id="Grupo_1005823" data-name="Grupo 1005823" clip-path="url(#clip-path-2)">
        <path id="Trazado_716627" data-name="Trazado 716627" d="M34.881,32.633A10.812,10.812,0,0,1,19.15,31.8a10.824,10.824,0,0,1-9.43,3.78A10.372,10.372,0,0,1,3.4,32.622,8.134,8.134,0,0,0,9.7,34.3a8.025,8.025,0,0,0,4.767-2.448A8.315,8.315,0,1,0,.2,26.737,10.814,10.814,0,0,1,9.044,14.081,10.917,10.917,0,0,1,10.479,3.925,10.327,10.327,0,0,1,15.906.034,8.31,8.31,0,0,0,11.58,4.46a8.16,8.16,0,0,0-.083,6.2,8.307,8.307,0,0,0,15.7-.553A8.323,8.323,0,0,0,22.481,0a10.81,10.81,0,0,1,6.947,14.11A10.84,10.84,0,0,1,38.074,26.84,8.429,8.429,0,0,0,36.3,20.955a7.966,7.966,0,0,0-5.316-3.1A8.29,8.29,0,0,0,24.434,32.4a8.341,8.341,0,0,0,10.446.234m-15.6-14.269a1.646,1.646,0,1,0,1.632,1.611,1.665,1.665,0,0,0-1.632-1.611" transform="translate(0 0.001)"/>
        <path id="Trazado_716628" data-name="Trazado 716628" d="M468.945,398.22a7.223,7.223,0,0,1-.7-1.941c-.03-.132.01-.2.137-.247a7.822,7.822,0,0,0,3.942-3.421,7.952,7.952,0,0,0,1.029-4.98c-.012-.109-.021-.218-.032-.327a5.765,5.765,0,0,1,2.173-.452,10.307,10.307,0,0,1-6.548,11.368" transform="translate(-446.137 -368.595)"/>
        <path id="Trazado_716629" data-name="Trazado 716629" d="M197.422,397.8a10.224,10.224,0,0,1-6.365-11.3c.4.072.81.134,1.212.22.244.052.478.153.722.207.194.043.214.146.2.32a13.126,13.126,0,0,0-.054,1.478,7.806,7.806,0,0,0,1.635,4.406,7.927,7.927,0,0,0,3.144,2.479c.145.065.189.123.152.3a8.5,8.5,0,0,1-.648,1.891" transform="translate(-181.894 -368.26)"/>
        <path id="Trazado_716630" data-name="Trazado 716630" d="M271.26,210.664l-1.474-1.6a10.181,10.181,0,0,1,12.973-.035,7,7,0,0,1-1.451,1.607,8.147,8.147,0,0,0-10.048.03" transform="translate(-257.054 -196.947)"/>
      </g>
    </g>
    <path id="Trazado_718090" data-name="Trazado 718090" d="M1932.58,2314.839a5.063,5.063,0,0,0,1.123-3.252,4.2,4.2,0,0,0-1.149-3.042,4.249,4.249,0,0,0-4.434-.922,2.98,2.98,0,0,0-1.145.852,8.76,8.76,0,0,1,.41-2.329,1.91,1.91,0,0,1,1.844-1.43,1.465,1.465,0,0,1,1.3.625,1.327,1.327,0,0,1,.251.708h2.645a3.552,3.552,0,0,0-1.253-2.5,4.479,4.479,0,0,0-2.989-.941,4.153,4.153,0,0,0-2.233.578,4.519,4.519,0,0,0-1.508,1.531,7.381,7.381,0,0,0-.9,2.8,18.692,18.692,0,0,0-.13,2.453,8.343,8.343,0,0,0,.937,4.2,4.03,4.03,0,0,0,3.748,2.084,4.191,4.191,0,0,0,3.488-1.407m-5.528-3.088a2.208,2.208,0,0,1,.78-1.889,1.943,1.943,0,0,1,1.2-.4,1.883,1.883,0,0,1,1.418.607,2.441,2.441,0,0,1,.578,1.75,2.612,2.612,0,0,1-.507,1.668,1.678,1.678,0,0,1-1.393.643,1.9,1.9,0,0,1-1.492-.666,2.5,2.5,0,0,1-.587-1.718" transform="translate(-1842.805 -2189.973)"/>
  </g>
</svg>
