<svg xmlns="http://www.w3.org/2000/svg" xmlns:xlink="http://www.w3.org/1999/xlink" width="69.769" height="69.785" viewBox="0 0 69.769 69.785">
  <defs>
    <clipPath id="clip-path">
      <rect id="Rectángulo_347509" data-name="Rectángulo 347509" width="69.769" height="69.785" fill="none"/>
    </clipPath>
  </defs>
  <g id="Grupo_1005252" data-name="Grupo 1005252" transform="translate(-316.55 228.372)">
    <g id="Grupo_1005251" data-name="Grupo 1005251" transform="translate(316.55 -228.372)" clip-path="url(#clip-path)">
      <path id="Trazado_715291" data-name="Trazado 715291" d="M34.848,69.784H1.589C.267,69.784,0,69.518,0,68.195q0-33.3,0-66.606C0,.263.264,0,1.588,0h66.59c1.323,0,1.59.266,1.59,1.588q0,33.3,0,66.606c0,1.323-.267,1.59-1.589,1.59H34.848M2.092,64.146h10.02V63.16q0-14.757,0-29.514c0-1.266.29-1.55,1.564-1.55h22.37c1.306,0,1.575.273,1.576,1.608q0,4.122,0,8.243c0,.258.028.516.041.756,1.322.18,1.736.435,1.7,1.087-.056,1.079-.937,1.009-1.7,1.106v8.582c.768.074,1.7-.012,1.693,1.079-.007,1.074-.955.975-1.691,1.1v8.481H67.674V5.634H2.092Zm33.42-10.692V44.877c-.757-.074-1.643.016-1.683-1.03-.045-1.168.955-1.005,1.692-1.141V34.193h-21.3V64.14h21.29V55.674c-1.374-.241-1.712-.474-1.7-1.149s.358-.887,1.7-1.07M2.094,3.483H67.649V2.1H2.094Zm0,64.192H67.65V66.287H2.1Z" transform="translate(0 0)"/>
      <path id="Trazado_715292" data-name="Trazado 715292" d="M116.752,62.491c.032-.3-.026-.593.094-.721.276-.295.637-.7.967-.7s.672.417.986.679c.068.057.047.233.051.354.021.556-.185,1.331.1,1.622a10.731,10.731,0,0,0,2.256,1.39c0-.972.02-1.8-.016-2.622a.8.8,0,0,0-.346-.487c-.275-.2-.6-.337-.891-.511a1.027,1.027,0,0,1,.835-1.875c.115.031.225.076.373.127.137-.808-.216-1.9,1.112-1.95.7-.025.918.4,1.039,1.854.039.017.084.055.116.046.834-.233,1.337-.082,1.564.475.234.574.024,1.108-.761,1.447a1.417,1.417,0,0,0-.974,1.694,14.381,14.381,0,0,1,.014,1.8c.845-.487,1.586-.9,2.308-1.345a.629.629,0,0,0,.191-.427,7.58,7.58,0,0,0,.008-.808c0-.876.28-1.293.9-1.365.655-.075,1.029.287,1.217,1.218.724-.278,1.549-1.027,2.14.049.575,1.045-.454,1.355-1.112,1.84.153.143.281.247.391.367a.956.956,0,0,1,.121,1.276c-.318.471-.9.686-1.274.329-1.306-1.232-2.286-.269-3.339.362-.125.075-.253.146-.515.3.844.483,1.6.934,2.383,1.347.108.057.324-.042.469-.112.309-.148.6-.335.906-.487a.962.962,0,0,1,1.306.3.939.939,0,0,1-.067,1.277,2.819,2.819,0,0,1-.364.3c.689.534,1.845.873,1.141,1.962-.72,1.113-1.544.126-2.334-.174a4.3,4.3,0,0,1-.132.655.967.967,0,0,1-1.074.707c-.522-.059-.99-.419-.882-.9.434-1.949-1.043-2.342-2.385-3.024,0,.9-.013,1.734.015,2.571,0,.122.185.267.316.352.287.186.6.339.894.508a.992.992,0,0,1,.5,1.368.946.946,0,0,1-1.35.5c-.089-.037-.183-.063-.328-.112-.125.823.18,1.93-1.146,1.974-.668.022-.877-.424-1.011-1.933-.186.056-.4.2-.538.146a2.335,2.335,0,0,1-1.081-.56.888.888,0,0,1,.256-1.24.178.178,0,0,1,.058-.043c1.525-.406,1.439-1.592,1.354-2.782-.016-.218,0-.438,0-.8-.839.485-1.6.909-2.336,1.366-.108.066-.147.286-.166.442a5.65,5.65,0,0,0-.006.661c-.005.847-.3,1.3-.9,1.377s-.995-.278-1.177-.989a16.507,16.507,0,0,1-1.8.322c-.159.013-.427-.274-.505-.477-.467-1.21.672-1.37,1.32-1.911-.17-.148-.336-.277-.483-.426A.962.962,0,0,1,115,67.777a.944.944,0,0,1,1.211-.41.506.506,0,0,1,.2.092c1.011,1.038,1.975.648,2.939-.082.211-.16.452-.279.8-.491-.853-.492-1.614-.946-2.393-1.368a.667.667,0,0,0-.473.041,3.582,3.582,0,0,0-.578.32c-.553.339-1.116.473-1.58-.1a.99.99,0,0,1,.185-1.487,12.019,12.019,0,0,1-.989-1.269.794.794,0,0,1,.155-.677c.762-.966,1.48-.165,2.272.148" transform="translate(-97.368 -49.272)"/>
      <path id="Trazado_715293" data-name="Trazado 715293" d="M322.625,59.907q3.786,0,7.573,0c1.182,0,1.495.3,1.495,1.46q0,7.28,0,14.56c0,1.126-.321,1.459-1.432,1.46q-7.683.006-15.366,0c-1.129,0-1.454-.325-1.454-1.434q0-7.317,0-14.634c0-1.078.328-1.41,1.392-1.411q3.9,0,7.793,0m-7.079,15.368h14.042V61.994H315.547Z" transform="translate(-267.224 -51.073)"/>
      <path id="Trazado_715294" data-name="Trazado 715294" d="M435.226,321.8c0-.783-.015-1.567,0-2.35a1.026,1.026,0,1,1,2.048,0q.026,2.386,0,4.773a1.023,1.023,0,1,1-2.044,0c-.018-.807,0-1.615-.005-2.423" transform="translate(-371.049 -271.413)"/>
      <path id="Trazado_715295" data-name="Trazado 715295" d="M348.974,90.151c-1.1,0-2.2.008-3.3,0-.8-.008-1.248-.4-1.237-1.033.01-.6.455-1.013,1.2-1.018q3.375-.022,6.751,0a1.05,1.05,0,0,1,1.167,1.048c-.01.6-.457.991-1.2,1-1.125.013-2.25,0-3.376,0" transform="translate(-293.649 -75.099)"/>
      <path id="Trazado_715296" data-name="Trazado 715296" d="M348.953,114.117c-1.1,0-2.2.009-3.3,0-.763-.008-1.2-.368-1.222-.974-.026-.628.439-1.071,1.212-1.076q3.339-.022,6.678,0c.775,0,1.245.441,1.225,1.065-.019.6-.465.977-1.214.985-1.125.012-2.25,0-3.376,0" transform="translate(-293.644 -95.531)"/>
      <path id="Trazado_715297" data-name="Trazado 715297" d="M348.983,138.084c-1.1,0-2.2.008-3.3,0-.8-.008-1.252-.391-1.247-1.024s.467-1.025,1.26-1.029q3.3-.017,6.6,0c.785,0,1.253.419,1.249,1.042s-.461,1-1.263,1.011c-1.1.01-2.2,0-3.3,0" transform="translate(-293.649 -115.965)"/>
    </g>
  </g>
</svg>
