<svg xmlns="http://www.w3.org/2000/svg" xmlns:xlink="http://www.w3.org/1999/xlink" width="88.689" height="88.689" viewBox="0 0 88.689 88.689">
  <defs>
    <clipPath id="clip-path">
      <rect id="Rectángulo_348248" data-name="Rectángulo 348248" width="37.851" height="43.943" fill="#12263f"/>
    </clipPath>
  </defs>
  <g id="Grupo_1009398" data-name="Grupo 1009398" transform="translate(-180 -2177.941)">
    <g id="Grupo_1006754" data-name="Grupo 1006754" transform="translate(180 2177.941)" opacity="0.752">
      <g id="Grupo_20664" data-name="Grupo 20664" transform="translate(0 0)">
        <path id="Trazado_99075" data-name="Trazado 99075" d="M44.345,0A44.345,44.345,0,1,1,0,44.345,44.345,44.345,0,0,1,44.345,0Z" fill="#ffa031"/>
        <path id="Trazado_715274" data-name="Trazado 715274" d="M35.122,0A35.122,35.122,0,1,1,0,35.122,35.122,35.122,0,0,1,35.122,0Z" transform="translate(9.223 9.223)" fill="#f6f6f6"/>
      </g>
    </g>
    <g id="Grupo_1006759" data-name="Grupo 1006759" transform="translate(206.764 2203.314)" opacity="0.752">
      <g id="Grupo_1006758" data-name="Grupo 1006758" clip-path="url(#clip-path)">
        <path id="Trazado_717983" data-name="Trazado 717983" d="M2.187,0a32.809,32.809,0,0,1,.36,3.445c.028,10.861.014,21.722.019,32.583a4.944,4.944,0,0,0,3.167,5.033c1.652.62,2.421.064,3.248-1.462.642-1.186.811-2.968,2.686-3.186.06-.007.123-.087.162-.147.473-.727,1.193-1.161,1.91-.638.511.372.713,1.167,1.108,1.872,1.319-.891,1.731,1.081,2.9,1.442.445-1.276,1.21-1.886,2.536-1.293.4-1.058.982-1.578,2.191-1.309.363.081,1.067-.455,1.292-.879.366-.688.769-1.131,1.555-1.06a1.34,1.34,0,0,1,1.288,1.346,1.19,1.19,0,0,0,.264.581c1,1.221.921,1.794-.412,2.739.1.356.1.8.321,1.049a8.022,8.022,0,0,0,1.513,1.256c.184.123.52,0,.784.026,4.066.358,6.323-2.138,6.265-6.165-.154-10.707-.063-21.417-.035-32.126A25.736,25.736,0,0,1,35.683,0h1.823c.114,1.227.324,2.454.327,3.681q.039,16.057.014,32.114c0,5.083-3.076,8.143-8.163,8.145q-10.819,0-21.637,0C3.119,43.939,0,40.825,0,35.9Q0,19.675.019,3.446A34.132,34.132,0,0,1,.364,0Z" transform="translate(0)" fill="#12263f"/>
        <path id="Trazado_717984" data-name="Trazado 717984" d="M41.288,0c1.405,1.09,2.2,2.925,4.21,3.319a1.6,1.6,0,0,1,.881,1.307A1.581,1.581,0,0,1,45.21,5.669,8.246,8.246,0,0,1,42.666,4.9a3.2,3.2,0,0,1-.917-.835C39.783,2,39.348,1.994,37.43,4.04c-2.207,2.354-4.77,2.344-6.994-.027a12.5,12.5,0,0,0-.942-.985,1.63,1.63,0,0,0-2.356.009c-.479.427-.877.943-1.337,1.393a4.234,4.234,0,0,1-6.2,0c-.879-.861-1.569-1.9-3-2.046-.682-.071-.932-.823-.693-1.553C16,.551,16.117.277,16.223,0H18.73a33.1,33.1,0,0,0,3.1,2.892,1.974,1.974,0,0,0,1.844-.064A32.815,32.815,0,0,0,26.705,0H29.9a37.724,37.724,0,0,0,3.06,2.821,1.88,1.88,0,0,0,1.747.137A36.9,36.9,0,0,0,37.87,0h3.418" transform="translate(-12.214)" fill="#12263f"/>
        <path id="Trazado_717985" data-name="Trazado 717985" d="M37.066,51.57c.617-.671.972-1.35,1.517-1.58.816-.345,1.265.425,1.689,1.017.464.648.959,1.275,1.4,1.938a1.285,1.285,0,0,1-.8,2.179c-1.2.351-2.419.646-3.632.955-.731.186-1.63.554-2.031-.32a5.614,5.614,0,0,1,.031-2.176A19.859,19.859,0,0,1,33.226,52.1a4.362,4.362,0,0,1,.062-6.937,11.3,11.3,0,0,1,3.4-2,18.831,18.831,0,0,1,13.157,0A11.435,11.435,0,0,1,53.5,45.393a4.274,4.274,0,0,1,.087,6.464A10.32,10.32,0,0,1,48.752,54.5a1.2,1.2,0,0,1-1.633-.817,1.239,1.239,0,0,1,.887-1.6A18.505,18.505,0,0,0,50.8,50.836c2.192-1.366,2.2-3.027.008-4.371a11.976,11.976,0,0,0-3.125-1.315,16.7,16.7,0,0,0-9.65.235,10.148,10.148,0,0,0-2.543,1.241c-1.829,1.247-1.831,2.709-.052,4a15.431,15.431,0,0,0,1.626.944" transform="translate(-24.354 -32.414)" fill="#12263f"/>
      </g>
    </g>
  </g>
</svg>
