<svg xmlns="http://www.w3.org/2000/svg" xmlns:xlink="http://www.w3.org/1999/xlink" width="88.689" height="88.689" viewBox="0 0 88.689 88.689">
  <defs>
    <clipPath id="clip-path">
      <rect id="Rectángulo_348249" data-name="Rectángulo 348249" width="38.306" height="44.527" fill="#12263f"/>
    </clipPath>
  </defs>
  <g id="Grupo_1009399" data-name="Grupo 1009399" transform="translate(-180 -2357.851)">
    <g id="Grupo_1006755" data-name="Grupo 1006755" transform="translate(180 2357.851)" opacity="0.752">
      <g id="Grupo_20664" data-name="Grupo 20664" transform="translate(0 0)">
        <path id="Trazado_99075" data-name="Trazado 99075" d="M44.345,0A44.345,44.345,0,1,1,0,44.345,44.345,44.345,0,0,1,44.345,0Z" fill="#3076b6"/>
        <path id="Trazado_715274" data-name="Trazado 715274" d="M35.122,0A35.122,35.122,0,1,1,0,35.122,35.122,35.122,0,0,1,35.122,0Z" transform="translate(9.223 9.223)" fill="#f6f6f6"/>
      </g>
    </g>
    <g id="Grupo_1006761" data-name="Grupo 1006761" transform="translate(206.764 2382.851)" opacity="0.752">
      <g id="Grupo_1006760" data-name="Grupo 1006760" clip-path="url(#clip-path)">
        <path id="Trazado_717986" data-name="Trazado 717986" d="M2.078,0A13.411,13.411,0,0,1,2.53,2.433q.045,16.9.021,33.8c0,3.719,1.969,5.69,5.7,5.693q10.959.01,21.918,0c3.567,0,5.578-2.016,5.58-5.584.006-11.382,0-22.764.027-34.147A10.717,10.717,0,0,1,36.241,0h1.616a14.169,14.169,0,0,1,.427,2.441q.043,16.964.018,33.928c0,5-3.137,8.142-8.136,8.146-7.309.005-14.618-.024-21.926.012-3.6.018-6.21-1.449-7.73-4.762-.1-.208-.337-.35-.511-.522V0Z" fill="#12263f"/>
        <path id="Trazado_717987" data-name="Trazado 717987" d="M41.57,0c1.018.971,2.011,1.972,3.071,2.895a2.87,2.87,0,0,0,1.176.38,1.22,1.22,0,0,1,1.076,1.4,1.2,1.2,0,0,1-1.341,1.139A4.3,4.3,0,0,1,42.314,4.3c-2.289-2.356-2.47-2.352-4.693-.042-2.067,2.147-4.679,2.133-6.773-.035-2.174-2.252-2.437-2.25-4.619.022a4.33,4.33,0,0,1-6.765-.016,4.57,4.57,0,0,0-2.7-1.784C15.769,2.3,15.686,1.369,16.409,0h2.308a38.972,38.972,0,0,0,3.028,2.781,1.962,1.962,0,0,0,1.759.269A38.325,38.325,0,0,0,26.8,0h3.463a37.484,37.484,0,0,0,3.218,2.995,1.9,1.9,0,0,0,1.772-.133A37.737,37.737,0,0,0,38.339,0Z" transform="translate(-12.254)" fill="#12263f"/>
        <path id="Trazado_717988" data-name="Trazado 717988" d="M122.18,113.475a1.451,1.451,0,0,1-1.427,1.491,1.407,1.407,0,0,1-1.462-1.337,1.435,1.435,0,0,1,1.363-1.543,1.458,1.458,0,0,1,1.526,1.389" transform="translate(-91.746 -86.211)" fill="#12263f"/>
        <path id="Trazado_717989" data-name="Trazado 717989" d="M22.371,101.253a1.449,1.449,0,0,1,1.41,1.5,1.416,1.416,0,0,1-1.509,1.389,1.362,1.362,0,0,1-1.347-1.43,1.427,1.427,0,0,1,1.446-1.457" transform="translate(-16.094 -77.88)" fill="#12263f"/>
        <path id="Trazado_717990" data-name="Trazado 717990" d="M60.451,71.608a1.416,1.416,0,0,1-1.435,1.468,1.379,1.379,0,0,1-1.43-1.359,1.434,1.434,0,1,1,2.865-.109" transform="translate(-44.288 -53.982)" fill="#12263f"/>
        <path id="Trazado_717991" data-name="Trazado 717991" d="M130.083,134.386a1.464,1.464,0,0,1-1.436,1.487,1.424,1.424,0,0,1-1.455-1.454A1.361,1.361,0,0,1,128.558,133a1.433,1.433,0,0,1,1.525,1.381" transform="translate(-97.83 -102.299)" fill="#12263f"/>
        <path id="Trazado_717992" data-name="Trazado 717992" d="M31.409,52.752a1.4,1.4,0,0,1-1.379-1.51,1.431,1.431,0,0,1,2.86.1,1.391,1.391,0,0,1-1.481,1.406" transform="translate(-23.092 -38.384)" fill="#12263f"/>
        <path id="Trazado_717993" data-name="Trazado 717993" d="M37.1,156.2a1.431,1.431,0,0,1,1.47-1.431,1.406,1.406,0,0,1,1.4,1.494,1.356,1.356,0,0,1-1.408,1.366A1.4,1.4,0,0,1,37.1,156.2" transform="translate(-28.539 -119.042)" fill="#12263f"/>
        <path id="Trazado_717994" data-name="Trazado 717994" d="M109.459,81.662a1.383,1.383,0,0,1-1.426-1.45,1.316,1.316,0,0,1,1.373-1.382,1.333,1.333,0,0,1,1.486,1.387,1.381,1.381,0,0,1-1.433,1.445" transform="translate(-83.093 -60.632)" fill="#12263f"/>
        <path id="Trazado_717995" data-name="Trazado 717995" d="M121.539,54.376a1.34,1.34,0,0,1-1.417,1.338,1.367,1.367,0,0,1-1.439-1.435,1.344,1.344,0,0,1,1.355-1.408,1.424,1.424,0,0,1,1.5,1.505" transform="translate(-91.285 -40.663)" fill="#12263f"/>
        <path id="Trazado_717996" data-name="Trazado 717996" d="M74.8,128.391a1.436,1.436,0,0,1-1.475,1.428,1.4,1.4,0,0,1-1.39-1.5,1.337,1.337,0,0,1,1.4-1.359,1.4,1.4,0,0,1,1.462,1.428" transform="translate(-55.329 -97.655)" fill="#12263f"/>
      </g>
    </g>
  </g>
</svg>
